<svg width="249" height="200" viewBox="0 0 249 200" fill="none" xmlns="http://www.w3.org/2000/svg">
<g clip-path="url(#clip0_596_30962)">
<path d="M77.1855 33.9458C66.8864 35.9067 51.5779 45.2666 51.6273 61.844C51.6603 76.8889 63.9697 86.0015 64.0027 105.743C64.0851 120.573 55.8788 130.576 47.0627 136.113C50.6221 135.783 54.544 135.585 58.8449 135.585C67.8916 135.552 73.3131 136.426 73.6591 136.492L119.98 79.6243C107.111 60.3939 92.0821 45.4313 77.202 33.9458H77.1855Z" fill="#EA002C"/>
<path d="M116.108 187.443C121.925 178.38 122.666 163.912 123.161 149.18C123.704 135.437 126.588 125.105 144.962 125.023C149.015 125.023 152.921 125.583 159.941 125.55C186.883 125.451 204.449 116.157 215.407 110.076C193.062 95.839 160.435 81.2885 119.964 79.6406C117.327 87.0889 96.8114 144.121 95.2624 148.719C95.5096 148.999 99.0854 153.036 103.584 160.88C110.208 171.657 113.751 180.802 116.108 187.46V187.443Z" fill="#EA002C"/>
<path d="M18.2747 140.875C15.9347 140.875 14.7648 139.326 14.4352 136.607C14.1386 133.938 2.57065 27.9477 0.840405 11.9141C0.609706 9.59062 0 5.28973 0 3.74074C0 1.28544 1.6149 0.0001154 3.49345 0.0001154C8.99728 -0.0328417 38.9058 6.98701 70.6435 29.2166C61.5144 31.8037 44.9534 41.3118 45.0029 61.0037C45.0853 78.4379 57.543 88.0284 57.6419 105.512C57.7243 133.954 25.0144 140.826 18.2747 140.859V140.875Z" fill="#F47725"/>
<path d="M118.761 195.007C119.272 196.325 119.733 197.446 120.194 198.204C120.919 199.473 121.892 200 123.045 200C123.787 200 124.693 199.753 125.698 199.308C128.154 198.204 224.883 153.151 239.45 146.445C241.575 145.407 245.563 143.627 246.898 142.836C248.266 142.045 248.892 140.924 248.892 139.771C248.892 139.095 248.694 138.453 248.332 137.859C246.502 134.91 237.143 124.973 221.504 114.114C209.096 120.969 189.701 131.515 160.847 131.647C153.761 131.647 152.179 131.169 147.335 131.202C133.245 131.251 129.736 137.283 129.225 149.609C129.142 151.948 129.076 155.079 128.961 158.523C128.516 169.581 127.198 184.79 118.761 194.99V195.007Z" fill="#F47725"/>
</g>
<defs>
<clipPath id="clip0_596_30962">
<rect width="248.892" height="200" fill="white"/>
</clipPath>
</defs>
</svg>
