<?xml version="1.0" encoding="UTF-8"?><svg id="Layer_1" xmlns="http://www.w3.org/2000/svg" viewBox="0 0 72 24"><defs><style>.cls-1{stroke-linecap:square;}.cls-1,.cls-2{fill:none;stroke:#fff;stroke-width:1.5px;}</style></defs><path class="cls-2" d="m60,19.5c4.14,0,7.5-3.36,7.5-7.5s-3.36-7.5-7.5-7.5-7.5,3.36-7.5,7.5,3.36,7.5,7.5,7.5Z"/><path class="cls-1" d="m53.25,14.62c.99.4,1.7.4,2.13,0,.65-.59.09-2.4,1-2.89.91-.5,2.3,1.71,3.6.98,1.3-.72-.12-2.66.78-3.44.9-.78,2.07.1,2.28-1.21.2-1.31-.96-.74-1.18-1.98-.15-.83-.15-1.26,0-1.3"/><path class="cls-1" d="m61.88,19.26c-.7-.72-.96-1.39-.76-2.01.3-.93.78-.87.99-1.45.21-.57-.39-1.39.94-2.09.89-.47,2.11.07,3.66,1.62"/><path class="cls-2" d="m12,19.5c4.14,0,7.5-3.36,7.5-7.5s-3.36-7.5-7.5-7.5-7.5,3.36-7.5,7.5,3.36,7.5,7.5,7.5Z"/><path class="cls-1" d="m5.25,14.62c.99.4,1.7.4,2.13,0,.65-.59.09-2.4,1-2.89.91-.5,2.3,1.71,3.6.98,1.3-.72-.12-2.66.78-3.44.9-.78,2.07.1,2.28-1.21.2-1.31-.96-.74-1.18-1.98-.15-.83-.15-1.26,0-1.3"/><path class="cls-1" d="m13.88,19.26c-.7-.72-.96-1.39-.76-2.01.3-.93.78-.87.99-1.45.21-.57-.39-1.39.94-2.09.89-.47,2.11.07,3.66,1.62"/></svg>