<svg width="19" height="18" viewBox="0 0 19 18" fill="none" xmlns="http://www.w3.org/2000/svg">
<path d="M9.5 16.5C13.6421 16.5 17 13.1421 17 8.99998C17 4.85785 13.6421 1.5 9.5 1.5C5.35786 1.5 2 4.85785 2 8.99998C2 13.1421 5.35786 16.5 9.5 16.5Z" stroke="white" stroke-width="1.5"/>
<path d="M2.75 11.6193C3.73697 12.0151 4.44747 12.0151 4.88146 11.6193C5.53246 11.0257 4.97071 9.2239 5.88245 8.72699C6.79415 8.23007 8.18323 10.4327 9.48155 9.70799C10.7798 8.98319 9.35923 7.05059 10.2602 6.2671C11.1612 5.48361 12.3328 6.36722 12.5375 5.05716C12.7423 3.74711 11.582 4.3153 11.3594 3.07732C11.2109 2.25202 11.2109 1.81804 11.3594 1.77539" stroke="white" stroke-width="1.5" stroke-linecap="square"/>
<path d="M11.3822 16.2562C10.6794 15.537 10.4264 14.8684 10.6232 14.2505C10.9184 13.3237 11.4053 13.3784 11.6176 12.8054C11.8299 12.2323 11.2302 11.416 12.5609 10.7183C13.4481 10.2531 14.668 10.7921 16.2204 12.3352" stroke="white" stroke-width="1.5" stroke-linecap="square"/>
</svg>
