<svg width="100" height="69" viewBox="0 0 100 69" fill="none" xmlns="http://www.w3.org/2000/svg">
<path d="M96.5571 13.2474C96.4364 12.9123 96.2298 12.4362 95.6291 12.6998C95.548 12.2363 95.5007 11.7661 94.8779 11.7632C94.7997 11.7632 94.1816 9.79034 93.9344 9.01975C93.7336 8.39498 92.8944 8.15067 92.402 8.55238C92.2407 8.68371 92.0678 8.80152 91.9597 8.8807L91.4431 8.46837C91.3243 8.63543 91.1727 8.78896 91.0954 8.97437C90.938 9.35194 90.7681 9.73723 90.6976 10.1331C90.574 10.8284 90.546 11.5391 90.4349 12.2373C90.3432 12.809 90.0274 13.9948 90.0042 13.9996C89.5349 14.1068 89.1352 14.2709 89.1245 14.8687C89.1245 14.943 88.8986 15.0435 88.7634 15.0782C87.2579 15.4712 85.7438 15.8372 84.2442 16.2524C83.9004 16.349 83.5132 16.5421 83.3017 16.8067C82.758 17.4991 82.3013 18.2552 81.7885 19.0277L82.1333 19.1677L82.28 20.0841C82.0927 20.2483 81.8783 20.3738 81.747 20.5612C81.3685 21.1 80.7398 21.1995 80.2386 21.1512C79.3107 21.0614 78.5179 21.2593 77.6575 21.776L78.2195 22.7686C77.5339 23.8946 76.4688 24.7057 75.2772 25.3817C74.9817 25.5497 74.6698 25.7303 74.4467 25.9785C73.8432 26.6544 73.0784 26.8949 72.2257 26.8176C71.8394 26.7828 71.4812 26.5279 71.1046 26.3686C71.1886 26.1812 71.2717 26.0142 71.3383 25.8394C71.5111 25.3904 71.6724 24.9365 71.8511 24.4875C71.8752 24.4257 71.9795 24.3388 72.0268 24.3504C72.4932 24.4624 72.4285 24.051 72.4005 23.8801C72.2966 23.3014 72.1573 22.7296 71.9833 22.168C71.8843 21.7896 71.7336 21.4266 71.5353 21.0894C71.4513 20.9581 71.1268 20.8962 70.9356 20.9358C70.4972 21.0179 70.3813 21.437 70.194 21.7788C70.1166 21.8971 69.9972 21.9816 69.8599 22.0154C69.7981 22.0299 69.6243 21.8744 69.6291 21.804C69.6558 21.6517 69.7119 21.5061 69.7942 21.3752C69.9951 20.9725 70.3147 20.5892 70.3736 20.1672C70.4315 19.7703 70.0723 19.2981 70.1583 18.9225C70.3215 18.2089 69.9004 18.0737 69.4282 17.9047C68.956 17.7357 68.4742 17.5918 68.0145 17.3958C67.8678 17.333 67.778 17.1389 67.581 16.913C68.087 16.913 68.4124 16.9352 68.732 16.8994C68.8286 16.8888 68.9927 16.6561 68.9744 16.631C68.7427 16.2942 68.4909 15.9717 68.2202 15.6653C68.1632 15.6016 67.3212 15.647 67.0103 15.6653C67.0421 15.3921 67.0634 15.2134 67.0943 14.9594C66.6848 15.0898 64.9863 15.5775 64.5092 15.8285C64.1703 16.0091 63.4905 16.0786 63.2838 15.873C62.801 15.3901 62.3404 15.0338 61.5998 15.1429C61.594 15.0937 62.2921 14.3337 62.662 13.9919C62.1048 13.7273 61.5882 13.8731 61.1903 14.2932C60.6582 14.8552 60.2054 15.5485 59.3054 15.5881C59.2227 15.608 59.1496 15.6562 59.0987 15.7242C58.7231 16.1433 58.2914 16.2911 57.8028 16.0265C57.7729 15.8237 57.7458 15.6402 57.7188 15.4471C57.5257 15.4954 56.4567 15.9058 56.1062 16.0419C56.0096 16.0815 56.984 14.8658 57.5199 14.241C58.0703 13.5989 59.1171 13.7109 59.5893 12.8582C58.7868 12.7375 57.3325 12.4266 57.3354 12.3812L56.4606 12.9171C55.9961 12.6371 55.7161 12.0596 55.0816 12.3648C55.0652 12.3734 53.8514 11.4957 53.0615 11.9109C52.8104 11.8211 52.6173 11.7178 52.4126 11.684C51.5812 11.5623 51.502 11.5063 51.3735 10.6884C51.3011 10.2229 51.0839 9.97478 50.5663 10.0462C50.547 10.3012 50.5218 10.8651 50.3857 10.8612C46.9808 10.7647 43.2466 10.699 39.8456 10.5291C34.438 10.2587 29.0806 9.56341 23.7531 8.63639C18.6959 7.76662 13.6925 6.60885 8.76725 5.16875C8.60792 5.12144 8.13186 4.87423 8.16372 5.08184C8.17724 5.16392 8.11255 6.54866 8.20042 6.71186C8.46501 7.20144 8.44569 7.59543 8.00729 7.9981C7.97156 7.85712 7.91072 7.74027 7.91845 7.62922C7.94742 7.22075 7.73305 6.94265 7.38445 6.8567C6.50378 6.64523 5.05628 5.60136 4.95585 5.60136C4.90467 5.86498 4.80327 6.14599 4.80327 6.42699C4.80327 7.04694 4.91723 7.67171 4.87474 8.28683C4.81776 9.12211 4.90853 9.97381 4.60145 10.7907C4.11863 12.0683 3.69664 13.3661 3.21285 14.6418C2.95149 15.3327 2.64869 16.0073 2.30611 16.6619C1.96234 17.3185 1.26804 17.811 1.40806 18.6897C1.41868 18.7515 1.27963 20.1083 1.22652 20.7176C1.19562 21.0662 1.20334 21.4457 1.06525 21.7528C0.844119 22.2443 0.525455 22.6924 0.231899 23.1481C-0.0153071 23.5344 -0.104144 23.8859 0.162375 24.3233C0.329338 24.5835 0.431389 24.88 0.459955 25.1879C0.488521 25.4957 0.442763 25.8059 0.32653 26.0924C0.169673 26.568 0.144975 27.0774 0.255073 27.566C0.409577 28.2574 1.07877 28.8049 0.850882 29.6238C0.850473 29.6578 0.858343 29.6914 0.87382 29.7217C0.889298 29.7519 0.911924 29.778 0.939725 29.7976C1.65527 30.2234 1.36171 30.9042 1.32598 31.4865C1.29605 32.0282 1.42254 32.4521 1.89957 32.6656C2.27328 32.8384 2.21148 33.1059 1.95172 33.2247C1.45345 33.4516 1.61761 33.9006 1.69582 34.1478C1.91889 34.8537 2.27521 35.519 2.57843 36.1969C2.7456 36.6057 2.8856 37.0251 2.99751 37.4523C3.02165 37.7893 2.87681 38.1456 2.86425 38.5068C2.85363 38.8051 2.95116 39.0861 3.37991 39.1702C4.03751 39.3053 4.76176 39.4289 5.12774 40.102C5.37011 40.5481 5.70132 40.8137 6.18415 40.9093C6.47384 40.9663 6.64863 41.7677 6.69305 41.7581C7.10345 41.6702 7.22221 42.014 7.39893 42.2284C7.86727 42.7971 8.35493 43.3456 8.12221 44.2099C7.99088 44.7004 8.32209 45.0162 8.84837 45.0712C9.17379 45.106 11.7617 45.4053 12.8075 45.528C12.5091 45.9857 12.8133 46.1074 13.0924 46.2667C14.9368 47.3395 16.7676 48.4365 18.6255 49.4871C19.1308 49.7683 19.673 49.9773 20.2362 50.108C20.9537 50.278 21.6973 50.3388 22.4302 50.4422C23.362 50.5725 24.2949 50.699 25.2537 50.8284C25.3146 50.4557 25.3658 50.1399 25.4198 49.8077C26.4598 49.9265 27.4477 50.0298 28.4423 50.1612C28.6004 50.2032 28.74 50.2966 28.8392 50.4267C29.4418 51.1365 29.941 51.9717 30.6498 52.5434C31.3586 53.1151 31.6579 53.7601 31.7893 54.6128C31.8578 55.0505 32.0661 55.4543 32.3831 55.7638C33.0002 56.3094 33.7138 56.7488 34.4052 57.2065C34.6302 57.3562 34.8272 57.3311 35.0599 57.0684C35.322 56.7721 35.5267 56.4296 35.6634 56.0584C35.7668 55.7889 36.5142 55.3689 36.7363 55.4104C37.2191 55.4992 38.403 55.7638 38.4744 55.8469C38.7236 56.1231 38.9572 56.4099 39.1909 56.7034C39.3783 56.9429 39.6091 57.1737 39.7114 57.4489C40.1875 58.7313 40.7234 59.9673 41.8281 60.8567C41.9385 61.0017 42.0222 61.1651 42.0753 61.3395C42.0869 61.9507 42.0927 62.2192 42.4172 62.7764C42.6788 63.2244 42.7551 63.6561 43.3538 63.8907C44.0481 64.1611 44.6787 64.5783 45.457 64.6236C45.6501 64.6343 45.8886 64.7077 46.0065 64.8409C46.2768 65.147 46.5163 64.9375 46.723 64.8226C46.835 64.7617 46.9161 64.5232 46.9016 64.3726C46.8784 64.0317 46.582 63.7526 46.4825 63.4262C46.0383 61.972 46.8263 60.4327 48.1521 59.6274C48.4718 59.4343 48.7373 59.2489 48.5094 58.7796C49.3708 58.8491 50.066 58.5227 50.6435 58.0485C51.1263 57.6507 51.8622 57.2838 51.5039 56.3954C51.4798 56.3365 51.6005 56.2196 51.6005 56.2196C51.8322 56.3452 52.0167 56.5354 52.1692 56.5093C52.7119 56.4272 53.2681 56.3355 53.7732 56.1317C54.0704 56.0015 54.391 55.933 54.7155 55.9303C55.04 55.9277 55.3617 55.9909 55.661 56.1163C55.9913 56.2467 56.3582 56.2862 56.7116 56.3558C57.1249 56.4359 57.4108 56.3181 57.3982 55.6393C58.0153 56.0709 58.557 56.3732 59.0012 56.7807C59.4029 57.1476 59.9803 57.2422 60.3772 56.9091C60.4738 56.826 60.7094 56.8521 60.8601 56.9014C60.9643 56.9371 60.9779 57.2297 61.2096 57.2249C61.4414 57.22 61.4993 56.6619 61.6306 56.3442C62.1965 56.6696 62.6175 57.1631 63.1757 57.2963C63.3891 56.5084 63.5465 56.5074 62.9343 56.2843C62.7189 56.2051 62.5355 56.039 62.3385 55.9135C62.4814 55.7426 62.6282 55.5717 62.7672 55.3998C62.7884 55.3737 62.6948 55.1101 62.5615 54.917C62.4244 55.0464 62.2187 54.9759 62.0246 55.1593C62.4852 54.2671 63.1477 54.0421 65.1949 53.9841C65.2074 53.8934 65.2528 53.4868 65.274 53.2551C65.3706 53.4308 65.7839 54.2207 66.3642 54.0633C66.7959 53.9503 67.2333 53.8422 67.6553 53.707C68.7175 53.3671 70.5397 54.0469 70.954 54.9759C71.1954 54.9199 71.4677 54.9083 71.6879 54.7953C72.1012 54.5828 72.612 54.3955 72.8466 54.0421C73.0813 53.6887 73.2754 53.6838 73.4917 53.8181C73.9399 54.1159 74.3691 54.4413 74.777 54.7924C75.0831 55.0396 75.3332 55.4683 75.6702 55.5417C76.4176 55.7165 76.4794 56.2457 76.5055 56.8096C76.5248 57.2191 76.4089 57.6333 76.4215 58.0447C76.4273 58.3344 76.5364 58.6241 76.6204 59.0181L77.0974 58.6222C77.1177 58.6405 76.9651 59.0239 76.8801 59.1745C76.9767 59.3869 77.0433 59.6071 77.1698 59.778C77.4228 60.115 77.7096 60.4269 77.9897 60.7437C78.1094 60.8779 79.3985 62.6267 79.5685 62.6296C80.3719 62.645 80.567 63.1858 80.7553 63.7951C80.8422 64.0742 80.9706 64.3484 81.3839 64.163C81.6688 64.0346 81.9875 63.9796 82.4065 63.8589L81.8272 64.6961C82.4065 64.4141 82.7715 63.7488 82.7291 63.2524C82.7059 62.9878 82.7619 62.7165 82.787 62.448C82.8768 61.5056 83.0072 60.5399 82.5939 59.6564C82.2269 58.8838 81.7248 58.1712 81.299 57.4267C81.2024 57.2538 81.0701 57.0481 81.0855 56.8695C81.1338 56.3239 80.8161 55.9927 80.5197 55.6055C80.0494 54.9923 79.6351 54.3347 79.218 53.6829C78.682 52.8456 78.2996 51.9515 78.3885 50.9279C78.4203 50.5551 78.5401 50.1901 78.5816 49.8174C78.7245 48.6094 79.4623 47.7441 80.2367 46.9011C80.7563 46.3353 81.8629 45.6777 81.8957 44.9341C81.9401 43.9134 82.4413 43.4161 83.4021 43.1525C83.5856 43.1023 84.2335 42.0661 84.4247 41.7465C84.782 41.1468 85.3653 40.9045 85.992 40.6775C86.2179 40.5954 86.3396 40.2256 86.5086 39.9871L85.9437 39.7524V39.1518C86.5038 39.1335 87.2174 38.5724 87.2164 38.1002C87.2164 37.4407 86.7703 37.3113 86.2035 37.3065C86.5222 37.2817 86.8421 37.2772 87.1614 37.2929C87.1614 37.2929 86.3744 35.7353 86.2054 35.4582C86.1239 35.3368 85.9999 35.2504 85.8578 35.2158C85.4928 35.1376 85.3122 34.8489 85.3749 34.4568C85.3962 34.3265 84.615 31.8766 84.6323 31.8689L85.9012 33.075C85.5208 34.1227 85.5845 34.7562 86.0364 34.8585C86.1864 34.3699 86.3361 33.8836 86.4854 33.3994C86.6631 32.8268 86.8591 32.26 87.0146 31.6825C87.1286 31.2605 86.9798 30.883 86.6882 30.574C86.47 30.3422 86.2228 30.1375 85.9534 29.8864C86.5714 29.6469 87.0996 30.2843 87.1305 30.2176C87.4202 29.5909 87.7581 28.9749 87.9658 28.3192C88.0778 27.9638 87.9397 27.5351 87.9658 27.1421C87.987 26.7201 87.8779 26.4062 87.4665 26.3145C88.2178 25.9688 88.9893 25.681 89.6875 25.2677C90.179 24.978 90.5701 24.5165 91.0066 24.1321C90.91 24.024 90.8135 23.9158 90.7169 23.8086C91.2712 23.6001 91.5985 22.9396 92.1393 22.9994L92.4956 22.4567L92.5864 22.5958C92.7795 22.5485 93.4844 22.3129 93.6013 22.1999C93.7539 22.0512 94.0059 21.8011 93.9634 21.6958C93.8278 21.4016 93.6329 21.1386 93.3908 20.9233C93.3348 20.8692 92.7332 20.846 92.8471 21.0797C92.9611 21.3134 93.272 21.4109 93.44 21.5432C93.215 21.858 93.0296 21.9073 92.7747 21.6031C92.5062 21.2825 92.1953 20.9967 91.9114 20.7031L92.3411 19.9432C91.6903 19.8611 91.7617 19.4748 91.8477 19.0866C91.9867 18.4976 92.1267 17.9076 92.2899 17.3253C92.3141 17.2403 93.0103 16.939 93.1938 16.7961C93.4284 16.603 93.807 16.3471 93.7915 16.1424C93.7471 15.5359 93.9991 15.4104 94.5167 15.5031C94.592 15.1535 94.649 14.8059 95.1347 14.9527C95.1917 14.9691 95.9642 14.3038 96.2037 14.0112C96.3814 13.7968 96.6276 13.4405 96.5571 13.2474Z" fill="url(#paint0_linear_880_47763)"/>
<path d="M46.8374 56.3856L46.8374 56.3856C47.4375 57.1268 48.5625 57.1268 49.1626 56.3856L49.1626 56.3856C50.0808 55.2512 51.6541 53.2038 53.0003 50.9337C54.3326 48.687 55.5 46.1297 55.5 44C55.5 39.8579 52.1421 36.5 48 36.5C43.8579 36.5 40.5 39.8579 40.5 44C40.5 46.1297 41.6674 48.687 42.9997 50.9337C44.3459 53.2038 45.9192 55.2512 46.8374 56.3856ZM48 46C46.8951 46 46 45.1049 46 44C46 42.8951 46.8951 42 48 42C49.1049 42 50 42.8951 50 44C50 45.1049 49.1049 46 48 46Z" fill="url(#paint1_linear_880_47763)" stroke="white"/>
<path d="M77.8374 42.3856L77.8374 42.3856C78.4375 43.1268 79.5625 43.1268 80.1626 42.3856L80.1626 42.3856C81.0808 41.2512 82.6541 39.2038 84.0003 36.9337C85.3326 34.687 86.5 32.1297 86.5 30C86.5 25.8579 83.1421 22.5 79 22.5C74.8579 22.5 71.5 25.8579 71.5 30C71.5 32.1297 72.6674 34.687 73.9997 36.9337C75.3459 39.2038 76.9192 41.2512 77.8374 42.3856ZM79 32C77.8951 32 77 31.1049 77 30C77 28.8951 77.8951 28 79 28C80.1049 28 81 28.8951 81 30C81 31.1049 80.1049 32 79 32Z" fill="url(#paint2_linear_880_47763)" stroke="white"/>
<defs>
<linearGradient id="paint0_linear_880_47763" x1="-0.10713" y1="35.1331" x2="96.4267" y2="35.1331" gradientUnits="userSpaceOnUse">
<stop stop-color="#94CF0A"/>
<stop offset="1" stop-color="#0072C6"/>
</linearGradient>
<linearGradient id="paint1_linear_880_47763" x1="54.9896" y1="46.7639" x2="41.1956" y2="45.0995" gradientUnits="userSpaceOnUse">
<stop stop-color="#EA002C"/>
<stop offset="1" stop-color="#F47725"/>
</linearGradient>
<linearGradient id="paint2_linear_880_47763" x1="85.9896" y1="32.7639" x2="72.1956" y2="31.0995" gradientUnits="userSpaceOnUse">
<stop stop-color="#EA002C"/>
<stop offset="1" stop-color="#F47725"/>
</linearGradient>
</defs>
</svg>
