<?xml version="1.0" encoding="UTF-8"?>
<svg xmlns="http://www.w3.org/2000/svg" version="1.1" viewBox="0 0 97 48">
  <!-- Generator: Adobe Illustrator 28.6.0, SVG Export Plug-In . SVG Version: 1.2.0 Build 709)  -->
  <g>
    <g id="Layer_1">
      <g>
        <path d="M31,25.7c-.2-3.8-.4-8.5-.4-11.9h-.1c-.9,3.2-2.1,6.7-3.5,10.5l-4.9,13.4h-2.7l-4.5-13.1c-1.3-3.9-2.4-7.4-3.2-10.7h0c0,3.4-.3,8.1-.5,12.2l-.7,11.8h-3.4l1.9-27.6h4.5l4.7,13.3c1.1,3.4,2.1,6.4,2.8,9.3h.1c.7-2.8,1.7-5.8,2.9-9.3l4.9-13.3h4.5l1.7,27.6h-3.5l-.7-12.1Z" fill="#ff6517"/>
        <path d="M44.3,10.2v27.6h-3.6V10.2h3.6Z" fill="#ff6517"/>
        <path d="M50.5,10.2h3.6v24.6h11.8v3h-15.3V10.2Z" fill="#ff6517"/>
        <path d="M69.8,10.2h3.6v13.3h.1c.7-1.1,1.5-2,2.2-2.9l8.4-10.3h4.4l-10,11.7,10.8,15.9h-4.2l-9.1-13.5-2.6,3v10.5h-3.6V10.2Z" fill="#ff6517"/>
      </g>
    </g>
  </g>
</svg>