<svg width="80" height="69" viewBox="0 0 80 69" fill="none" xmlns="http://www.w3.org/2000/svg">
<g clip-path="url(#clip0_880_47779)">
<path fill-rule="evenodd" clip-rule="evenodd" d="M21.9912 22.4705C21.8914 22.5006 21.8047 22.5739 21.5651 22.747L22.0183 22.3204C21.9164 22.376 21.8434 22.4542 21.7703 22.5326C21.6332 22.6795 21.4956 22.8269 21.1653 22.8269V22.3204C21.2705 22.2856 21.3614 22.2171 21.424 22.1256C21.4866 22.0342 21.5174 21.9246 21.5118 21.8139C21.5118 21.5373 21.323 21.3127 21.132 21.0855C20.9365 20.853 20.7387 20.6177 20.7387 20.3211C20.7387 19.0856 19.6343 18.3254 18.691 17.6761C18.3317 17.4287 17.9957 17.1975 17.7531 16.9622C17.3915 16.6116 17.2146 16.117 17.0391 15.6263C16.7875 14.923 16.5388 14.2278 15.7537 13.9766C15.5541 13.9766 15.3823 14.0013 15.2141 14.0254C14.8881 14.0723 14.5757 14.1172 14.101 13.9766C14.1421 13.8449 14.2145 13.7253 14.312 13.6278C14.4095 13.5303 14.5291 13.4579 14.6608 13.4167C14.6608 12.755 15.0955 12.219 15.5564 11.6508C16.1352 10.9371 16.7552 10.1728 16.6068 9.04486H12.3949C12.2624 8.88783 12.1872 8.69042 12.1816 8.48503C12.2851 8.00618 12.7091 7.79122 13.118 7.58392C13.5513 7.36423 13.9677 7.15314 13.9677 6.64566C13.9045 6.49113 13.8068 6.35311 13.682 6.24221C13.5573 6.13131 13.4088 6.05046 13.2479 6.00586H11.1686C10.7421 6.00586 10.0223 6.53903 10.0223 6.91223C10.0223 7.07784 9.96983 7.22245 9.91143 7.38334C9.83822 7.58501 9.75573 7.81226 9.75573 8.13849C9.63243 8.12371 9.5074 8.13443 9.38842 8.16997C9.26944 8.20552 9.15905 8.26514 9.06407 8.34513C8.96908 8.42511 8.89155 8.52377 8.83628 8.63497C8.781 8.74616 8.74914 8.86753 8.74272 8.99154C8.74272 9.05818 8.83602 9.13149 8.92933 9.20481C9.02263 9.27812 9.11593 9.35143 9.11593 9.41807C9.11593 9.55136 8.82269 9.84459 8.82269 9.84459C8.67699 9.81359 8.54667 9.73272 8.4542 9.61592C8.36174 9.49913 8.31297 9.35373 8.31623 9.20481H7.16992C7.16992 10.1378 7.75638 10.3511 8.82269 10.5644V11.1242C8.82269 11.1516 8.76308 11.2355 8.68476 11.3458C8.53479 11.5569 8.31623 11.8646 8.31623 12.0572C8.31623 12.3504 8.956 12.617 9.38252 12.617V13.3634C9.29663 13.416 9.2265 13.4909 9.17959 13.58C9.13267 13.6692 9.11068 13.7693 9.11593 13.8699V15.0162H9.67576C9.65475 14.97 9.63109 14.9258 9.6076 14.8818C9.48207 14.6471 9.36138 14.4215 9.67576 13.9499C10.0441 14.1776 10.4689 14.2977 10.902 14.2964C10.7479 14.6731 10.7918 14.8958 10.8428 15.1553C10.8713 15.2998 10.902 15.4557 10.902 15.656C10.902 15.9326 10.7262 16.1572 10.5484 16.3844C10.3664 16.6169 10.1823 16.8522 10.1823 17.1488C10.1823 17.7353 10.7687 17.7353 11.3285 17.7353C11.5935 17.7353 11.8167 17.6517 12.0517 17.5636C12.3133 17.4656 12.5896 17.3621 12.9547 17.3621C13.0257 17.3621 13.1353 17.3295 13.2449 17.2969C13.4641 17.2318 13.6833 17.1666 13.5945 17.3621C13.5511 17.4575 13.4852 17.5106 13.4159 17.5663C13.2724 17.6819 13.1146 17.8089 13.1146 18.3484C13.1146 19.1481 14.1009 19.1481 14.8207 19.1481H14.8207V20.2145C14.4142 20.6619 13.915 21.0153 13.3579 21.2501C12.8008 21.4849 12.1993 21.5955 11.5951 21.574C11.5951 21.9452 11.7214 22.19 11.8568 22.4524C12.0132 22.7554 12.1816 23.0819 12.1816 23.6533C12.1816 24.1832 11.6879 24.4629 11.1912 24.7444C10.6883 25.0293 10.1823 25.3161 10.1823 25.8659C10.2007 25.9508 10.2432 26.0286 10.3047 26.0901C10.3661 26.1515 10.4439 26.194 10.5288 26.2125C10.6818 26.2125 10.7004 26.1542 10.7223 26.0855C10.7539 25.9866 10.7924 25.8659 11.2486 25.8659C11.6169 25.8659 11.8764 26.0596 12.148 26.2624C12.4464 26.4852 12.7595 26.719 13.2479 26.719C13.5032 26.7099 13.7525 26.6398 13.9751 26.5146C14.1978 26.3893 14.3871 26.2126 14.5275 25.9992C14.5275 26.1325 14.6608 26.5057 14.6608 26.5057C14.6608 27.1445 13.9985 27.2085 13.2642 27.2794C12.9261 27.3121 12.5726 27.3462 12.2616 27.4387C11.339 28.2411 10.4995 29.1341 9.75573 30.1045V30.531H10.1289C10.1646 30.4953 10.1992 30.4596 10.2332 30.4244C10.4785 30.1707 10.6971 29.9446 11.1419 29.9446H12.1549C12.1478 29.7918 12.1713 29.6392 12.224 29.4957C12.2767 29.3521 12.3577 29.2206 12.462 29.1088C12.5663 28.9971 12.6919 28.9073 12.8315 28.8448C12.971 28.7823 13.1217 28.7484 13.2746 28.745C13.5312 28.745 13.7332 28.8545 13.9323 28.9625C14.1262 29.0677 14.3175 29.1715 14.5541 29.1715C15.1395 29.1715 15.99 28.9787 16.7572 28.8047C17.3875 28.6618 17.9616 28.5317 18.2862 28.5317H21.1386C21.5297 28.5117 21.9117 28.4058 22.2572 28.2215C22.6028 28.0372 22.9035 27.7791 23.1379 27.4654V26.9589C22.6456 26.9378 22.1597 26.8388 21.6984 26.6656C21.917 26.3179 22.2911 26.0109 22.6745 25.6963C23.3196 25.1668 23.991 24.6159 23.991 23.8133C23.9703 23.4361 23.8022 23.0822 23.5229 22.8279C23.2436 22.5735 22.8756 22.4392 22.4981 22.4537C22.2045 22.4537 22.0913 22.4404 21.9912 22.4705ZM78.5336 43.7798C78.362 44.5351 78.3119 44.5609 78.2411 44.5973C78.2019 44.6175 78.1564 44.6409 78.0805 44.7928V46.6588C77.3874 47.3786 76.0811 48.7915 76.0811 49.8045C76.0811 50.5058 77.0013 51.3989 77.7178 52.0944C78.0361 52.4033 78.3143 52.6733 78.4537 52.8701C78.2463 53.0774 78.039 53.0982 77.8128 53.1208C77.7191 53.1302 77.6221 53.1399 77.5206 53.1633C77.3915 53.1931 77.1995 53.2007 76.9763 53.2096C76.6004 53.2244 76.136 53.2428 75.7346 53.3766C75.477 53.4625 75.2411 53.6952 74.9902 53.9426C74.6179 54.3098 74.2127 54.7095 73.6553 54.7095C73.2255 54.7095 72.8297 54.4098 72.4027 54.0864C71.9026 53.7077 71.3598 53.2966 70.6696 53.2966C69.8807 53.2966 69.5174 53.5398 69.1361 53.7951C68.8989 53.9538 68.6548 54.1172 68.2971 54.2297C68.4498 54.7337 68.4498 55.2717 68.2971 55.7758C67.6962 55.7758 67.3916 55.4372 67.1257 55.1416C66.9197 54.9127 66.7369 54.7095 66.4577 54.7095C66.2583 54.7379 66.074 54.832 65.934 54.9768C65.794 55.1216 65.7063 55.309 65.6846 55.5092L67.0175 57.082C67.0175 57.3319 66.926 57.5086 66.8502 57.6549C66.7966 57.7584 66.7509 57.8467 66.7509 57.9351C67.402 58.7936 68.2531 59.48 69.2301 59.9344C69.2546 60.1742 69.3577 60.3991 69.5233 60.5742C69.3847 60.6595 69.1864 60.6766 68.988 60.6936C68.6905 60.7192 68.393 60.7448 68.2971 61.0007H68.1638C67.4625 60.8256 66.8249 60.4559 66.3244 59.9344V60.6009C66.5791 60.9613 66.7269 61.3864 66.7509 61.8271C66.7509 61.9583 66.6828 62.1299 66.6094 62.3147L66.6094 62.3148C66.4443 62.7306 66.2526 63.2133 66.7509 63.4532H65.7379C65.1534 63.3999 64.6101 63.1294 64.2153 62.6951C63.8205 62.2608 63.6028 61.6943 63.6053 61.1074C63.6053 60.7936 63.8815 60.5924 64.1424 60.4023C64.3026 60.2855 64.4572 60.1729 64.5383 60.041H63.312C63.0188 60.041 62.8855 59.4013 62.8855 59.2413C62.5916 58.3699 62.0774 57.5893 61.3927 56.9754C61.2296 56.8173 61.0583 56.6665 60.8875 56.5161L60.8874 56.516C60.1363 55.8549 59.3933 55.2009 59.3933 53.9631V52.1237C59.3933 51.1107 57.8205 49.6179 56.7276 49.1114C56.4604 48.9876 56.1965 48.8909 55.9502 48.8006C55.1885 48.5215 54.595 48.304 54.595 47.5385H53.6086C52.0358 47.5385 50.2497 45.1127 50.2497 43.4866H48.1171C47.5471 43.4866 47.4845 42.9295 47.4249 42.3987C47.3868 42.0606 47.35 41.7332 47.1841 41.5672C46.8966 41.7397 46.5094 41.8501 46.1311 41.958C45.457 42.1503 44.8115 42.3345 44.8115 42.8468C44.8115 42.8468 45.0248 43.2733 45.1847 43.2733C45.0116 43.679 44.9123 44.1123 44.8915 44.5529C44.8915 45.6192 45.5313 46.0457 46.3844 46.339C46.8365 46.5515 47.2373 46.8592 47.5594 47.2411C47.8815 47.623 48.1172 48.07 48.2504 48.5516C48.5436 49.5379 49.0235 50.6842 49.6099 50.9774C50.3451 51.3266 50.9156 51.2577 51.5484 51.1811C51.8335 51.1467 52.1312 51.1107 52.4623 51.1107C52.4882 51.3158 52.441 51.5234 52.329 51.6972C52.0963 52.3742 53.123 52.7322 53.7699 52.9577C53.938 53.0164 54.0804 53.066 54.1684 53.11C54.3723 53.212 54.5815 53.3107 54.7898 53.409C56.0526 54.0049 57.2838 54.5859 57.1008 55.7758C56.7826 55.7758 56.5217 55.5674 56.2306 55.3349C55.8632 55.0414 55.4477 54.7095 54.8082 54.7095C53.6619 54.7095 53.2354 55.1627 53.2354 55.8558C53.2354 56.1766 53.5096 56.4461 53.8041 56.7355C54.1458 57.0713 54.515 57.434 54.515 57.9351C54.515 58.2816 53.6086 58.2816 53.6086 58.2816C53.3578 58.5324 53.2258 58.9183 53.097 59.2949C52.8972 59.8792 52.7051 60.4409 52.0891 60.4409C51.6093 60.4409 51.316 60.2277 51.316 59.9344C52.1691 59.9344 52.5156 58.8681 52.5156 57.9884C52.5156 57.4494 52.3055 57.0705 52.1059 56.7107C51.9797 56.4833 51.8578 56.2635 51.7959 56.0157C51.0022 55.4441 50.3313 54.7189 49.8232 53.8831C49.53 53.8831 48.4637 53.5632 48.4637 53.1633C46.9066 52.8906 45.5084 52.044 44.545 50.7908C44.3291 50.5749 44.0114 50.4026 43.7056 50.2367C43.2941 50.0134 42.904 49.8018 42.8122 49.5112C42.4496 49.0428 42.1554 48.4738 41.8582 47.8988C41.1067 46.4448 40.3355 44.9527 38.387 44.9527C37.5613 44.9527 37.2351 45.3302 36.9356 45.6768L36.9356 45.6768C36.7711 45.8673 36.6146 46.0484 36.3877 46.1524C35.9017 46.3811 35.4735 46.695 35.0522 47.0039C34.2949 47.5591 33.5595 48.0984 32.549 48.0984C31.73 48.0984 31.0412 47.8815 30.3809 47.6737L30.3808 47.6737C29.7729 47.4824 29.1892 47.2986 28.5503 47.2986C28.0236 47.2597 27.5019 47.4226 27.091 47.7543C26.6801 48.086 26.4107 48.5617 26.3377 49.0847L26.7642 50.6575C26.3377 52.0704 24.7649 52.5769 23.2721 52.9501C22.3819 53.4322 21.6154 54.1139 21.0326 54.9418C20.4499 55.7696 20.0667 56.7211 19.9132 57.7218C19.9123 57.9352 19.9826 58.1428 20.113 58.3118C20.2433 58.4808 20.4263 58.6015 20.6329 58.6548C20.5211 58.8242 20.4165 58.986 20.3164 59.1407C19.5823 60.276 19.0944 61.0305 17.7805 61.6405C17.4508 61.8004 17.2259 62.1514 16.9991 62.5052C16.6211 63.0952 16.2379 63.6932 15.3547 63.4266C14.6218 63.3099 13.875 63.3099 13.1421 63.4266C12.2511 63.4266 11.5715 63.8072 10.9113 64.1771C10.2876 64.5264 9.68124 64.8661 8.93018 64.8661C8.43999 64.8661 8.15892 64.3299 7.8489 63.7385C7.46766 63.0112 7.04263 62.2003 6.1311 62.2003C5.51364 62.2003 5.00213 62.3274 4.50567 62.4508C4.03761 62.5672 3.58293 62.6802 3.06547 62.6802C2.99095 62.684 2.91645 62.6721 2.84679 62.6454C2.77714 62.6186 2.71387 62.5775 2.66111 62.5247C2.60834 62.472 2.56724 62.4087 2.54046 62.339C2.51368 62.2694 2.50181 62.1949 2.50564 62.1204V59.5079C2.22003 59.5226 1.94005 59.4247 1.72575 59.2354C1.51145 59.046 1.37992 58.7801 1.35938 58.4949C1.35938 57.9577 1.61566 57.6679 1.8331 57.4221C1.99331 57.2409 2.13243 57.0836 2.13243 56.8688C2.13243 55.9823 2.29004 55.0761 2.4488 54.1633C2.60992 53.2369 2.77223 52.3037 2.77223 51.3773C2.77223 50.7464 2.51467 50.1511 2.29688 49.6477C2.13734 49.2789 1.99914 48.9595 1.99914 48.7115C1.99914 48.125 4.42501 46.7921 4.85154 46.7921C5.03753 46.7921 5.18297 46.8732 5.32322 46.9514C5.5046 47.0526 5.6773 47.1489 5.91783 47.0587H9.11676C9.47724 47.3134 9.9023 47.4613 10.343 47.4852H13.7819C14.2834 47.3599 14.6375 47.4833 14.9904 47.6063C15.2378 47.6925 15.4846 47.7785 15.7812 47.7785C16.2473 47.7785 16.7692 47.6332 17.1372 47.5307L17.1372 47.5307C17.3375 47.475 17.4921 47.4319 17.5673 47.4319C17.5673 46.7019 17.8004 46.2324 18.0302 45.7696C18.2535 45.3198 18.4737 44.8764 18.4737 44.2063V42.2337H18.3404C18.5152 41.8945 18.6152 41.5218 18.6336 41.1407C18.6336 40.8138 18.5223 40.6957 18.4134 40.5801C18.3091 40.4695 18.2071 40.3612 18.2071 40.0744C16.7676 40.0744 16.341 38.7948 16.341 37.6485C16.1084 37.6485 15.9868 37.5217 15.8638 37.3934C15.7612 37.2864 15.6577 37.1784 15.488 37.142C15.2817 37.0796 15.0115 37.0104 14.7071 36.9323C13.3201 36.5767 11.2227 36.0389 11.2227 35.1427V34.8761C11.2227 34.3456 12.5973 33.9617 13.4469 33.7245L13.4469 33.7245C13.622 33.6756 13.7747 33.633 13.8885 33.5965C14.1018 34.0231 15.2481 34.2896 15.8079 34.2896C16.3707 34.2404 16.9255 34.124 17.4607 33.9431V33.4366C17.0993 33.4366 17.1043 32.826 17.1078 32.3986V32.3986C17.1092 32.2269 17.1104 32.0848 17.0875 32.0237V31.4372H17.7539C18.0248 31.7327 18.3545 31.9682 18.7217 32.1289C19.0889 32.2896 19.4857 32.3718 19.8865 32.3703C20.1771 32.3442 20.4521 32.2271 20.6723 32.0357C20.8925 31.8442 21.0466 31.5881 21.1128 31.304C23.2454 31.304 23.7786 29.7311 24.2584 28.0251C24.593 28.0175 24.9249 27.9637 25.2447 27.8651C26.4689 27.4307 27.6623 26.9142 28.8169 26.319C29.2538 25.8612 29.2198 25.241 29.1838 24.5852C29.1737 24.4008 29.1634 24.2136 29.1634 24.0264C29.1634 23.7909 29.5759 23.4696 29.7799 23.3106C29.8299 23.2716 29.8674 23.2424 29.8832 23.2267C30.3143 22.6409 30.8607 22.1495 31.4887 21.7827C32.1168 21.416 32.8133 21.1816 33.5353 21.094C33.9707 21.094 34.0985 21.1433 34.1699 21.1708C34.2472 21.2005 34.2584 21.2048 34.5216 21.094C34.6806 21.2531 34.8397 20.9822 34.9656 20.7679C35.0085 20.6947 35.0476 20.6282 35.0815 20.5875C35.1692 20.4822 35.6386 20.5156 36.1315 20.5507C36.3871 20.5689 36.6491 20.5875 36.8675 20.5875C37.5073 20.5875 38.4403 19.9477 38.4403 19.3613C38.3143 18.7573 38.1541 18.161 37.9605 17.5752C37.8217 16.6669 37.4919 16.057 37.1829 15.4858C36.839 14.85 36.521 14.2619 36.521 13.3633C36.521 11.1596 37.9732 10.4662 39.495 9.7397C40.035 9.48189 40.5837 9.2199 41.0795 8.88477V9.73781C40.7749 10.3016 40.6275 10.9369 40.6529 11.5772C40.6529 12.297 41.4527 12.3769 42.0125 12.3769V12.9368C42.0125 13.1628 41.7402 13.3095 41.4917 13.4434C41.3592 13.5147 41.2336 13.5824 41.1594 13.6565C41.071 13.7449 40.9806 13.8321 40.89 13.9195C40.243 14.5435 39.5866 15.1765 39.5866 16.3223C39.5516 16.5916 39.609 16.8648 39.7495 17.0972C39.8899 17.3297 40.105 17.5076 40.3597 17.6019V18.3749C40.7818 18.3749 41.0629 18.4567 41.3282 18.5338C41.5656 18.6028 41.7904 18.6682 42.0925 18.6682L42.1118 18.7224C42.2412 19.0862 42.3959 19.5212 42.599 19.5212C43.541 19.5212 44.3482 19.1295 45.1183 18.7557C45.9171 18.3681 46.676 17.9998 47.504 18.1084C47.504 18.3026 47.37 18.4549 47.2523 18.5889C47.1599 18.6939 47.0775 18.7877 47.0775 18.8814C47.0775 19.0947 48.3037 19.8944 48.3037 19.8944C48.8088 19.8944 49.0181 19.6782 49.1991 19.4911C49.2951 19.3919 49.3832 19.3008 49.5033 19.2546C50.1394 18.9504 50.6966 18.8614 51.2345 18.7755C51.7334 18.6958 52.2157 18.6187 52.7289 18.3749C52.948 18.2837 53.2265 18.0986 53.5334 17.8946C54.1226 17.5031 54.8162 17.0421 55.3947 17.0421C56.2124 17.0001 57.0315 17.0901 57.8205 17.3086C57.6774 17.5563 57.5782 17.8269 57.5273 18.1084C58.534 18.1084 59.5485 17.9997 60.4829 17.8997C61.2804 17.8143 62.0195 17.7351 62.6456 17.7351H66.3244C67.7639 17.7351 68.537 20.4009 68.537 21.9737C68.537 22.4403 68.2837 22.7935 68.0305 23.1467C67.7772 23.4999 67.524 23.8531 67.524 24.3196C67.524 25.0835 67.8799 25.7008 68.2276 26.3036C68.5593 26.879 68.8835 27.4411 68.8835 28.105C68.8835 28.6541 68.3202 28.9713 67.8406 29.2413C67.5751 29.3908 67.3352 29.5259 67.2307 29.6778C66.4075 30.893 66.0049 32.3442 66.0845 33.8098C66.0845 35.4986 67.1115 35.4566 68.4266 35.4028C68.6685 35.3929 68.92 35.3826 69.1767 35.3826C70.3899 35.3826 71.2669 35.1151 72.0817 34.8666C72.7888 34.651 73.4491 34.4496 74.2417 34.4496C75.085 34.4496 75.4594 35.3614 75.838 36.2836C76.2255 37.2271 76.6174 38.1817 77.5206 38.1817V41.0874C77.5206 41.2664 77.6709 41.4078 77.798 41.5275C77.8223 41.5504 77.8458 41.5725 77.8672 41.5939L78.2404 42.0204C78.4291 42.0204 78.7679 41.9177 79.1191 41.8112C79.4131 41.7221 79.7157 41.6303 79.9465 41.5939V42.6602C79.3067 42.7401 78.5336 43.0867 78.5336 43.7798ZM1.49408 19.0412C2.24733 18.9701 2.96658 18.6934 3.57339 18.2415C3.53475 18.1853 3.49889 18.1342 3.46574 18.0869C3.24735 17.7757 3.14689 17.6325 3.14689 17.3085C3.14689 16.9353 4.55976 15.9756 5.27952 15.9756H6.50576C8.13188 15.9756 8.93163 17.6817 8.93163 18.8813C8.93163 19.1745 8.61173 19.3011 8.29184 19.4278C7.97195 19.5544 7.65206 19.681 7.65206 19.9743V22.4001C7.65206 22.5762 7.69952 22.7812 7.74966 22.9979C7.85896 23.4701 7.981 23.9974 7.65206 24.3994C7.09363 24.74 6.42945 24.8633 5.78599 24.746C4.99873 24.746 4.34979 25.3118 3.80462 25.7872C3.55599 26.0039 3.32895 26.2019 3.12021 26.3188C2.69548 26.517 2.2288 26.6085 1.76068 26.5854C1.31686 26.5755 0.891581 26.4054 0.563321 26.1066C0.235061 25.8077 0.0259695 25.4002 -0.0253906 24.9592C-0.0253906 24.0192 0.469329 23.537 0.980777 23.0385C1.44112 22.5899 1.91501 22.128 2.05391 21.3071C1.33415 20.9606 0.694381 20.5341 0.694381 19.8143C0.694381 19.0945 1.28082 19.0412 1.49408 19.0412Z" fill="url(#paint0_linear_880_47779)"/>
</g>
<path d="M39.8374 28.8856L39.8374 28.8856C40.4375 29.6268 41.5625 29.6268 42.1626 28.8856L42.1626 28.8856C43.0808 27.7512 44.6541 25.7038 46.0003 23.4337C47.3326 21.187 48.5 18.6297 48.5 16.5C48.5 12.3579 45.1421 9 41 9C36.8579 9 33.5 12.3579 33.5 16.5C33.5 18.6297 34.6674 21.187 35.9997 23.4337C37.3459 25.7038 38.9192 27.7512 39.8374 28.8856ZM41 18.5C39.8951 18.5 39 17.6049 39 16.5C39 15.3951 39.8951 14.5 41 14.5C42.1049 14.5 43 15.3951 43 16.5C43 17.6049 42.1049 18.5 41 18.5Z" fill="url(#paint1_linear_880_47779)" stroke="white"/>
<path d="M17.8374 25.8856L17.8374 25.8856C18.4375 26.6268 19.5625 26.6268 20.1626 25.8856L20.1626 25.8856C21.0808 24.7512 22.6541 22.7038 24.0003 20.4337C25.3326 18.187 26.5 15.6297 26.5 13.5C26.5 9.35786 23.1421 6 19 6C14.8579 6 11.5 9.35786 11.5 13.5C11.5 15.6297 12.6674 18.187 13.9997 20.4337C15.3459 22.7038 16.9192 24.7512 17.8374 25.8856ZM19 15.5C17.8951 15.5 17 14.6049 17 13.5C17 12.3951 17.8951 11.5 19 11.5C20.1049 11.5 21 12.3951 21 13.5C21 14.6049 20.1049 15.5 19 15.5Z" fill="url(#paint2_linear_880_47779)" stroke="white"/>
<defs>
<linearGradient id="paint0_linear_880_47779" x1="79.8873" y1="35.5666" x2="3.88402" y2="18.2641" gradientUnits="userSpaceOnUse">
<stop stop-color="#EA002C"/>
<stop offset="1" stop-color="#F47725"/>
</linearGradient>
<linearGradient id="paint1_linear_880_47779" x1="47.9896" y1="19.2639" x2="34.1956" y2="17.5995" gradientUnits="userSpaceOnUse">
<stop stop-color="#EA002C"/>
<stop offset="1" stop-color="#F47725"/>
</linearGradient>
<linearGradient id="paint2_linear_880_47779" x1="25.9896" y1="16.2639" x2="12.1956" y2="14.5995" gradientUnits="userSpaceOnUse">
<stop stop-color="#EA002C"/>
<stop offset="1" stop-color="#F47725"/>
</linearGradient>
<clipPath id="clip0_880_47779">
<rect width="80" height="59.0203" fill="white" transform="translate(0 6.05957)"/>
</clipPath>
</defs>
</svg>
