<?xml version="1.0" encoding="UTF-8"?><svg id="Layer_1" xmlns="http://www.w3.org/2000/svg" viewBox="0 0 500 270.13"><defs><style>.cls-1{fill:#eaeaea;}.cls-2{fill:#fff;}.cls-3{fill:#fefbf6;}.cls-4{fill:#86181b;}.cls-5{fill:#9e4649;}.cls-6{fill:#1f415f;}.cls-7{fill:#29567f;}</style></defs><path class="cls-7" d="m488.02,66.29c.38.09-.61,1.13-.94,1.7-.33.57-.9.61-1.61.52-.71-.09-1.13.14-1.79.28-.66.14-.38.94-.9,1.37-.52.42-.61-.47-.8-.94-.19-.47-.47.38-.57.9-.1.52-.57.9-1.28,1.37-.71.47-.99-.09-1.27-.57s-.52-.52-.85-.47c-.33.05-1.18.66-1.46.76-.28.09-.05-.47-.28-.76-.24-.28-.85.76-.85,1.42s.33,1.04-.05,1.18c-.38.14-1.04-.42-1.51-.66-.47-.24-.33-.61-.33-1.13s-.14-.8-.66-.76c-.52.05-.71.94-1.09,2.5-.38,1.56-.85,2.36-1.46,2.93-.61.57-.85.24-1.75.42-.9.19-.33.66-.8.8-.47.14-1.42.52-2.08,1.23-.66.71-.85.61-.99.19-.14-.42-.52-1.13-.8-1.27-.28-.14-2.12,1.65-1.94,2.17.19.52-.05,1.56-.38,1.7-.33.14-.71.14-.71.61s-.9,1.46-1.42,1.8c-.35.22-1.11,1.57-1.72,3.03l-.81-.95-.42-1.84-.85-1.06-.64-20.75-.27-.72.67-.84,1.1,1.24s.39-.64.53-.78c.14-.14-.14-.92-.14-.92,0,0,.28-.28.67-.28s.71.46.71.46l-.11-2.23,2.23-1.88.03-.88s1.07-1.03,1.13-1.17c.07-.14-.32-.81-.32-.95s.11-.57.18-.82c.07-.25.22-.42.22-.6s.1-.89.03-1.52c-.07-.64.78-.99,1.06-1.49.28-.5.85-3.4.92-3.82.07-.43,6.23-9.14,6.23-9.14l1.56.35v2.2l1.13.71,4.18-1.35.07-.85h1.2l3.61,3.47-.14,13.93s.42.47.47.75c.05.28-.14.8-.47,1.32-.33.52.42.47.94.42.52-.05.95.66,1.51,1.09.57.42.66.05.66.05,0,0,.14.94-.24.99-.38.05-.38.28.14.85.52.57-.28,1.09-.38,1.37-.09.28.8,1.7.99,1.89.19.19.71-.42,1.04-.42s1.37.9,1.42,1.84c0,0-.43.76-.57,1.27-.14.52.61.66.99.76Z"/><path class="cls-5" d="m448.65,98.05v.39l-.08,5.75-.57,1.24h-.01c-1.66.23-3.39.48-3.88.57-1,.19-4.11.29-4.78.38-.64.09-4.36,2.23-5.17,2.88h-.01l-.38-.61-.1-1,1.75-1.08-.73-.73.71-7.78h13.25Z"/><path class="cls-1" d="m454.42,103.56c-.54.32-1.06.54-1.53.5-.66-.05.29-1.19.29-1.51s.42-1.03-.29-1.27c-.71-.24-.62.9-.71,1.36-.09.48.33.67.24,1.19-.1.52-.57,1.08-.9,1.13-.18.03-1.82.24-3.52.47l.57-1.24.08-5.75,3.24.08.63,1.66,1.25.63.4,1.41.24,1.34Z"/><path class="cls-7" d="m463.75,101.6c-.14.05-2.12.57-2.82.67-.72.09-2.37,1.17-2.6,1.17-.24,0,.09-1.65.09-1.98s-.38-.19-.79-.05c-.43.14-1.7,1.27-2.51,1.75-.24.14-.47.28-.69.39l-.24-1.34-.4-1.41-1.25-.63-.63-1.66-3.24-.08v-.39h-13.25l.06-.64,1.56-7.52,6.66.15,9.77.35.71-.64.5-1.06,1.55-.29h.9c-.03.09-.05.18-.06.26-.48,1.98.57,2.03,1.46,1.94.9-.1.09.71-.29,1.08-.38.38-1.22.71-1.46.79-.24.1-1.08,1.05-1.32,1.89-.23.84,1.08.9,2.18,1.24,1.08.33.66,1.88.47,1.98-.19.09.14.76.57,1.03.43.29.9,1.6,1.13,1.94.24.33,1.36.42,1.7.42s1.46-.61,1.88-.84c.43-.24.15-.71.05-1.22-.09-.53-.71-.9-.98-1.19-.29-.28-.34-.38,0-.57.33-.19,1.27,1.19,1.74,1.89.47.71-.28,2.5-.43,2.55Z"/><path class="cls-4" d="m456.93,85.64l.81.95c-.25.61-.47,1.24-.62,1.81h-.9l-1.56.28-.5,1.06-.71.64-9.77-.35-.78-1.84.92-.78-.14-2.34.35-3.61,1.06-2.2.92-1.63.28-1.49.78-1.56v-2.05l2.62-1.84,1.2-1.42.07-.92-.64-1.2,1.13-1.56-.14-.92.14-.5.53-2.51,1.27-.67s.85.67,1.13.67l.33-.41.27.72.64,20.75.85,1.06.42,1.84Z"/><polygon class="cls-1" points="451.47 64.18 451.33 64.68 451.47 65.6 450.34 67.16 450.98 68.36 450.91 69.28 449.7 70.7 447.08 72.54 447.08 74.6 446.3 76.15 446.02 77.64 445.1 79.27 444.04 81.47 443.68 85.08 443.82 87.42 442.9 88.19 443.68 90.04 437.03 89.89 437.03 80.47 435.82 80.69 436.25 77 435.96 74.67 437.38 70.42 436.18 68.86 436.39 66.66 435.89 65.39 436.34 64.3 451.47 64.18"/><path class="cls-6" d="m425.64,104.95l-.65-.65-1.13-.38-1.42-1.51v-1.42l-.57-1.23-1.32-.66-.28-1.23-2.17.19-33.81-.47v-5.07l6.78-3.34.07-1.63-1.27-1.49.21-1.56-1.2-2.55,3.54-1.77,15.94-.21,2.97-5.38s3.33-2.41,4.32-3.12c.99-.71,4.32-4.75,4.82-5.03.5-.28,3.9-2.05,3.9-2.05l12-.09-.45,1.09.5,1.28-.21,2.2,1.2,1.56-1.42,4.25.28,2.34-.43,3.68,1.2-.21v9.42l-1.56,7.51-.78,8.43.73.73-1.75,1.09.09.99.38.62s-.04.03-.05.04c-.66.57-1.65,1.56-1.61,1.94.05.38.8-.33,1.04-.71.24-.38.9-.8,1.56-.66.66.14,2.64-.24,3.12-.57.47-.33,3.21-.24,3.87-.24s1.56-.66,2.12-1.18c.57-.52,1.04.38.99.61-.05.24-.8-.05-1.04.14-.24.19-1.37.75-1.46.99-.09.24.76.14,1.18.09s.9-.71,1.51-.76c.61-.05.52-.61.85-.52.33.09.33.28.85.28s.71-.57,1.18-.76c.47-.19.38.24.28.42-.1.19-2.41,1.23-3.35,1.65-.94.42-1.51.38-1.98.42-.47.05-.8.71-1.65.71s-.66.47-1.51.47-3.02.71-4.01.99c-.99.28-.85.9-1.61.85-.75-.05-1.56-.47-1.84-.52-.28-.05-.99.52-1.46.52s-.24-.85-.33-1.09c-.09-.24-.28.66-.24.99.03.24-.34.46-.76.74-.28-.2-.42-.79-.42-.79l.57-1.18,1.56-1.56.05-1.46-1.65-1.37-1.51-1.32-2.08-.85-.67-.67Z"/><path class="cls-7" d="m431.55,109.16l-.05,1.46-1.56,1.56-.57,1.18s.14.59.42.79c-.16.1-.32.22-.47.34-.57.47.61.28,1.61.57.99.28.33.57.33,1.61s-.38,2.36-.66,2.64c-.28.28-.42.61-.52,1.98-.09,1.37-1.13,2.74-1.7,3.07-.57.33-.05.71.19.94.24.24-1.51,1.7-2.41,2.41-.9.71-1.13,1.79-1.18,2.36-.05.57-1.23,1.04-1.56.9-.33-.14.28-.85.38-1.27.1-.42-.09-1.09-.38-1.37-.28-.28-1.37-.61-1.89-.71-.52-.1-2.22-1.51-2.74-2.22-.52-.71.05-.94.05-1.46,0-.29-.09-.47-.22-.56l.66-1.34.32.1,5.01-4.72-1.23-1.42-.94-2.08-1.04-.57.19-1.89.76-.47-.38-1.98,1.89-1.89.94-1.6.84-.58.67.67,2.08.85,1.51,1.32,1.65,1.37Z"/><polygon class="cls-5" points="419.28 122.04 417.62 121.48 416.48 122.43 397.41 122.43 386.64 122.43 378.14 122.43 378.14 112.84 378.14 94.54 381.57 93.86 384.28 92.52 384.28 97.59 418.09 98.06 420.26 97.88 420.54 99.1 421.87 99.76 422.43 100.99 422.43 102.41 423.85 103.92 424.98 104.3 425.64 104.95 424.79 105.53 423.85 107.13 421.96 109.02 422.34 111 421.58 111.47 421.39 113.36 422.43 113.93 423.38 116.01 424.61 117.42 419.6 122.14 419.28 122.04"/><path class="cls-6" d="m422.1,133.38c.18.61.23,1.54.19,2.36h-4.87l-.94-13.32,1.13-.94,1.67.56-.66,1.34c-.1-.07-.22-.1-.35-.1-.28,0-.09,2.17.24,2.6.33.42,1.09,1.32,1.09,1.65s.61,2.74.9,3.35c.28.61,1.23,1.23,1.6,2.5Z"/><path class="cls-6" d="m419.98,140.68c-.16.75.26.58-.04.92-.33.38-2.55,3.02-2.93,3.68-.38.66-1.04,2.17-.99,2.88.05.71-.47,1.46-.75,1.42-.28-.05-.52-1.75-.52-2.12s.28-.99.57-1.65c.28-.66.28-.99.28-1.42s.95-1.37,1.46-1.84c.44-.4.41-.99.16-1.4.75-.13,1.84-.33,2.77-.47Z"/><path class="cls-5" d="m416.59,161.72c.46.11.6,1.56.6,2.05s-.6,1.24-.96,1.24-1.7,1.7-1.95,2.12c-.25.42-.81.46-1.42.39-.6-.07-1.35-.96-1.49-.96s-.6.5-.71.36c-.11-.14.14-.82.11-1.13-.04-.32-.57-.04-.85.1-.28.14.28.85.07,1.06-.21.21-.99-.21-1.45-.32-.46-.11-1.27-.53-1.56-.57-.28-.04.71.88,1.1,1.06.39.18,2.51.53,2.8.6.28.07-.04.81-.1,1.03-.07.21-1.17.46-1.27.63-.11.18,1.03-.1,1.13.14.1.25-1.98,1.67-2.2,1.7-.21.04-.99-.63-1.63-1.45-.64-.82-.57.18-.57.18,0,0,.6.99,1.77,1.45,1.17.46,1.81-.42,2.23-.42s.78-.67,1.06-.64c.28.03-.07.64.46.88.53.25.35.71.1.82s-.92.82-.92,1.38-.71.49-1.13.18c-.42-.32-2.16.28-2.8.28s-1.31.46-1.48.71c-.18.25-1.52.96-2.91,1.77-1.38.81-2.55,2.62-2.62,3.19-.07.57-.71.5-.75.67-.04.18-.39,1.24-.75,1.48-.25.18-2.34.23-4.19.65l-9.02-9.51h-9.54l.19-2.17-2.27-1.18s-8.36-.71-9.35-.71-3.12.99-4.11,1.13c-.48.07-1.58.58-2.56,1.08l-.13-.09h-10.59l.67-2.31,1.89-.09.19-2.17.85-.09.47-.57,3.02-.09,2.55-2.36,1.13.28.85-.47-.1-1.32h1.13l1.23-1.32.57.95,1.32-.57.76-1.13s1.7.09,2.55,0c.85-.1,1.04-1.8,1.04-1.8l1.13-.28-.28-.57.75-1.32.04-.62c19.2.2,38.4.4,46.2.48-.13.08-.22.27-.22.54,0,.57,1.17,1.95,1.6,2.8.42.85.46,1.1.25,1.35-.21.25-.6-.53-.75-.81-.14-.28-.25-.14-.71-.14s-.63-.43-.99-.85c-.35-.42-.14.25.11.53.25.28-.39.75-.82.75s-.14.39-.6.32c-.46-.07-1.27.28-1.59.57-.32.28-1.07,0-1.59-.28-.53-.28-.53,0-.5.21s-.07.95-.14,1.2c-.07.25,3.51-.28,4.04-.42.53-.14,1.1-.25,1.45-.21.35.04.32.42.28.64-.04.21-.32,1.03-.32,1.27s.07,1.17.18,1.24c.1.07.21-.5.21-.85s.42-1.31.6-1.67c.18-.35.71-.11,1.17,0Z"/><path class="cls-6" d="m416.17,156.55c-.07.21-.53-.35-.78-.81-.05-.09-.1-.15-.16-.19-.01,0-.03-.02-.04-.03-.01,0-.02,0-.03-.01-.03-.01-.05-.01-.08-.01-.02,0-.05,0-.07.01-.01,0-.03.01-.04.02-.01,0-.02,0-.03.02h0c-7.8-.08-27-.28-46.19-.48-5.39-.06-10.78-.11-15.91-.16l4.35-1.3.19-1.32,1.8-.66-.1-1.04h1.13l.19-1.32,2.46-.76,3.02-2.55,1.23,1.61s1.32,1.32,1.7,1.32,1.7-.28,1.7-.66.85-.75.85-.75l1.32.94,1.23-.47,1.13-.28.19-1.23,1.23.19,1.32-.85.85.75,1.42-1.04-.38-.95.76-.57-.57-1.13,1.42-1.04,1.79-2.17-.09-1.23,1.42-1.23.57-2.64.85.09.85,1.13,1.32.47,2.46-4.16,1.32.57,1.04-1.6,1.32-.66,1.13-1.7.57-1.89.28-1.23,3.68,3.12,1.23-1.89.05.02,1.93.73-.47,1.42,4.91,1.98-1.32,1.8-.85,1.27c-.11.05-.23.11-.3.13-.21.07-.67,1.03-.75,1.92-.07.88.5,1.06,1.6.71,1.1-.36.99,1.03,1.03,1.17.03.14,1.28.78,1.56.99.28.21,1.13.14,1.56.14s.21.67,1.8,1.81c1.6,1.13,1.06,1.24,1.06,1.24,0,0-.39.6-.32,1.13.07.53-.07.6-.46.95-.39.36-.46-.14-.92-.14s-.42-.14-.64-.39-1.91-2.23-2.2-2.48c-.28-.25-1.31-1.73-1.42-1.59-.11.14.53,1.06,1.38,2.05.85.99,1.77,2.23,1.7,2.48-.07.25.63.53,1.45.71.82.18.99.35.64.46-.35.11,0,.39.46.67.46.28.35,1.03.21,1.45s-.53-.25-.71-.5c-.18-.25-.78-.35-.88-.18-.11.18.67,1.17.57,1.38-.11.21.11,1.17.6,1.49.5.32.46.75.39.95-.07.22-.99.36-1.42.22-.43-.14-1.63-1.92-1.91-2.27-.28-.36-1.24-.14-1.38.1-.14.25,1.17.46,1.38.75.21.28.1.99.46,1.17.35.18,1.03,1.06,1.13,1.27.1.21.74.32.99.39.25.07.35-.25.39-.57.04-.32,1.95-.14,2.59-.14s.35,1.59.32,2.23c-.03.64.11,1.31.67,1.74.04.03.07.05.1.08,0,0,.01.01.02.02.42.39.23.8.17,1Z"/><path class="cls-2" d="m400.24,124.51l.81,2.29-.05-.02-1.23,1.89-3.68-3.12-.28,1.23-.57,1.89-1.13,1.7-1.32.66-1.04,1.6-1.32-.57-2.46,4.16-1.32-.47-.85-1.13-.85-.09-.57,2.64-1.42,1.23.09,1.23-1.79,2.17-1.42,1.04.57,1.13-.76.57.38.95-1.42,1.04-.85-.75-1.32.85-1.23-.19-.19,1.23-1.13.28-1.23.47-1.32-.94s-.85.38-.85.75-1.32.66-1.7.66-1.7-1.32-1.7-1.32l-1.23-1.61-1.23-1.6-2.08-2.27-.28-1.32-1.32-2.27.47-1.51-.16-.74,1.77-.39.57-1.23.85-.19v-1.7l1.7-3.31.76.76.28.94.76-.19-.28-1.42.47-1.32,2.74-2.55.38.75,1.23-.09,1.7-2.27.75-.09s.47-2.74.76-3.59,1.79-4.06,1.79-4.06l-.38-3.02,1.04-.43v9.59h8.5v5.38l2.64-1.42.19-1.32,1.13.66,1.79-2.17,1.13.85,1.51.28-.09-1.23,1.32.19,1.13-.66,1.32,1.04,1.51.47Z"/><path class="cls-4" d="m417.43,135.74l-.94-13.32h-29.84v5.38l2.64-1.42.19-1.32,1.13.66,1.79-2.17,1.13.85,1.51.28-.09-1.23,1.32.19,1.13-.66,1.32,1.04,1.51.47.81,2.29,1.93.73-.47,1.42,4.91,1.98-1.32,1.8-.85,1.27c.19-.09.37-.15.3.03-.11.28-.74.71-.78,1.17-.03.46-.14,1.34.07,1.42.21.07.95-.25,1.24-.5.28-.25.64-.32.81.11.18.42.46,1.24,1.38,1.63.92.39,1.7.6,1.95.81.25.22.35.36.88.36s.28.67.57.67.57-.39.5-.71c-.07-.32-.35-1.13-1.2-1.77-.85-.64-1.63-1.56-1.67-1.73-.03-.18.22-.85.22-.64s-.07.71.35.99c.42.28,1.1,1.07,1.24,1.07s.64.18.57-.18c-.07-.35-.99-1.77-.99-2.05s-.09-1.37-.14-1.7c-.05-.33.28-1.32.52-1.61.15-.18.31-.5.43-.79.07-.17.12-.33.14-.44.05-.28-.85-.52-.71-.94.14-.42-.57-.99-.38-1.18.19-.19.66.09.94-.19.28-.28.61-1.51.9-1.27.28.24.71.05.99-.14.28-.19.99-.71.85-1.13-.14-.42.57-1.32.76-.9.19.42.52.85-.05,1.42s-1.37,1.13-1.7,1.84c-.33.71-.85,1.23-.52,1.32.33.1,1.04.14.71.66-.33.52-.61.09-.95.28-.2.12-.46.46-.55.74-.05.17-.05.31.08.35.33.09,1.13-.19,1.18.05.05.24-.66.94-.75,1.09-.1.14.38.99.47,1.27.1.28.52.8.19,1.28-.33.47-.94.57-.8,1.04.14.47.14.52.8.94s.61.94.99.94.61-.28.61-.42.05.19.33.52c.28.33.61.24.61.8s.05.42.33.71c.28.28.19.42.14.71-.05.28.14.52.14.52,0,0,.28.28.09.47-.02.02-.03.03-.04.04.03,0,.44-.3.75,0,.06.06.11.13.16.21.75-.13,1.84-.33,2.77-.47.01-.06.03-.13.05-.21.28-.99,1.51-2.55,1.89-2.88.2-.17.34-.95.38-1.84h-4.87Z"/><path class="cls-6" d="m382.17,249.76c.14.67-.92,6.73-.96,7.15-.03.42-1.49,3.54-1.35,4.25.14.71-.85,1.52-1.13,1.63-.28.1-.99.18-1.24.46-.25.28-2.41.35-3.4.25-.99-.1-.92-.32-1.13-.5-.22-.18.03-.96.39-.92.35.04.32.04.35.39.03.36.6.53,1.13.28.53-.25-.64-.63-.92-.71-.28-.07.04-.53.18-.74.14-.21-.6-.18-.96-.21-.35-.04-.21-.57-.39-.92-.18-.35-1.2-2.09-1.48-2.37-.28-.28-1.67-.65-2.66-1.17-.99-.52-.99-2.36-1.18-3.21-.19-.85-1.46-2.22-2.12-2.55-.66-.33-.33-1.09.14-1.56.47-.47.19-1.84.14-2.12-.05-.28-.75,0-.9.42-.14.42.09,1.09-.42,1.09s-1.65-2.08-1.89-2.64c-.24-.57-.94-2.27-.99-2.55s-.47-.8-.76-1.13c-.28-.33.42-.52.8-.66.38-.14.38-.85.94-1.32.57-.47.47-1.27.28-1.61s-.38.8-.66.8-.38-.52-.38-1.04-.33-.95-.75-.99c-.42-.05-.05,1.46.28,2.08.33.61-.8.76-1.27.66-.47-.09-.38-1.46-.52-1.89-.14-.42.52-2.65,1.23-5.01.71-2.36-.99-5.9-1.18-6.23-.19-.33-1.65-.05-1.94-.38-.28-.33-.66-.95-.85-1.51-.19-.57-1.7-1.32-1.84-1.51-.14-.19-.14-1.37-.19-1.51-.05-.14-.85-.47-1.18-.66-.33-.19-1.13-1.94-1.84-2.22-.71-.28-1.32-.71-1.56-.99-.24-.28-1.6-.28-1.79-.28s-1.18.61-1.32.71c-.14.09.28.57.28.94s-.71.38-1.46.42c-.76.05-2.55,1.18-3.21,1.37-.66.19-.42.28-.9.28s-1.51.42-2.12.42-.38-.38-.38-.9-.42-.94-.52-1.32c-.09-.38-2.31-1.94-2.97-2.17-.66-.24-.9-.61-1.65-.99-.76-.38-2.74-1.09-3.4-1.18-.66-.09-.95,0-.9-.24.05-.24,1.04-.05,1.7-.05s.99.14,1.37.05c.38-.1-.52-.66-.9-.76-.38-.09-2.41.05-2.69.42-.28.38-2.03.38-2.93.38s-1.18.38-1.13.05c.05-.33.61-.71.47-1.13-.14-.42-.61-.14-1.13-.14s-.42.8-.66,1.18c-.24.38-1.61.94-2.17.94h-.02l.87-1.56-.85-.42.42-1.42-1.7-1.84v-1.42h21.14l1.1,2.83,28.3,1.56c.34,1.73,1.14,5.43,1.17,6.01.03.71,1.31,4.75,2.12,6.13.82,1.38,1.67,3.58,1.67,3.89s.1,2.06.1,2.48.6,1.59.6,1.59c0,0,.03-1.52-.07-1.91-.1-.39-.21-.85-.21-1.1s.67.21,1.42.63c.74.42.39,1.52.21,2.09-.18.57-.53,0-.53,0,0,0,.28-.64.32-1.17.03-.53-.46.63-.57.81-.11.18-.14,1.35.03,2.2.18.85,2.09,5.17,2.3,5.74.22.57,1.13,2.9,1.1,3.36-.03.46.39.53.78.89.39.35.75,3.3.89,3.97Z"/><path class="cls-6" d="m378.14,94.54v18.3l-1.04.43.38,3.02s-1.51,3.21-1.79,4.06-.76,3.59-.76,3.59l-.75.09-1.7,2.27-1.23.09-.38-.75-2.74,2.55-.47,1.32.28,1.42-.76.19-.28-.94-.76-.76-1.7,3.31v1.7l-.85.19-.57,1.23-1.77.39-.22-.96-1.32-.66-1.04-1.89-2.64,1.51-1.8-.85-1.51.85-.47-.85-1.04-.66-3.31-.66-.85-1.98-1.51-.28-1.51-1.32-.8.86v-28.11h11.19l2.69-2.59c.09.66.14,1.22.14,1.22l3.12,1.79,2.55-.09,9.35-5.86,5.86-1.16Z"/><path class="cls-6" d="m385.32,172.86h-9.54l.19-2.17-2.27-1.18s-8.36-.71-9.35-.71-3.12.99-4.11,1.13c-.48.07-1.58.58-2.56,1.08-1.04.52-1.97,1.05-1.97,1.05,0,0-.71,2.55.14,2.69.85.14,2.83,1.42,3.4,2.27.57.85,1.84,4.53,3.12,4.67,1.28.14,2.12,3.12,2.97,3.82.85.71,1.98,2.97,1.98,2.97l2.69,1.84.85,3.68,2.12,2.12.71,3.26s.57-.1,1.48-.09c-.2-.4-.31-.76-.17-.83.22-.1.78.04.96.21.09.09.29.05.48-.04l-.4-.95c-.18-.12-.32-.22-.33-.28-.01-.07-.06-.39-.1-.75h0c-.07-.59-.11-1.3.07-1.16.28.21.57,1.13.99,1.24.42.11.71.89,1.1.78.39-.11,1.06-.67.78-1.1-.28-.42-1.73-.64-1.48-1.06.25-.42,1.1-.57,1.34-.25.25.32,1.03.67,1.67.21.64-.46,2.58-1.1,2.69-1.31.11-.21.39-.96,1.35-1.35.95-.39,1.63-2.3,2.37-2.34.75-.03.75.28,1.1-.14.35-.43,1.31-.82,1.35-1.13.04-.32.1-1.35.28-1.91.18-.57,1.35-2.97,3.19-4.07.52-.31,1.21-.54,1.94-.7l-9.02-9.51Z"/><path class="cls-1" d="m346.97,170.92h10.59l.13.09c-1.04.52-1.97,1.05-1.97,1.05,0,0-.71,2.55.14,2.69.85.14,2.83,1.42,3.4,2.27.57.85,1.84,4.53,3.12,4.67,1.28.14,2.12,3.12,2.97,3.82s1.98,2.97,1.98,2.97l2.69,1.84.85,3.68,2.12,2.12.71,3.26s.57-.1,1.48-.09c.1.21.23.43.37.62.39.57-.53,1.13-.99,1.31-.37.14-.35,0-.33-.05-.07.14-.45.9-.49,1.18-.03.32-.88.67-1.03.67s-.57.95-.42,1.34c.14.39.39.64.21.89-.18.25-.89,2.23-1.17,2.76-.28.53-.35.67-.42,1.03-.07.36-.92.25-1.06.5-.14.25.46.74.32.88-.14.14.42,2.12.53,2.9.02.14.07.42.14.78l-28.3-1.56-1.1-2.83-.88-2.27.71-3.26-.42-3.12,1.27-5.38-1.98-3.68-3.26-21.11h10.09Z"/><path class="cls-7" d="m303.47,160.88l-.12-.39.75-.76-.75-1.23h1.32l-.47-.57.75-.47.28-1.32,11.81-.09s-.19-1.04-.38-1.42c-.19-.38-.38-.85-.38-.85,0,0,2.46.76,2.74.76.11,0,15.31.16,33.8.35,5.14.05,10.53.11,15.91.16l-.04.62-.75,1.32.28.57-1.13.28s-.19,1.7-1.04,1.8c-.85.09-2.55,0-2.55,0l-.76,1.13-1.32.57-.57-.95-1.23,1.32h-1.13l.1,1.32-.85.47-1.13-.28-2.55,2.36-3.02.09-.47.57-.85.09-.19,2.17-1.89.09-.67,2.31h-10.09l-21.25-.14-16.91-.09,1.61-.85-.47-1.23.38-.85-.66-.75s1.04-.95.85-1.32c-.19-.38,1.23-.19,1.23-.19l-.57-.94,1.04-.09-.66-.85,1.79-.85-.66-.66,1.13-.38-.25-.83Z"/><path class="cls-4" d="m361.26,136.23l.16.74-.47,1.51,1.32,2.27.28,1.32,2.08,2.27,1.23,1.6-3.02,2.55-2.46.76-.19,1.32h-1.13l.1,1.04-1.8.66-.19,1.32-4.35,1.3c-18.49-.19-33.69-.35-33.8-.35-.28,0-2.74-.76-2.74-.76,0,0,.19.47.38.85.19.38.38,1.42.38,1.42l-11.81.09.85-1.04,1.42-.1.85-1.98-1.04-1.23h.94l-.47-1.04.28-1.23,1.42-.94,3.97,1.42.1-1.13-.76-1.51.76-.66,3.12-.66-.95-2.08,1.42-1.24.1-.08,1.04-.28-.19-.76h1.51l.85.57,1.32-.85,3.12,1.13.57-.94,1.89-.85,1.04,1.51.94-1.04.28-1.51,1.13-.94,1.23,1.51s1.04.94,1.7.38c.66-.57,1.32-2.74,1.32-2.74l1.23-.47.47-1.51,1.42-.76.1-2.17,1.6-.09.66.57,1.23-.94,1.79-.28-.09-.76-.66-1.51.52-.56.8-.86,1.51,1.32,1.51.28.85,1.98,3.31.66,1.04.66.47.85,1.51-.85,1.8.85,2.64-1.51,1.04,1.89,1.32.66.22.96Z"/><path class="cls-4" d="m301.31,37.46l3.62-8.18,1.53.03,7.74-4.06,28.52,17.1.85,3.02,1.51,1.98,2.46-.38,1.13-.38v3.49l1.6,2.17.95-.85,2.27.19.94,1.32-1.42,1.98,8.69,5.57,3.4,20.02s-.19,1.23-1.13,3.5c-.95,2.27-2.17,7.65-2.17,7.65l-1.98,1.89s-1.98,1.23-2.55,1.42c-.57.19-.57,1.23-.38,2.17.08.42.16,1,.23,1.52l-2.69,2.59h-11.19v-.78h-19.29c.21-.48.42-.96.59-1.35.38-.85.7-3.24.74-6.37.02-1.55-.03-3.28-.17-5.1-.42-5.52-.28-10.2,1.56-17.57,1.84-7.37,4.82-8.36,4.82-8.36l-3.54-1.98h-3.54l-1.42,1.84-.99,1.98h-1.42l-.99-1.84.85-1.42-1.84-.28.42-3.82-2.97-.99.57-1.56-4.53-.57-2.27-1.56-9.77-2.97-.42-1.42-2.27-.71,3.96-8.95Z"/><path class="cls-3" d="m323.96,100.45h19.29v28.89l-.52.56.66,1.51.09.76-1.79.28-1.23.94-.66-.57-1.6.09-.1,2.17-1.42.76-.47,1.51-1.23.47s-.66,2.17-1.32,2.74c-.66.57-1.7-.38-1.7-.38l-1.23-1.51-1.13.94-.28,1.51-.94,1.04-1.04-1.51-1.89.85-.57.94-3.12-1.13-1.32.85-.85-.57h-1.51l.19.76-1.04.28-.1.08-.73-1.27.85.07.14-.5-.35-.99,1.06-1.27-.64-1.13.92-.21.99-1.7.92-.92.21-1.42h.85v-2.27l-.5-1.2-.92-.99.85-.99-.42-.99.85-.35v-26.14h2.74Z"/><path class="cls-5" d="m340.13,192.03l1.98,3.68-1.27,5.38.42,3.12-.71,3.26.88,2.27h-21.14v1.42l1.7,1.84-.42,1.42.85.42-.87,1.56c-.57,0-1.83.47-2.48.38-.66-.09-.57-1.13-.9-1.32-.33-.19-.09-1.04-.09-1.32s-.1-1.46-.76-1.42c-.66.05-.57.61-.52,1.42.05.8-.57,1.89-.95,1.94-.38.05-.61-.43-1.18-.47-.17-.01-.35.01-.55.06l-.35-10.73s-.28-5.52.57-12.89c.85-7.37,2.27-19.69,2.27-19.69l-.99-1.56,21.25.14,3.26,21.11Z"/><path class="cls-3" d="m290.83,81.25v-3.82l-1.98-1.7-2.97-1.98-1.13-2.12-2.12-1.13-.71-1.27h-1.56l-1.56-1.98-.42-3.26.42-2.27.85-2.27-.85-1.42-1.13-.42.14-1.84,1.42-1.56,2.69-1.42.85-7.93,2.97-.85,10.06-6.66,5.52.12-3.96,8.95,2.27.71.42,1.42,9.77,2.97,2.27,1.56,4.53.57-.57,1.56,2.97.99-.42,3.82,1.84.28-.85,1.42.99,1.84h1.42l.99-1.98,1.42-1.84h3.54l3.54,1.98s-2.97.99-4.82,8.36c-1.84,7.37-1.98,12.04-1.56,17.57.14,1.82.19,3.55.17,5.1h-29.16l-.9-1.56-2.97-1.98-.99-3.68,1.13-1.28-1.56-1.56v-1.42Z"/><path class="cls-7" d="m296.13,92.73h29.16c-.04,3.14-.36,5.52-.74,6.37-.17.39-.38.87-.59,1.35h-2.74v26.14l-.85.35.42.99-.85.99.92.99.5,1.2v2.27h-.85l-.21,1.42-.92.92-.99,1.7-.92.21.64,1.13-1.06,1.27.35.99-.14.5-.85-.07.73,1.27-1.42,1.24.95,2.08-3.12.66-.76.66.76,1.51-.1,1.13-3.97-1.42-1.42.94-.28,1.23-.75-.66h-.95s-.66-1.7-.94-1.7.66-1.23.66-1.23c0,0-.38-1.8-.85-1.89-.47-.09.1-1.61.1-1.61l-3.78-2.64-3.21-2.55.19-2.27,1.23-2.36.66-1.89-1.23-.94-.94-.28-.66.85h-1.42l-.57-3.68-2.74-2.74-2.36-2.27-.85-1.98-.47-2.93.57-2.27.52-1.18-.57-1.13,2.55-1.13v-1.56l1.28-1.42-.28-1.98-.85-.99.71-1.98,2.69-.71,2.41-.85.85-1.98,1.13-.42-.14-3.54-1.98-1.27-.99-1.7-.66-1.13Z"/><path class="cls-1" d="m316.62,172.34l-.99-1.56-16.91-.09v1.04l-.85.47-1.04.57.28,1.32-1.04,1.13-.28,1.98-1.13.47s-.85,1.98-1.13,2.17c-.28.19-.94,1.13-.94,1.13v1.13l-.95,1.04-.38,1.42-.57.47v1.42l1.04,1.13-.47,1.04.76,1.23-.35.48-.41.56.47,1.42-.47.85,1.13.85-.47,1.13,1.23.85-.76,1.42.57.57-.57,1.51-2.46,2.74-.38,1.79-.76.1.28.66-.47.66-.1,1.8h-1.04l.75,1.42-.47,1.04,15.3.19-.85,3.21,1.32,1.51.28,1.7.84,1.33c.75-.24,1.03-.68,1.52-1.09.57-.47.66-.52,1.46-.47.33.02.79-.12,1.26-.28.66-.22,1.34-.47,1.67-.33.57.24.57.71,1.7.61.8-.07,1.39-.29,1.86-.41l-.35-10.73s-.28-5.52.57-12.89c.85-7.37,2.27-19.69,2.27-19.69Z"/><path class="cls-3" d="m307.31,151.8l1.04,1.23-.85,1.98-1.42.1-.85,1.04-.28,1.32-.75.47.47.57h-1.32l.75,1.23-.75.76.12.39-5.41.08,2.46-2.64-.1-.94-.75-1.42h-36.08l-.09-4.86-.09-22.52-1.42-.76-.85-1.89h-.76l-1.04-1.7.85-.28.38-1.23,1.23-.57-.47-1.42-1.79.28-2.27-1.32-.19-1.42-1.13-1.7s-.85.19-.85-.1-.38-2.55-.38-2.55l-.66-.57h33.05l1.13,1.04,1.23,1.32-.57,2.27.47,2.93.85,1.98,2.36,2.27,2.74,2.74.57,3.68h1.42l.66-.85.94.28,1.23.94-.66,1.89-1.23,2.36-.19,2.27,3.21,2.55,3.78,2.64s-.57,1.51-.1,1.61c.47.09.85,1.89.85,1.89,0,0-.94,1.23-.66,1.23s.94,1.7.94,1.7h.95l.75.66.47,1.04h-.94Z"/><path class="cls-6" d="m306.08,220.13c-.05.61.33,1.23.05,1.7-.28.47-1.09.33-1.7.38-.61.05-.47.57-.99.61-.52.05.52.99,1.09,1.28.57.28.28.85-.05.9-.33.05-.33.85-.66,1.13-.33.28-.33-1.04-.66-1.32-.33-.28-.66-.1-.8-.57-.14-.47-.9-.05-1.46-.05s-.61-.38-1.27-.8c-.66-.42.33.9.94,1.27.61.38.38.42.28.75-.09.33-.47-.14-.8.05-.33.19.38.61.24,1.09-.14.47-.75,1.09-1.18,1.04-.42-.05-.05-.8-.19-1.18-.14-.38-.38-.57-1.27-.75-.9-.19-1.13.14-1.27.57-.14.42-.28.33-.66.57-.38.24-.57.75-.95.75s-.19-.47-.19-.94-.66-.61-.99-.71c-.33-.09.05.42.47.8.42.38-.05.42-.42.33-.38-.09-1.23-.33-1.7-.38-.47-.05-1.42-.47-1.6-.71-.19-.24.9-.52,1.27-.57.38-.05-.05-.52-.33-.85,0,0-.76.05-.94.05s-.28-.57-.71-.66c-.42-.09-.47-.28-.47-.52s-.28-.47-.57-.47-.61-.66-.99-1.09-1.18-.05-1.46-.33c-.28-.28.1-.9-.19-1.42-.28-.52-.8-.05-.99.61-.19.66-.9.8-1.46.94-.57.14.71.94,1.04,1.32.33.38-2.03.38-3.45.42-1.42.05-4.77-1.75-6.47-2.03-1.23-.21-3.29.29-4.79.63l-.73-1.52,1.6-2.17-.28-2.36.28-2.17s1.8-2.55,1.8-2.83-.1-2.65-.1-2.65l-.75-.94s-.38-1.98-.47-2.27c-.09-.28-.94-.76-.94-.76l-.57-2.17-1.32-1.8-.19-9.92,23.55-.09-.41.56.47,1.42-.47.85,1.13.85-.47,1.13,1.23.85-.76,1.42.57.57-.57,1.51-2.46,2.74-.38,1.79-.76.1.28.66-.47.66-.1,1.8h-1.04l.75,1.42-.47,1.04,15.3.19-.85,3.21,1.32,1.51.28,1.7.84,1.33c-.11.03-.23.07-.37.09-1.04.19-1.13,1.09-1.61,1.09s-.38.61.19.99c.57.38,1.13.71,1.75.42.61-.28.33-1.09.71-1.61.38-.52.42.14.47.57.05.43.33.33.28.95Z"/><polygon class="cls-7" points="304.93 29.28 301.31 37.46 295.79 37.34 285.73 44 282.76 44.85 281.91 52.78 279.22 54.2 277.8 55.75 277.66 57.6 278.79 58.02 279.64 59.44 278.79 61.7 278.37 63.97 278.79 67.23 280.35 69.21 281.91 69.21 282.62 70.49 284.74 71.62 285.88 73.75 288.85 75.73 290.83 77.43 290.83 81.25 248.75 81.25 248.34 60.71 246.78 59.72 245.5 56.89 247.34 55.19 247.77 53.63 247.49 49.52 246.07 45.41 245.64 40.31 245.08 34.36 243.24 28.41 242.67 21.9 243.52 20.48 241.98 16.85 259.05 16.85 259.15 11.93 261.98 13.07 262.74 19.3 263.59 20.43 269.92 21.28 270.2 22.8 272.65 22.51 272.84 21.76 276.43 21.1 279.27 22.23 281.82 26.1 282.57 26.1 282.57 24.87 284.37 24.5 284.84 25.91 286.91 26.95 287.29 27.42 288.33 27.71 288.33 28.37 290.88 27.9 294.18 25.91 294.94 27.8 299.95 27.61 301.74 29.22 304.93 29.28"/><path class="cls-5" d="m264.53,184.33l.38-18.17-1.32-10.2h36.08l.75,1.42.1.94-2.46,2.64,5.41-.08.25.83-1.13.38.66.66-1.79.85.66.85-1.04.09.57.94s-1.42-.19-1.23.19c.19.38-.85,1.32-.85,1.32l.66.75-.38.85.47,1.23-1.61.85v1.04l-.85.47-1.04.57.28,1.32-1.04,1.13-.28,1.98-1.13.47s-.85,1.98-1.13,2.17c-.28.19-.94,1.13-.94,1.13v1.13l-.95,1.04-.38,1.42-.57.47v1.42l1.04,1.13-.47,1.04.76,1.23-.35.48-23.55.09.1-5.29-1.51-.66-1.13.85-1.04-.94v-.05Z"/><polygon class="cls-4" points="248.75 81.25 290.83 81.25 290.83 82.67 292.39 84.23 291.26 85.5 292.25 89.19 295.22 91.17 296.13 92.73 296.78 93.86 297.77 95.56 299.76 96.84 299.9 100.38 298.77 100.8 297.92 102.79 295.51 103.64 292.82 104.34 292.11 106.33 292.96 107.32 293.24 109.3 291.97 110.72 291.97 112.28 289.42 113.41 289.98 114.54 289.46 115.72 288.24 114.4 287.1 113.36 254.05 113.36 253.77 112.42 253.29 112.04 253.77 107.98 252.82 106.47 253.01 104.39 251.69 103.54 251.03 97.97 249.52 95.8 248.57 92.96 246.97 92.02 247.06 90.32 248.76 85.5 247.77 84.23 247.77 82.67 247.34 81.25 248.75 81.25"/><path class="cls-4" d="m272.37,208.27s.1,2.36.1,2.65-1.8,2.83-1.8,2.83l-.28,2.17.28,2.36-1.6,2.17.73,1.52c-.57.13-1.06.23-1.4.27-1.23.14-3.26,1.27-3.82,1.27s-1.56,0-2.22.14c-.66.14.05-.57.24-.95.19-.38.14-1.27,0-1.37-.14-.09-.57-.05-1.04.42-.47.47-.61.33-.8.09-.19-.24-.47-.14-.33.28.14.42-.14.76-.38.85-.24.1.1.52.71.71.61.19.33.57.42,1.32.1.76-.47.94-.75,1.04-.28.09-.38.57-.9.57s-.42.28-.76,1.13c-.33.85-1.65,2.12-2.03,2.12s-.8.57-1.18.85c-.38.28-1.7.14-2.08.24-.38.09-.05.61,0,.85.05.24-.61.33-.95.14-.33-.19-.75-.09-1.27.05-.52.14-.52.05-.66-.61-.14-.66-.57.05-.9.28-.33.24-.33-.05-.66-.05s-.61.42-.85.28c-.24-.14-.76-.52-1.04-.61-.28-.1.19.9.28,1.09.1.19,1.18.66,1.32.99.14.33-.61.9-1.32,1.28-.71.38-.94-.05-1.13-.71-.19-.66-.66-.09-.8.09-.14.19.24.47.24.47,0,0-.14,1.37-.24,1.61-.09.24-.85.71-1.04.57-.19-.14,0-.61-.19-.61h-1.13c-.28,0-.95.71-.95,1.04s.61.42,1.04,0c.42-.42.61-.14.61.14s-.85,1.42-1.13,1.98c-.28.57-.47.05-.61-.14-.14-.19-.8-.19-1.37-.14-.57.05-.61.19-.52.38.1.19,1.42,1.27,1.56,1.46.14.19-1.04,2.88-1.23,3.12-.19.24-1.18-.05-1.61-.05s-.38.71-.24.76c.14.05,1.65,0,1.75.47.09.47-.28,1.98-.76,2.08-.47.09-.19.66-.09,1.13.09.47.75.66.75,1.23s.1,2.74.66,3.21c.57.47,1.79,3.73,1.79,3.73,0,0-.92.07-1.42.21-.5.14-.42.42-.99.42s-1.06-.99-1.35-1.27c-.28-.28-1.77-.28-4.46-.42,0,0-6.37-3.12-7.58-3.26,0,0-1.42-4.25-2.83-5.1l-.07-2.76-.64-.14.14-2.34-2.83-2.05s-.21-1.49-.42-1.84-2.97-2.55-2.97-2.55l-3.26-8s-1.63-1.84-2.48-2.55-1.91-.99-1.91-.99l-.07-1.2-.5.35-1.98-2.12-.85.64s-.57-.28-.78-.42-2.55-.07-3.19-.14c-.64-.07-1.56-.5-1.56-.5l-.42,1.13-2.34-.14s-.64,1.56-1.42,3.12c-.78,1.56-.21,1.77-.21,1.77l-2.48,2.48s-1.42-.64-2.2-.64-2.12-1.84-2.34-1.98c-.21-.14-3.47-1.06-3.54-1.49-.07-.42-.85-.99-1.27-.99s-2.12-2.05-2.69-3.12c-.57-1.06-.21-2.05-.14-2.55.07-.5-2.05-4.18-2.76-5.1-.71-.92-3.05-1.84-3.4-2.05-.35-.21-3.54-3.75-4.04-4.46-.5-.71-1.91-.71-2.34-1.06-.42-.35-2.2-3.05-2.2-3.05l-1.18-.73v-1.32l29.09.09.38-44.48h24.27v19.36l.94-.28,1.98,1.79,1.61.66.94-1.04.95.75.28,1.51,3.4,1.04,1.51-.75.66,1.13,1.42-.95,1.8.38v1.13h1.13l.09,1.42,1.13.09.57-1.04,1.98-.09.76,1.42,1.7-.66.85,1.79,1.32-2.46.76.95h1.42l2.55,1.7.57-.47.76.28.28-1.04,2.08-.66.85.57,1.79-.85,1.32.28,2.27-.38s3.59,1.98,3.97,2.27.66.75.66.75l.66-.15v.05l1.04.94,1.13-.85,1.51.66-.1,5.29.19,9.92,1.32,1.8.57,2.17s.85.47.94.76c.09.28.47,2.27.47,2.27l.75.94Z"/><polygon class="cls-6" points="195.31 151.09 195.31 155.89 194.93 200.34 165.84 200.24 165.84 201.57 167.03 202.3 152.93 202.3 152.93 206.69 146.2 206.64 146.2 151.09 195.31 151.09"/><path class="cls-7" d="m264.91,166.16l-.38,18.17-.66.15s-.29-.48-.67-.76c-.38-.29-3.96-2.27-3.96-2.27l-2.27.38-1.32-.28-1.79.84-.86-.57-2.07.66-.29,1.05-.76-.29-.57.48-2.55-1.7h-1.41l-.76-.95-1.32,2.46-.84-1.79-1.7.66-.76-1.41-1.98.09-.57,1.03-1.13-.09-.09-1.41h-1.13v-1.13l-1.8-.38-1.41.95-.66-1.13-1.51.76-3.4-1.05-.28-1.51-.95-.74-.95,1.03-1.61-.66-1.98-1.8-.95.29v-19.37h-24.26v-4.77h68.18l.09,4.87,1.32,10.2Z"/><polygon class="cls-5" points="263.4 128.57 263.49 151.09 203 151.09 203 119.69 257.26 119.69 259.53 121.01 261.32 120.73 261.79 122.14 260.57 122.71 260.19 123.94 259.34 124.22 260.38 125.92 261.13 125.92 261.98 127.81 263.4 128.57"/><path class="cls-6" d="m257.07,118.27l.19,1.42h-54.26v-10.67h-16.2v-21.91h44.95l.09.75,4.25,1.98,1.42-1.32h3.87l5.67,1.79-.09,1.7,1.6.94.95,2.83,1.51,2.17.66,5.57,1.32.85-.19,2.08.95,1.51-.47,4.06.47.38.28.94.66.57s.38,2.27.38,2.55.85.1.85.1l1.13,1.7Z"/><polygon class="cls-3" points="247.77 84.23 248.76 85.5 247.06 90.32 241.39 88.53 237.52 88.53 236.1 89.85 231.86 87.86 231.76 87.11 186.81 87.11 186.81 64.54 186.81 53.63 247.77 53.63 247.34 55.19 245.5 56.89 246.78 59.72 248.34 60.71 248.75 81.25 247.34 81.25 247.77 82.67 247.77 84.23"/><polygon class="cls-5" points="247.49 49.52 247.77 53.63 186.81 53.63 186.81 16.85 241.98 16.85 243.52 20.48 242.67 21.9 243.24 28.41 245.08 34.36 245.64 40.31 246.07 45.41 247.49 49.52"/><polygon class="cls-3" points="203 119.69 203 151.09 146.2 151.09 146.2 109.02 186.81 109.02 203 109.02 203 119.69"/><polygon class="cls-4" points="129.63 70.03 129.63 64.63 186.81 64.54 186.81 87.11 186.81 109.02 146.2 109.02 129.63 109.02 129.63 98.39 129.63 70.03"/><polygon class="cls-6" points="186.81 53.63 186.81 64.54 129.63 64.63 129.63 70.03 127.31 66.99 125.61 68.13 125.99 69.83 123.53 69.83 122.4 69.45 120.7 70.01 119.19 69.07 118.81 70.77 116.54 70.2 114.84 71.71 113.71 69.83 112.96 66.24 112.01 66.24 109.93 66.43 110.5 64.73 109.56 63.03 107.86 60.38 108.23 58.11 107.29 57.93 105.97 55.85 104.84 57.93 101.06 58.49 101.81 56.41 101.25 55.47 102.76 53.39 101.81 51.88 102.38 49.24 103.14 45.27 99.55 44.71 98.6 42.25 94.83 37.91 91.61 36.77 91.61 35.07 91.43 32.05 89.35 28.84 89.18 16.85 186.81 16.85 186.81 53.63"/><path class="cls-5" d="m100.81,170.89l.35-1.81-.71-4.39.28-2.55-.42-2.12,2.27-.85,1.56,1.27,1.13-1.27v-8.07h40.94v55.54l-16.86-.15-30.08-10.91.76-2.31s1.84-1.09,2.27-1.79-.57-1.42-1.84-1.27l-.57-3.4s1.13-.99,1.56-1.7c.42-.71.28-2.12.42-3.68.14-1.56,2.83-3.12,2.83-3.12l-1.84-2.27-.99-2.27-1.27-1.7.22-1.17Z"/><polygon class="cls-7" points="146.2 109.02 146.2 151.09 105.26 151.09 105.26 98.39 129.63 98.39 129.63 109.02 146.2 109.02"/><polygon class="cls-1" points="82.38 53.1 81.6 51.79 82.17 50.51 80.89 48.11 81.03 16.85 89.18 16.85 89.35 28.84 91.43 32.05 91.61 35.07 91.61 36.77 94.83 37.91 98.6 42.25 99.55 44.71 103.14 45.27 102.38 49.24 101.81 51.88 102.76 53.39 101.25 55.47 101.81 56.41 101.06 58.49 104.84 57.93 105.97 55.85 107.29 57.93 108.23 58.11 107.86 60.38 109.56 63.03 110.5 64.73 109.93 66.43 112.01 66.24 112.96 66.24 113.71 69.83 114.84 71.71 116.54 70.2 118.81 70.77 119.19 69.07 120.7 70.01 122.4 69.45 123.53 69.83 125.99 69.83 125.61 68.13 127.31 66.99 129.63 70.03 129.63 98.39 105.26 98.39 81.18 98.39 81.18 78.85 81.89 76.44 82.31 74.6 81.74 73.04 79.62 73.04 80.89 67.51 82.59 66.24 82.88 64.25 85.99 56.46 83.44 54.9 82.38 53.1"/><polygon class="cls-4" points="81.18 98.39 105.26 98.39 105.26 151.09 105.26 159.17 104.13 160.44 102.57 159.17 100.3 160.02 100.73 162.14 100.44 164.69 101.15 169.08 100.81 170.89 57.05 130.17 57.05 98.39 81.18 98.39"/><path class="cls-1" d="m102.85,176.02l1.84,2.27s-2.69,1.56-2.83,3.12c-.14,1.56,0,2.97-.42,3.68-.42.71-1.56,1.7-1.56,1.7l.57,3.4c1.27-.14,2.27.57,1.84,1.27s-2.27,1.79-2.27,1.79l-19.6,2.13-.02-.1s-.12-1.09-.59-1.75c-.47-.66-1.13-4.44-1.96-5.55-.83-1.11-3.61-4.46-6.07-4.46s-1.79-1.04-1.89-2.17c-.1-1.13-.95-.57-3.5-.94-2.55-.38-3.87-2.55-4.53-3.02-.66-.47-3.87-.75-5.05-.87-1.18-.12-3.07-.26-4.18-.85s-.59-3.47-.78-4.89q-.19-1.42-1.49-1.56c-1.3-.14-.31-.99-.42-2.12-.12-1.13-1.2-.09-1.49-1.2-.28-1.11-1.23-1.16-2.17-2.48-.94-1.32-1.23-.94-1.51-2.36-.28-1.42-2.55-2.93-3.49-4.25-.95-1.32-.28-1.89.59-2.24.87-.35.35.26.26-1.82-.1-2.08-1.32-1.51-2.39-1.65-1.06-.14-1.68-.9-2.05-1.94-.38-1.04-.57-1.98-1.04-2.55-.47-.57-.19-1.98.1-3.31.28-1.32.94-.19,1.04.28.1.47.19,1.42,1.32,1.89,1.13.47.76-.1.66-.66-.09-.57-1.6-2.55-1.79-3.12-.19-.57,0-1.42.66-1.6.66-.19,2.55.66,4.06.75,1.51.1.19-1.13-.19-1.16-.38-.02-2.55.21-4.06-.16-1.51-.38-1.23.19-1.23,1.89s-1.51.38-2.36-.38c-.85-.76-1.7-1.23-1.77-2.2-.07-.97-1.25-1.77-1.35-2.71-.09-.95-.85-.95-1.7-1.23-.85-.28-2.55-2.74-3.26-3.85-.71-1.11-.05-1.91-.42-3.61-.38-1.7.09-3.02-.14-4.82s-3.26-4.34-4.39-5.01c-1.13-.66-.57-2.08-.64-3.07-.07-.99,1.11-2.78,1.86-3.92.76-1.13.19-2.17.47-3.24.28-1.06.28-3.85.14-5.52-.14-1.68-.9-1.54-.9-2.39,0-.5-.03-.67-.29-1.09h34.58v31.78l43.76,40.72-.22,1.17,1.27,1.7.99,2.27Z"/><path class="cls-7" d="m57.05,98.39H22.47c-.18-.28-.47-.67-.93-1.37-1.13-1.7-.09-4.35-.94-6.05-.85-1.7-.38-2.27-.05-3.35.33-1.09-.05-.99.71-2.69.76-1.7,1.13-2.36,1.35-2.83s1.01-8.12,1.2-11.05c.19-2.93,1.42-14.17,1.04-15.49-.38-1.32,0-1.98-.05-2.64-.05-.66-.05-1.42-.07-2.41-.02-.99.69.14,1.56.07.87-.07,1.01.07,2.34-.07,1.32-.14,1.13.8,2.08.8.18,0,.25-.02.26-.05l1.16-.23,1.13.57,1.32,2.46.47,2.83,2.55,1.04,4.06-1.04,1.51-.76,3.5.19,1.23.85,3.59-.94,2.74.19,6.33-2.74h3.59l1.23-.85,17.02.27,1.07,1.8,2.55,1.56-3.12,7.79-.28,1.98-1.7,1.27-1.27,5.52h2.12l.57,1.56-.42,1.84-.71,2.41v19.55h-24.13Z"/><path class="cls-5" d="m82.38,53.1l-17.02-.27-1.23.85h-3.59l-6.33,2.74-2.74-.19-3.59.94-1.23-.85-3.5-.19-1.51.76-4.06,1.04-2.55-1.04-.47-2.83-1.32-2.46-1.13-.57-1.16.23c.03-.14-1.28-.53-1.2-.61.09-.09-1.89-.94-2.36-.76-.47.19-2.83-.19-3.4-.85l-.05-3.73s.28-1.09.38.52c.1,1.61.28,2.6.42,2.6s.05-.99.24-1.42c.19-.43.19-1.23.19-1.65s.95-.71.95-.71c0,0-.14-.66-1.23-.38-1.09.28-1.04-.19-1.18-.8-.14-.61-.66-1.09.24-1.18.9-.09,1.79-.66,1.79-.66,0,0-.47-.1-.75-.33-.28-.24-.47-.94-1.18-.61-.71.33-.94.1-.94-.8s.09-1.98-.66-2.93c-.75-.95-.33-3.97-1.09-5.05-.76-1.09-2.31-1.42-2.22-3.21l.19-5.52s-.38-.38,2.93,1.13c3.3,1.51,7.46,1.61,8.5,1.32,1.04-.28,1.32-1.89,1.32-1.89l-1.6-3.4,2.27-.57.09-.94-2.55-1.98h50.99l-.14,31.26,1.27,2.41-.57,1.27.78,1.31Z"/><path class="cls-2" d="m222.92,207.45v.27h-.71v2.26h-.28v-2.26h-.71v-.27h1.71Z"/><path class="cls-2" d="m224.76,207.45v.27h-1.12v.83h.89v.27h-.89v.9h1.12v.27h-1.4v-2.52h1.4Z"/><path class="cls-2" d="m225.48,207.45l.54,1.02.54-1.02h.31l-.68,1.24.7,1.28h-.31l-.56-1.05-.56,1.05h-.31l.7-1.28-.68-1.24h.31Z"/><path class="cls-2" d="m227.96,207.45h.23l.86,2.52h-.3l-.2-.63h-.96l-.2.63h-.3l.86-2.52Zm.11.39l-.39,1.24h.79l-.39-1.24Z"/><path class="cls-2" d="m230.72,207.64l-.14.23c-.14-.11-.34-.17-.54-.17-.34,0-.47.19-.47.37,0,.11.06.22.15.3.09.08.24.12.36.16.17.05.35.1.51.24.13.11.25.31.25.53,0,.34-.27.71-.81.71-.27,0-.53-.08-.75-.26l.16-.22c.17.14.38.21.59.21.38,0,.53-.24.53-.44,0-.12-.06-.25-.17-.34-.1-.09-.26-.13-.43-.19-.14-.04-.29-.08-.44-.21-.13-.11-.24-.29-.24-.48,0-.36.28-.65.75-.65.25,0,.5.08.68.21Z"/><path class="cls-2" d="m278.8,212.92v2.26h1.05v.27h-1.33v-2.52h.28Z"/><path class="cls-2" d="m280.32,213.27c.14-.23.41-.38.72-.38s.58.14.72.38c.14.22.14.46.14.91s0,.69-.14.91c-.14.23-.41.38-.72.38s-.58-.14-.72-.38c-.14-.22-.14-.46-.14-.91s0-.69.14-.91Zm.24,1.69c.09.15.27.24.48.24s.39-.09.48-.24c.1-.16.1-.39.1-.78s0-.61-.1-.78c-.09-.15-.27-.24-.48-.24s-.39.09-.48.24c-.1.16-.1.39-.1.78s0,.61.1.78Z"/><path class="cls-2" d="m282.69,212.92v1.47c0,.31,0,.52.13.66.09.1.23.15.38.15s.28-.05.37-.15c.13-.14.13-.36.13-.66v-1.47h.28v1.47c0,.34,0,.61-.2.84-.14.16-.35.24-.59.24s-.45-.09-.59-.24c-.2-.22-.2-.5-.2-.84v-1.47h.28Z"/><path class="cls-2" d="m284.8,215.44h-.28v-2.52h.28v2.52Z"/><path class="cls-2" d="m286.7,213.11l-.14.23c-.14-.11-.34-.17-.54-.17-.34,0-.47.19-.47.37,0,.11.06.22.15.3.09.08.24.12.36.16.17.05.35.1.51.24.13.11.25.31.25.53,0,.34-.27.71-.81.71-.26,0-.53-.08-.75-.26l.16-.22c.17.14.38.21.59.21.38,0,.53-.24.53-.44,0-.12-.06-.25-.17-.34-.1-.09-.26-.13-.43-.19-.14-.04-.29-.08-.44-.21-.13-.11-.24-.29-.24-.48,0-.36.28-.65.75-.65.25,0,.5.08.68.21Z"/><path class="cls-2" d="m287.58,215.44h-.28v-2.52h.28v2.52Z"/><path class="cls-2" d="m288.78,212.92h.23l.86,2.52h-.3l-.2-.63h-.96l-.2.63h-.3l.86-2.52Zm.11.39l-.39,1.24h.79l-.39-1.24Z"/><path class="cls-2" d="m290.45,212.92l1.14,1.97v-1.97h.28v2.52h-.25l-1.14-1.97v1.97h-.28v-2.52h.25Z"/><path class="cls-2" d="m293.07,212.92h.23l.86,2.52h-.3l-.2-.63h-.96l-.2.63h-.3l.86-2.52Zm.11.39l-.39,1.24h.79l-.39-1.24Z"/><path class="cls-6" d="m295.58,188.12l.8,1.57.79-1.57h.25v2.52h-.28v-1.9l-.64,1.28h-.24l-.64-1.27v1.9h-.28v-2.52h.25Z"/><path class="cls-6" d="m298.26,190.64h-.28v-2.52h.28v2.52Z"/><path class="cls-6" d="m300.16,188.31l-.14.23c-.14-.11-.34-.17-.54-.17-.34,0-.47.19-.47.37,0,.11.06.22.15.3.09.08.24.12.36.16.17.05.35.1.51.24.13.11.25.31.25.53,0,.34-.27.71-.81.71-.26,0-.53-.08-.75-.26l.16-.22c.17.14.38.21.59.21.38,0,.53-.24.53-.44,0-.12-.06-.25-.17-.34-.1-.09-.26-.13-.43-.19-.14-.04-.29-.08-.44-.21-.13-.11-.24-.29-.24-.48,0-.36.28-.65.75-.65.25,0,.5.08.68.21Z"/><path class="cls-6" d="m301.98,188.31l-.14.23c-.14-.11-.34-.17-.54-.17-.34,0-.47.19-.47.37,0,.11.06.22.15.3.09.08.24.12.36.16.17.05.35.1.51.24.13.11.25.31.25.53,0,.34-.27.71-.81.71-.26,0-.53-.08-.75-.26l.16-.22c.17.14.38.21.59.21.38,0,.53-.24.53-.44,0-.12-.06-.25-.17-.34-.1-.09-.26-.13-.43-.19-.14-.04-.29-.08-.44-.21-.13-.11-.24-.29-.24-.48,0-.36.28-.65.75-.65.25,0,.5.08.68.21Z"/><path class="cls-6" d="m302.85,190.64h-.28v-2.52h.28v2.52Z"/><path class="cls-6" d="m304.75,188.31l-.14.23c-.14-.11-.34-.17-.54-.17-.34,0-.47.19-.47.37,0,.11.06.22.15.3.09.08.24.12.36.16.17.05.35.1.51.24.13.11.25.31.25.53,0,.34-.27.71-.81.71-.26,0-.53-.08-.75-.26l.16-.22c.17.14.38.21.59.21.38,0,.53-.24.53-.44,0-.12-.06-.25-.17-.34-.1-.09-.26-.13-.43-.19-.14-.04-.29-.08-.44-.21-.13-.11-.24-.29-.24-.48,0-.36.28-.65.75-.65.25,0,.5.08.68.21Z"/><path class="cls-6" d="m306.57,188.31l-.14.23c-.14-.11-.34-.17-.54-.17-.34,0-.47.19-.47.37,0,.11.06.22.15.3.09.08.24.12.36.16.17.05.35.1.51.24.13.11.25.31.25.53,0,.34-.27.71-.81.71-.26,0-.53-.08-.75-.26l.16-.22c.17.14.38.21.59.21.38,0,.53-.24.53-.44,0-.12-.06-.25-.17-.34-.1-.09-.26-.13-.43-.19-.14-.04-.29-.08-.44-.21-.13-.11-.24-.29-.24-.48,0-.36.28-.65.75-.65.25,0,.5.08.68.21Z"/><path class="cls-6" d="m307.44,190.64h-.28v-2.52h.28v2.52Z"/><path class="cls-6" d="m308.46,188.12c.3,0,.58,0,.81.21.19.17.25.41.25.61s-.07.44-.25.61c-.23.21-.51.21-.81.21h-.17v.89h-.28v-2.52h.45Zm-.17,1.36h.17c.28,0,.47,0,.61-.13.1-.09.17-.24.17-.42s-.07-.33-.17-.42c-.15-.13-.33-.13-.61-.13h-.17v1.1Z"/><path class="cls-6" d="m310.45,188.12c.3,0,.58,0,.81.21.19.17.25.41.25.61s-.07.44-.25.61c-.23.21-.51.21-.81.21h-.17v.89h-.28v-2.52h.45Zm-.17,1.36h.17c.28,0,.47,0,.61-.13.1-.09.17-.24.17-.42s-.07-.33-.17-.42c-.15-.13-.33-.13-.61-.13h-.17v1.1Z"/><path class="cls-6" d="m312.26,190.64h-.28v-2.52h.28v2.52Z"/><path class="cls-2" d="m273.58,169.52h.23l.86,2.52h-.3l-.2-.63h-.96l-.2.63h-.3l.86-2.52Zm.11.39l-.39,1.24h.79l-.39-1.24Z"/><path class="cls-2" d="m275.51,169.52c.3,0,.58,0,.8.21.14.13.23.33.23.57,0,.33-.17.58-.41.69l.45,1.06h-.3l-.41-.98c-.08.01-.17.01-.36.01h-.22v.97h-.28v-2.53h.5Zm-.22,1.29h.22c.28,0,.46,0,.6-.13.1-.09.15-.24.15-.38s-.05-.29-.15-.38c-.14-.13-.32-.13-.6-.13h-.22v1.02Z"/><path class="cls-2" d="m278.41,172.04l-.81-1.12-.28.39v.73h-.28v-2.52h.28v1.41l1.02-1.41h.33l-.88,1.21.96,1.32h-.34Z"/><path class="cls-2" d="m279.82,169.52h.23l.86,2.52h-.3l-.2-.63h-.96l-.2.63h-.3l.86-2.52Zm.11.39l-.39,1.24h.79l-.39-1.24Z"/><path class="cls-2" d="m281.49,169.52l1.14,1.97v-1.97h.28v2.52h-.25l-1.14-1.97v1.97h-.28v-2.52h.25Z"/><path class="cls-2" d="m284.81,169.71l-.14.23c-.14-.11-.34-.17-.54-.17-.34,0-.47.19-.47.37,0,.11.06.22.15.3.09.08.24.12.36.16.17.05.35.1.51.24.13.11.25.31.25.53,0,.34-.27.71-.81.71-.26,0-.53-.08-.75-.26l.16-.22c.17.14.38.21.59.21.38,0,.53-.24.53-.44,0-.12-.06-.25-.17-.34-.1-.09-.26-.13-.43-.19-.14-.04-.29-.08-.44-.21-.13-.11-.24-.29-.24-.48,0-.36.28-.65.75-.65.25,0,.5.08.68.21Z"/><path class="cls-2" d="m286,169.52h.23l.86,2.52h-.3l-.2-.63h-.96l-.2.63h-.3l.86-2.52Zm.11.39l-.39,1.24h.79l-.39-1.24Z"/><path class="cls-2" d="m288.76,169.71l-.14.23c-.14-.11-.34-.17-.54-.17-.34,0-.47.19-.47.37,0,.11.06.22.15.3.09.08.24.12.36.16.17.05.35.1.51.24.13.11.25.31.25.53,0,.34-.26.71-.81.71-.26,0-.53-.08-.75-.26l.16-.22c.17.14.38.21.59.21.38,0,.53-.24.53-.44,0-.12-.06-.25-.17-.34-.1-.09-.26-.13-.43-.19-.14-.04-.29-.08-.44-.21-.13-.11-.24-.29-.24-.48,0-.36.28-.65.75-.65.25,0,.5.08.68.21Z"/><path class="cls-2" d="m233.11,164.83c.14-.23.41-.38.72-.38s.58.14.72.38c.14.22.14.46.14.91s0,.69-.14.91c-.14.23-.41.38-.72.38s-.58-.14-.72-.38c-.14-.22-.14-.46-.14-.91s0-.69.14-.91Zm.24,1.69c.09.15.27.24.48.24s.39-.09.48-.24c.1-.16.1-.39.1-.78s0-.61-.1-.78c-.09-.15-.27-.24-.48-.24s-.39.09-.48.24c-.1.16-.1.39-.1.78s0,.61.1.78Z"/><path class="cls-2" d="m236.59,167l-.81-1.12-.28.39v.73h-.28v-2.52h.28v1.41l1.02-1.41h.33l-.88,1.21.96,1.32h-.34Z"/><path class="cls-2" d="m237.64,164.47v2.26h1.05v.27h-1.33v-2.52h.28Z"/><path class="cls-2" d="m239.81,164.47h.23l.86,2.52h-.3l-.2-.63h-.96l-.2.63h-.3l.86-2.52Zm.11.39l-.39,1.24h.79l-.39-1.24Z"/><path class="cls-2" d="m241.51,164.47v1.09h1.11v-1.09h.28v2.52h-.28v-1.17h-1.11v1.17h-.28v-2.52h.28Z"/><path class="cls-2" d="m243.56,164.83c.14-.23.41-.38.72-.38s.58.14.72.38c.14.22.14.46.14.91s0,.69-.14.91c-.14.23-.41.38-.72.38s-.58-.14-.72-.38c-.14-.22-.14-.46-.14-.91s0-.69.14-.91Zm.24,1.69c.09.15.27.24.48.24s.39-.09.48-.24c.1-.16.1-.39.1-.78s0-.61-.1-.78c-.09-.15-.27-.24-.48-.24s-.39.09-.48.24c-.1.16-.1.39-.1.78s0,.61.1.78Z"/><path class="cls-2" d="m245.92,164.47l.8,1.57.79-1.57h.25v2.52h-.28v-1.9l-.64,1.28h-.24l-.64-1.27v1.9h-.28v-2.52h.25Z"/><path class="cls-2" d="m248.96,164.47h.23l.86,2.52h-.3l-.2-.63h-.96l-.2.63h-.3l.86-2.52Zm.11.39l-.39,1.24h.79l-.39-1.24Z"/><path class="cls-2" d="m119.73,178.77h.23l.86,2.52h-.3l-.2-.63h-.95l-.2.63h-.3l.86-2.52Zm.11.39l-.39,1.24h.79l-.39-1.24Z"/><path class="cls-2" d="m121.66,178.77c.3,0,.58,0,.8.21.14.13.23.33.23.57,0,.33-.17.58-.41.69l.45,1.06h-.3l-.41-.98c-.08.01-.17.01-.36.01h-.22v.97h-.28v-2.53h.5Zm-.22,1.29h.22c.28,0,.46,0,.6-.13.1-.09.15-.24.15-.38s-.05-.29-.15-.38c-.14-.13-.32-.13-.6-.13h-.22v1.02Z"/><path class="cls-2" d="m123.48,181.29h-.28v-2.52h.28v2.52Z"/><path class="cls-2" d="m125.51,178.77v.19l-1.19,2.07h1.22v.27h-1.55v-.19l1.18-2.07h-1.14v-.27h1.48Z"/><path class="cls-2" d="m126.08,179.12c.14-.23.41-.38.72-.38s.58.14.72.38c.14.22.14.46.14.91s0,.69-.14.91c-.14.23-.41.38-.72.38s-.58-.14-.72-.38c-.14-.22-.14-.46-.14-.91s0-.69.14-.91Zm.24,1.69c.09.15.27.24.48.24s.39-.09.48-.24c.1-.16.1-.39.1-.78s0-.61-.1-.78c-.09-.15-.27-.24-.48-.24s-.39.09-.48.24c-.1.16-.1.39-.1.78s0,.61.1.78Z"/><path class="cls-2" d="m128.43,178.77l1.14,1.97v-1.97h.28v2.52h-.25l-1.14-1.97v1.97h-.28v-2.52h.25Z"/><path class="cls-2" d="m131.05,178.77h.23l.86,2.52h-.3l-.2-.63h-.96l-.2.63h-.3l.86-2.52Zm.11.39l-.39,1.24h.79l-.39-1.24Z"/><path class="cls-6" d="m64.67,164.28l-.17.21c-.11-.11-.28-.2-.49-.2-.19,0-.34.07-.44.19-.14.17-.14.39-.14.83s0,.65.13.83c.09.12.24.19.44.19.22,0,.41-.09.52-.22l.19.19c-.16.17-.42.3-.72.3s-.53-.13-.67-.3c-.19-.24-.19-.51-.19-.98s0-.74.19-.99c.13-.17.36-.3.66-.3.27,0,.51.11.66.25Z"/><path class="cls-6" d="m65.85,164.05h.23l.86,2.52h-.3l-.2-.63h-.95l-.2.63h-.3l.86-2.52Zm.11.39l-.39,1.24h.79l-.39-1.24Z"/><path class="cls-6" d="m67.55,164.05v2.26h1.05v.27h-1.33v-2.52h.28Z"/><path class="cls-6" d="m69.37,166.58h-.28v-2.52h.28v2.52Z"/><path class="cls-6" d="m71.3,164.05v.27h-1.08v.83h.89v.27h-.89v1.17h-.28v-2.52h1.36Z"/><path class="cls-6" d="m71.81,164.41c.14-.23.41-.38.72-.38s.58.14.72.38c.14.22.14.46.14.91s0,.69-.14.91c-.14.23-.41.38-.72.38s-.58-.14-.72-.38c-.14-.22-.14-.46-.14-.91s0-.69.14-.91Zm.24,1.69c.09.15.27.24.48.24s.39-.09.48-.24c.1-.16.1-.39.1-.78s0-.61-.1-.78c-.09-.15-.27-.24-.48-.24s-.39.09-.48.24c-.1.16-.1.39-.1.78s0,.61.1.78Z"/><path class="cls-6" d="m74.43,164.05c.3,0,.58,0,.8.21.14.13.23.33.23.57,0,.33-.17.58-.41.69l.45,1.06h-.3l-.41-.98c-.08.01-.17.01-.36.01h-.22v.97h-.28v-2.53h.5Zm-.22,1.29h.22c.28,0,.46,0,.6-.13.1-.09.15-.24.15-.38s-.05-.29-.15-.38c-.14-.13-.32-.13-.6-.13h-.22v1.02Z"/><path class="cls-6" d="m76.21,164.05l1.14,1.97v-1.97h.28v2.52h-.25l-1.14-1.97v1.97h-.28v-2.52h.25Z"/><path class="cls-6" d="m78.48,166.58h-.28v-2.52h.28v2.52Z"/><path class="cls-6" d="m79.68,164.05h.23l.86,2.52h-.3l-.2-.63h-.96l-.2.63h-.3l.86-2.52Zm.11.39l-.39,1.24h.79l-.39-1.24Z"/><path class="cls-2" d="m76.05,121.18l1.14,1.97v-1.97h.28v2.52h-.25l-1.14-1.97v1.97h-.28v-2.52h.25Z"/><path class="cls-2" d="m79.44,121.18v.27h-1.12v.83h.89v.27h-.89v.9h1.12v.27h-1.4v-2.52h1.4Z"/><path class="cls-2" d="m80.63,123.7l-.81-2.52h.29l.65,2.12.65-2.12h.29l-.81,2.52h-.27Z"/><path class="cls-2" d="m82.37,121.18h.23l.86,2.52h-.3l-.2-.63h-.96l-.2.63h-.3l.86-2.52Zm.11.39l-.39,1.24h.79l-.39-1.24Z"/><path class="cls-2" d="m84.21,121.18c.33,0,.66,0,.92.26.26.26.26.58.26,1s0,.74-.26,1c-.26.26-.59.26-.92.26h-.41v-2.52h.41Zm-.13,2.26h.13c.3,0,.54,0,.72-.18s.18-.42.18-.82,0-.64-.18-.82c-.18-.18-.42-.18-.72-.18h-.13v1.99Z"/><path class="cls-2" d="m86.43,121.18h.23l.86,2.52h-.3l-.2-.63h-.96l-.2.63h-.3l.86-2.52Zm.11.39l-.39,1.24h.79l-.39-1.24Z"/><path class="cls-2" d="m47.22,76.13c.14-.23.41-.38.72-.38s.58.14.72.38c.14.22.14.46.14.91s0,.69-.14.91c-.14.23-.41.38-.72.38s-.58-.14-.72-.38c-.14-.22-.14-.46-.14-.91s0-.69.14-.91Zm.24,1.69c.09.15.27.24.48.24s.39-.09.48-.24c.1-.16.1-.39.1-.78s0-.61-.1-.78c-.09-.15-.27-.24-.48-.24s-.39.09-.48.24c-.1.16-.1.39-.1.78s0,.61.1.78Z"/><path class="cls-2" d="m49.83,75.78c.3,0,.58,0,.8.21.14.13.23.33.23.57,0,.33-.17.58-.41.69l.45,1.06h-.3l-.41-.98c-.08.01-.17.01-.36.01h-.22v.97h-.28v-2.53h.5Zm-.22,1.29h.22c.28,0,.46,0,.6-.13.1-.09.15-.24.15-.38s-.05-.29-.15-.38c-.14-.13-.32-.13-.6-.13h-.22v1.02Z"/><path class="cls-2" d="m52.77,75.78v.27h-1.12v.83h.89v.27h-.89v.9h1.12v.27h-1.4v-2.52h1.4Z"/><path class="cls-2" d="m54.74,76.01l-.17.21c-.11-.11-.28-.2-.49-.2-.19,0-.34.07-.44.19-.14.17-.14.39-.14.83s0,.65.13.83c.09.12.24.19.44.19s.35-.08.44-.19c.11-.15.13-.33.13-.65h-.52v-.27h.8c0,.56,0,.83-.19,1.07-.14.18-.36.3-.67.3s-.53-.13-.67-.3c-.19-.24-.19-.51-.19-.98s0-.74.19-.99c.13-.17.36-.3.66-.3.27,0,.51.11.66.25Z"/><path class="cls-2" d="m55.55,76.13c.14-.23.41-.38.72-.38s.58.14.72.38c.14.22.14.46.14.91s0,.69-.14.91c-.14.23-.41.38-.72.38s-.58-.14-.72-.38c-.14-.22-.14-.46-.14-.91s0-.69.14-.91Zm.24,1.69c.09.15.27.24.48.24s.39-.09.48-.24c.1-.16.1-.39.1-.78s0-.61-.1-.78c-.09-.15-.27-.24-.48-.24s-.39.09-.48.24c-.1.16-.1.39-.1.78s0,.61.1.78Z"/><path class="cls-2" d="m57.91,75.78l1.14,1.97v-1.97h.28v2.52h-.25l-1.14-1.97v1.97h-.28v-2.52h.25Z"/><path class="cls-2" d="m47.16,37.12l.4-2.01h.28l-.53,2.52h-.22l-.47-1.46-.47,1.46h-.22l-.53-2.52h.28l.41,2.01.44-1.38h.2l.45,1.38Z"/><path class="cls-2" d="m48.63,35.11h.23l.86,2.52h-.3l-.2-.63h-.95l-.2.63h-.3l.86-2.52Zm.11.39l-.39,1.24h.79l-.39-1.24Z"/><path class="cls-2" d="m51.39,35.3l-.14.23c-.14-.11-.34-.17-.54-.17-.34,0-.47.19-.47.37,0,.11.06.22.15.3.09.08.24.12.36.16.17.05.35.1.51.24.13.11.25.31.25.53,0,.34-.27.71-.81.71-.27,0-.53-.08-.75-.26l.16-.22c.17.14.38.21.6.21.38,0,.53-.24.53-.44,0-.12-.06-.25-.17-.34-.1-.09-.26-.13-.43-.19-.14-.04-.29-.08-.44-.21-.13-.11-.24-.29-.24-.48,0-.36.28-.65.75-.65.25,0,.5.08.68.21Z"/><path class="cls-2" d="m52.27,35.11v1.09h1.11v-1.09h.28v2.52h-.28v-1.17h-1.11v1.17h-.28v-2.52h.28Z"/><path class="cls-2" d="m54.5,37.64h-.28v-2.52h.28v2.52Z"/><path class="cls-2" d="m55.31,35.11l1.14,1.97v-1.97h.28v2.52h-.25l-1.14-1.97v1.97h-.28v-2.52h.25Z"/><path class="cls-2" d="m58.78,35.34l-.17.21c-.11-.11-.28-.2-.49-.2-.19,0-.34.07-.44.19-.14.17-.14.39-.14.83s0,.65.13.83c.09.12.24.19.44.19s.35-.08.44-.19c.11-.15.13-.33.13-.65h-.52v-.27h.8c0,.56,0,.83-.19,1.07-.14.18-.36.3-.67.3s-.53-.13-.67-.3c-.19-.24-.19-.51-.19-.98s0-.74.19-.99c.13-.17.36-.3.66-.3.27,0,.51.11.66.25Z"/><path class="cls-2" d="m60.92,35.11v.27h-.71v2.26h-.28v-2.26h-.71v-.27h1.71Z"/><path class="cls-2" d="m61.33,35.47c.14-.23.41-.38.72-.38s.58.14.72.38c.14.22.14.46.14.91s0,.69-.14.91c-.14.23-.41.38-.72.38s-.58-.14-.72-.38c-.14-.22-.14-.46-.14-.91s0-.69.14-.91Zm.24,1.69c.09.15.27.24.48.24s.39-.09.48-.24c.1-.16.1-.39.1-.78s0-.61-.1-.78c-.09-.15-.27-.24-.48-.24s-.39.09-.48.24c-.1.16-.1.39-.1.78s0,.61.1.78Z"/><path class="cls-2" d="m63.69,35.11l1.14,1.97v-1.97h.28v2.52h-.25l-1.14-1.97v1.97h-.28v-2.52h.25Z"/><path class="cls-2" d="m135.32,35.11l.8,1.57.79-1.57h.25v2.52h-.28v-1.9l-.64,1.28h-.24l-.64-1.27v1.9h-.28v-2.52h.25Z"/><path class="cls-2" d="m137.82,35.47c.14-.23.41-.38.72-.38s.58.14.72.38c.14.22.14.46.14.91s0,.69-.14.91c-.14.23-.41.38-.72.38s-.58-.14-.72-.38c-.14-.22-.14-.46-.14-.91s0-.69.14-.91Zm.24,1.69c.09.15.27.24.48.24s.39-.09.48-.24c.1-.16.1-.39.1-.78s0-.61-.1-.78c-.09-.15-.27-.24-.48-.24s-.39.09-.48.24c-.1.16-.1.39-.1.78s0,.61.1.78Z"/><path class="cls-2" d="m140.18,35.11l1.14,1.97v-1.97h.28v2.52h-.25l-1.14-1.97v1.97h-.28v-2.52h.25Z"/><path class="cls-2" d="m143.74,35.11v.27h-.71v2.26h-.28v-2.26h-.71v-.27h1.71Z"/><path class="cls-2" d="m144.42,35.11h.23l.86,2.52h-.3l-.2-.63h-.96l-.2.63h-.3l.86-2.52Zm.11.39l-.39,1.24h.79l-.39-1.24Z"/><path class="cls-2" d="m146.09,35.11l1.14,1.97v-1.97h.28v2.52h-.25l-1.14-1.97v1.97h-.28v-2.52h.25Z"/><path class="cls-2" d="m148.71,35.11h.23l.86,2.52h-.3l-.2-.63h-.96l-.2.63h-.3l.86-2.52Zm.11.39l-.39,1.24h.79l-.39-1.24Z"/><path class="cls-2" d="m153.08,87.88l.4-2.01h.28l-.53,2.52h-.22l-.47-1.46-.47,1.46h-.22l-.53-2.52h.28l.41,2.01.44-1.38h.2l.45,1.38Z"/><path class="cls-2" d="m154.25,85.87l.58,1.27.58-1.27h.31l-.75,1.58v.95h-.28v-.95l-.75-1.58h.31Z"/><path class="cls-2" d="m156.01,86.22c.14-.23.41-.38.72-.38s.58.14.72.38c.14.22.14.46.14.91s0,.69-.14.91c-.14.23-.41.38-.72.38s-.58-.14-.72-.38c-.14-.22-.14-.46-.14-.91s0-.69.14-.91Zm.24,1.69c.09.15.27.24.48.24s.39-.09.48-.24c.1-.16.1-.39.1-.78s0-.61-.1-.78c-.09-.15-.27-.24-.48-.24s-.39.09-.48.24c-.1.16-.1.39-.1.78s0,.61.1.78Z"/><path class="cls-2" d="m158.37,85.87l.8,1.57.79-1.57h.25v2.52h-.28v-1.9l-.64,1.28h-.24l-.64-1.27v1.9h-.28v-2.52h.25Z"/><path class="cls-2" d="m161.05,88.39h-.28v-2.52h.28v2.52Z"/><path class="cls-2" d="m161.86,85.87l1.14,1.97v-1.97h.28v2.52h-.25l-1.14-1.97v1.97h-.28v-2.52h.25Z"/><path class="cls-2" d="m165.33,86.1l-.17.21c-.11-.11-.28-.2-.49-.2-.19,0-.34.07-.44.19-.14.17-.14.39-.14.83s0,.65.13.83c.09.12.24.19.44.19s.35-.08.44-.19c.11-.15.13-.33.13-.65h-.52v-.27h.8c0,.56,0,.83-.19,1.07-.14.18-.36.3-.67.3s-.53-.13-.67-.3c-.19-.24-.19-.51-.19-.98s0-.74.19-.99c.13-.17.36-.3.66-.3.27,0,.51.11.66.25Z"/><path class="cls-2" d="m212.32,32.28l1.14,1.97v-1.97h.28v2.52h-.25l-1.14-1.97v1.97h-.28v-2.52h.25Z"/><path class="cls-2" d="m214.4,32.63c.14-.23.41-.38.72-.38s.58.14.72.38c.14.22.14.46.14.91s0,.69-.14.91c-.14.23-.41.38-.72.38s-.58-.14-.72-.38c-.14-.22-.14-.46-.14-.91s0-.69.14-.91Zm.24,1.69c.09.15.27.24.48.24s.39-.09.48-.24c.1-.16.1-.39.1-.78s0-.61-.1-.78c-.09-.15-.27-.24-.48-.24s-.39.09-.48.24c-.1.16-.1.39-.1.78s0,.61.1.78Z"/><path class="cls-2" d="m217.02,32.28c.3,0,.58,0,.8.21.14.13.23.33.23.57,0,.33-.17.58-.41.69l.45,1.06h-.3l-.41-.98c-.08.01-.17.01-.36.01h-.22v.97h-.28v-2.53h.5Zm-.22,1.29h.22c.28,0,.46,0,.6-.13.1-.09.15-.24.15-.38s-.05-.29-.15-.38c-.14-.13-.32-.13-.6-.13h-.22v1.02Z"/><path class="cls-2" d="m219.98,32.28v.27h-.71v2.26h-.28v-2.26h-.71v-.27h1.71Z"/><path class="cls-2" d="m220.69,32.28v1.09h1.11v-1.09h.28v2.52h-.28v-1.17h-1.11v1.17h-.28v-2.52h.28Z"/><path class="cls-2" d="m211.87,36.82c.33,0,.66,0,.92.26.26.26.26.58.26,1s0,.74-.26,1c-.26.26-.59.26-.92.26h-.41v-2.52h.41Zm-.13,2.26h.13c.3,0,.54,0,.72-.18.18-.18.18-.42.18-.82s0-.64-.18-.82-.42-.18-.72-.18h-.13v1.99Z"/><path class="cls-2" d="m214.1,36.82h.23l.86,2.52h-.3l-.2-.63h-.95l-.2.63h-.3l.86-2.52Zm.11.39l-.39,1.24h.79l-.39-1.24Z"/><path class="cls-2" d="m216.89,39.34l-.81-1.12-.28.39v.73h-.28v-2.52h.28v1.41l1.02-1.41h.33l-.88,1.21.95,1.32h-.34Z"/><path class="cls-2" d="m217.57,37.17c.14-.23.41-.37.72-.37s.58.14.72.37c.14.22.14.46.14.91s0,.69-.14.91c-.14.23-.41.38-.72.38s-.58-.14-.72-.38c-.14-.22-.14-.46-.14-.91s0-.69.14-.91Zm.24,1.69c.09.15.27.24.48.24s.39-.09.48-.24c.1-.16.1-.39.1-.78s0-.61-.1-.78c-.09-.15-.27-.24-.48-.24s-.39.09-.48.24c-.1.16-.1.39-.1.78s0,.61.1.78Z"/><path class="cls-2" d="m221.14,36.82v.27h-.71v2.26h-.28v-2.26h-.71v-.27h1.71Z"/><path class="cls-2" d="m221.83,36.82h.23l.86,2.52h-.3l-.2-.63h-.96l-.2.63h-.3l.86-2.52Zm.11.39l-.39,1.24h.79l-.39-1.24Z"/><path class="cls-6" d="m213.45,67.14l-.14.23c-.14-.11-.34-.17-.54-.17-.34,0-.47.19-.47.37,0,.11.06.22.15.3.09.08.24.12.36.16.17.05.35.1.51.24.13.11.25.31.25.53,0,.34-.27.71-.81.71-.27,0-.53-.08-.75-.26l.16-.22c.17.14.38.21.6.21.38,0,.53-.24.53-.44,0-.12-.06-.25-.17-.34-.1-.09-.26-.13-.43-.19-.14-.04-.29-.08-.44-.21-.13-.11-.23-.29-.23-.48,0-.36.28-.65.75-.65.25,0,.5.08.68.21Z"/><path class="cls-6" d="m214.15,67.31c.14-.23.41-.38.72-.38s.58.14.72.38c.14.22.14.46.14.91s0,.69-.14.91c-.14.23-.41.38-.72.38s-.58-.14-.72-.38c-.14-.22-.14-.46-.14-.91s0-.69.14-.91Zm.24,1.69c.09.15.27.24.48.24s.39-.09.48-.24c.1-.16.1-.39.1-.78s0-.61-.1-.78c-.09-.15-.27-.24-.48-.24s-.39.09-.48.24c-.1.16-.1.39-.1.78s0,.61.1.78Z"/><path class="cls-6" d="m216.52,66.95v1.47c0,.31,0,.52.13.66.09.1.23.15.38.15s.28-.05.37-.15c.13-.14.13-.36.13-.66v-1.47h.28v1.47c0,.34,0,.61-.2.84-.14.16-.35.24-.59.24s-.45-.09-.59-.24c-.2-.22-.2-.5-.2-.84v-1.47h.28Z"/><path class="cls-6" d="m219.93,66.95v.27h-.71v2.26h-.28v-2.26h-.71v-.27h1.71Z"/><path class="cls-6" d="m220.64,66.95v1.09h1.11v-1.09h.28v2.52h-.28v-1.17h-1.11v1.17h-.28v-2.52h.28Z"/><path class="cls-6" d="m211.87,71.49c.33,0,.66,0,.92.26.26.26.26.58.26,1s0,.74-.26,1c-.26.26-.59.26-.92.26h-.41v-2.52h.41Zm-.13,2.26h.13c.3,0,.54,0,.72-.18s.18-.42.18-.82,0-.64-.18-.82-.42-.18-.72-.18h-.13v1.99Z"/><path class="cls-6" d="m214.1,71.49h.23l.86,2.52h-.3l-.2-.63h-.95l-.2.63h-.3l.86-2.52Zm.11.39l-.39,1.24h.79l-.39-1.24Z"/><path class="cls-6" d="m216.89,74.02l-.81-1.12-.28.39v.73h-.28v-2.52h.28v1.41l1.02-1.41h.33l-.88,1.21.95,1.32h-.34Z"/><path class="cls-6" d="m217.57,71.85c.14-.23.41-.38.72-.38s.58.14.72.38c.14.22.14.46.14.91s0,.69-.14.91c-.14.23-.41.38-.72.38s-.58-.14-.72-.38c-.14-.22-.14-.46-.14-.91s0-.69.14-.91Zm.24,1.69c.09.15.27.24.48.24s.39-.09.48-.24c.1-.16.1-.39.1-.78s0-.61-.1-.78c-.09-.15-.27-.24-.48-.24s-.39.09-.48.24c-.1.16-.1.39-.1.78s0,.61.1.78Z"/><path class="cls-6" d="m221.14,71.49v.27h-.71v2.26h-.28v-2.26h-.71v-.27h1.71Z"/><path class="cls-6" d="m221.83,71.49h.23l.86,2.52h-.3l-.2-.63h-.96l-.2.63h-.3l.86-2.52Zm.11.39l-.39,1.24h.79l-.39-1.24Z"/><path class="cls-6" d="m100.68,84.93h-.28v-2.52h.28v2.52Z"/><path class="cls-6" d="m101.66,82.4c.33,0,.66,0,.92.26.26.26.26.58.26,1s0,.74-.26,1c-.26.26-.59.26-.92.26h-.41v-2.52h.41Zm-.13,2.26h.13c.3,0,.54,0,.72-.18.18-.18.18-.42.18-.82s0-.64-.18-.82c-.18-.18-.42-.18-.72-.18h-.13v1.99Z"/><path class="cls-6" d="m103.88,82.4h.23l.86,2.52h-.3l-.2-.63h-.96l-.2.63h-.3l.86-2.52Zm.11.39l-.39,1.24h.79l-.39-1.24Z"/><path class="cls-6" d="m105.59,82.4v1.09h1.11v-1.09h.28v2.52h-.28v-1.17h-1.11v1.17h-.28v-2.52h.28Z"/><path class="cls-6" d="m107.64,82.75c.14-.23.41-.38.72-.38s.58.14.72.38c.14.22.14.46.14.91s0,.69-.14.91c-.14.23-.41.38-.72.38s-.58-.14-.72-.38c-.14-.22-.14-.46-.14-.91s0-.69.14-.91Zm.24,1.69c.09.15.27.24.48.24s.39-.09.48-.24c.1-.16.1-.39.1-.78s0-.61-.1-.78c-.09-.15-.27-.24-.48-.24s-.39.09-.48.24c-.1.16-.1.39-.1.78s0,.61.1.78Z"/><path class="cls-2" d="m121.15,127.8v1.47c0,.31,0,.52.13.66.09.1.23.15.38.15s.28-.05.38-.15c.13-.14.13-.36.13-.66v-1.47h.28v1.47c0,.34,0,.61-.2.84-.14.16-.35.24-.59.24s-.45-.09-.59-.24c-.2-.22-.2-.5-.2-.84v-1.47h.28Z"/><path class="cls-2" d="m124.56,127.8v.27h-.71v2.26h-.28v-2.26h-.71v-.27h1.71Z"/><path class="cls-2" d="m125.24,127.8h.23l.86,2.52h-.3l-.2-.63h-.96l-.2.63h-.3l.86-2.52Zm.11.39l-.39,1.24h.79l-.39-1.24Z"/><path class="cls-2" d="m126.95,127.8v1.09h1.11v-1.09h.28v2.52h-.28v-1.17h-1.11v1.17h-.28v-2.52h.28Z"/><path class="cls-6" d="m168.71,128.98l-.17.21c-.11-.11-.28-.2-.49-.2-.19,0-.34.07-.44.19-.14.17-.14.39-.14.83s0,.65.13.83c.09.12.24.19.44.19.22,0,.41-.09.52-.22l.19.19c-.16.17-.42.3-.72.3s-.53-.12-.67-.3c-.19-.24-.19-.51-.19-.98s0-.74.19-.99c.13-.17.36-.3.66-.3.27,0,.51.11.66.25Z"/><path class="cls-6" d="m169.27,129.1c.14-.23.41-.38.72-.38s.58.14.72.38c.14.22.14.46.14.91s0,.69-.14.91c-.14.23-.41.38-.72.38s-.58-.14-.72-.38c-.14-.22-.14-.46-.14-.91s0-.69.14-.91Zm.24,1.69c.09.15.27.24.48.24s.39-.09.48-.24c.1-.16.1-.39.1-.78s0-.61-.1-.78c-.09-.15-.27-.24-.48-.24s-.39.09-.48.24c-.1.16-.1.39-.1.78s0,.61.1.78Z"/><path class="cls-6" d="m171.66,128.75v2.26h1.05v.27h-1.33v-2.52h.28Z"/><path class="cls-6" d="m173.18,129.1c.14-.23.41-.38.72-.38s.58.14.72.38c.14.22.14.46.14.91s0,.69-.14.91c-.14.23-.41.38-.72.38s-.58-.14-.72-.38c-.14-.22-.14-.46-.14-.91s0-.69.14-.91Zm.24,1.69c.09.15.27.24.48.24s.39-.09.48-.24c.1-.16.1-.39.1-.78s0-.61-.1-.78c-.09-.15-.27-.24-.48-.24s-.39.09-.48.24c-.1.16-.1.39-.1.78s0,.61.1.78Z"/><path class="cls-6" d="m175.8,128.75c.3,0,.58,0,.8.21.14.13.23.33.23.57,0,.33-.17.58-.41.69l.45,1.06h-.3l-.41-.98c-.08.01-.17.01-.36.01h-.22v.97h-.28v-2.53h.5Zm-.22,1.29h.22c.28,0,.46,0,.6-.13.1-.09.15-.24.15-.38s-.05-.29-.15-.38c-.14-.13-.32-.13-.6-.13h-.22v1.02Z"/><path class="cls-6" d="m177.97,128.75h.23l.86,2.52h-.3l-.2-.63h-.96l-.2.63h-.3l.86-2.52Zm.11.39l-.39,1.24h.79l-.39-1.24Z"/><path class="cls-6" d="m179.81,128.75c.33,0,.66,0,.92.26s.26.58.26,1,0,.74-.26,1c-.26.26-.59.26-.92.26h-.41v-2.52h.41Zm-.13,2.26h.13c.3,0,.54,0,.72-.18.18-.18.18-.42.18-.82s0-.64-.18-.82c-.18-.18-.42-.18-.72-.18h-.13v1.99Z"/><path class="cls-6" d="m181.61,129.1c.14-.23.41-.38.72-.38s.58.14.72.38c.14.22.14.46.14.91s0,.69-.14.91c-.14.23-.41.38-.72.38s-.58-.14-.72-.38c-.14-.22-.14-.46-.14-.91s0-.69.14-.91Zm.24,1.69c.09.15.27.24.48.24s.39-.09.48-.24c.1-.16.1-.39.1-.78s0-.61-.1-.78c-.09-.15-.27-.24-.48-.24s-.39.09-.48.24c-.1.16-.1.39-.1.78s0,.61.1.78Z"/><path class="cls-2" d="m228.5,136.31l-.81-1.12-.28.39v.73h-.28v-2.52h.28v1.41l1.02-1.41h.33l-.88,1.21.95,1.32h-.34Z"/><path class="cls-2" d="m229.9,133.79h.23l.86,2.52h-.3l-.2-.63h-.96l-.2.63h-.3l.86-2.52Zm.11.39l-.39,1.24h.79l-.39-1.24Z"/><path class="cls-2" d="m231.57,133.79l1.14,1.97v-1.97h.28v2.52h-.25l-1.14-1.97v1.97h-.28v-2.52h.25Z"/><path class="cls-2" d="m234.89,133.98l-.14.23c-.14-.11-.34-.17-.54-.17-.34,0-.47.19-.47.37,0,.11.06.22.15.3.09.08.24.12.36.16.17.05.35.1.51.24.13.11.25.31.25.53,0,.34-.27.71-.81.71-.27,0-.53-.08-.75-.26l.16-.22c.17.14.38.21.6.21.38,0,.53-.24.53-.44,0-.12-.06-.25-.17-.34-.1-.09-.26-.13-.43-.19-.14-.04-.29-.08-.44-.21-.13-.11-.23-.29-.23-.48,0-.36.28-.65.75-.65.25,0,.5.08.68.21Z"/><path class="cls-2" d="m236.08,133.79h.23l.86,2.52h-.3l-.2-.63h-.95l-.2.63h-.3l.86-2.52Zm.11.39l-.39,1.24h.79l-.39-1.24Z"/><path class="cls-2" d="m238.84,133.98l-.14.23c-.14-.11-.34-.17-.54-.17-.34,0-.47.19-.47.37,0,.11.06.22.15.3.09.08.24.12.36.16.17.05.35.1.51.24.13.11.25.31.25.53,0,.34-.27.71-.81.71-.27,0-.53-.08-.75-.26l.16-.22c.17.14.38.21.6.21.38,0,.53-.24.53-.44,0-.12-.06-.25-.17-.34-.1-.09-.26-.13-.43-.19-.14-.04-.29-.08-.44-.21-.13-.11-.24-.29-.24-.48,0-.36.28-.65.75-.65.25,0,.5.08.68.21Z"/><path class="cls-2" d="m216.03,102.58l1.14,1.97v-1.97h.28v2.52h-.25l-1.14-1.97v1.97h-.28v-2.52h.25Z"/><path class="cls-2" d="m219.41,102.58v.27h-1.12v.83h.89v.27h-.89v.9h1.12v.27h-1.4v-2.52h1.4Z"/><path class="cls-2" d="m221.18,102.73c.16.12.24.31.24.53,0,.23-.1.42-.28.53.22.11.35.33.35.6,0,.22-.08.39-.2.51-.21.2-.47.2-.75.2h-.6v-2.52h.56c.27,0,.48,0,.67.15Zm-.96.12v.83h.28c.26,0,.43,0,.54-.14.06-.08.09-.18.09-.28s-.03-.2-.09-.28c-.11-.14-.28-.14-.54-.14h-.28Zm0,1.09v.9h.32c.26,0,.43,0,.56-.13.06-.07.11-.18.11-.32s-.05-.25-.11-.32c-.13-.13-.3-.13-.56-.13h-.32Z"/><path class="cls-2" d="m222.49,102.58c.3,0,.58,0,.8.21.14.13.23.33.23.57,0,.33-.17.58-.41.69l.45,1.06h-.3l-.41-.98c-.08.01-.17.01-.36.01h-.22v.97h-.28v-2.53h.5Zm-.22,1.29h.22c.28,0,.46,0,.6-.13.1-.09.15-.24.15-.38s-.05-.29-.15-.38c-.14-.13-.32-.13-.6-.13h-.22v1.02Z"/><path class="cls-2" d="m224.66,102.58h.23l.86,2.52h-.3l-.2-.63h-.95l-.2.63h-.3l.86-2.52Zm.11.39l-.39,1.24h.79l-.39-1.24Z"/><path class="cls-2" d="m227.42,102.77l-.14.23c-.14-.11-.34-.17-.54-.17-.34,0-.47.19-.47.37,0,.11.06.22.15.3.09.08.24.12.36.16.17.05.35.1.51.24.13.11.25.31.25.53,0,.34-.27.71-.81.71-.27,0-.53-.08-.75-.26l.16-.22c.17.14.38.21.6.21.38,0,.53-.24.53-.44,0-.12-.06-.25-.17-.34-.1-.09-.26-.13-.43-.19-.14-.04-.29-.08-.44-.21-.13-.11-.23-.29-.23-.48,0-.36.28-.65.75-.65.25,0,.5.08.68.21Z"/><path class="cls-2" d="m229.38,105.1l-.81-1.12-.28.39v.73h-.28v-2.52h.28v1.41l1.02-1.41h.33l-.88,1.21.96,1.32h-.34Z"/><path class="cls-2" d="m230.78,102.58h.23l.86,2.52h-.3l-.2-.63h-.95l-.2.63h-.3l.86-2.52Zm.11.39l-.39,1.24h.79l-.39-1.24Z"/><path class="cls-6" d="m274.66,139.78l.8,1.57.79-1.57h.25v2.52h-.28v-1.9l-.64,1.28h-.24l-.64-1.27v1.9h-.28v-2.52h.25Z"/><path class="cls-6" d="m277.35,142.3h-.28v-2.52h.28v2.52Z"/><path class="cls-6" d="m279.25,139.97l-.14.23c-.14-.11-.34-.17-.54-.17-.34,0-.47.19-.47.37,0,.11.06.22.15.3.09.08.24.12.36.16.17.05.35.1.51.24.13.11.25.31.25.53,0,.34-.27.71-.81.71-.26,0-.53-.08-.75-.26l.16-.22c.17.14.38.21.59.21.38,0,.53-.24.53-.44,0-.12-.06-.25-.17-.34-.1-.09-.26-.13-.43-.19-.14-.04-.29-.08-.44-.21-.13-.11-.24-.29-.24-.48,0-.36.28-.65.75-.65.25,0,.5.08.68.21Z"/><path class="cls-6" d="m281.06,139.97l-.14.23c-.14-.11-.34-.17-.54-.17-.34,0-.47.19-.47.37,0,.11.06.22.15.3.09.08.24.12.36.16.17.05.35.1.51.24.13.11.25.31.25.53,0,.34-.27.71-.81.71-.26,0-.53-.08-.75-.26l.16-.22c.17.14.38.21.59.21.38,0,.53-.24.53-.44,0-.12-.06-.25-.17-.34-.1-.09-.26-.13-.43-.19-.14-.04-.29-.08-.44-.21-.13-.11-.24-.29-.24-.48,0-.36.28-.65.75-.65.25,0,.5.08.68.21Z"/><path class="cls-6" d="m281.76,140.13c.14-.23.41-.38.72-.38s.58.14.72.38c.14.22.14.46.14.91s0,.69-.14.91c-.14.23-.41.38-.72.38s-.58-.14-.72-.38c-.14-.22-.14-.46-.14-.91s0-.69.14-.91Zm.24,1.69c.09.15.27.24.48.24s.39-.09.48-.24c.1-.16.1-.39.1-.78s0-.61-.1-.78c-.09-.15-.27-.24-.48-.24s-.39.09-.48.24c-.1.16-.1.39-.1.78s0,.61.1.78Z"/><path class="cls-6" d="m284.13,139.78v1.47c0,.31,0,.52.13.66.09.1.23.15.37.15s.28-.05.38-.15c.13-.14.13-.36.13-.66v-1.47h.28v1.47c0,.34,0,.61-.2.84-.14.16-.35.24-.59.24s-.45-.09-.59-.24c-.2-.22-.2-.5-.2-.84v-1.47h.28Z"/><path class="cls-6" d="m286.47,139.78c.3,0,.58,0,.8.21.14.13.23.33.23.57,0,.33-.17.58-.41.69l.45,1.06h-.3l-.41-.98c-.08.01-.17.01-.36.01h-.22v.97h-.28v-2.53h.5Zm-.22,1.29h.22c.28,0,.46,0,.6-.13.1-.09.15-.24.15-.38s-.05-.29-.15-.38c-.14-.13-.32-.13-.6-.13h-.22v1.02Z"/><path class="cls-6" d="m288.29,142.3h-.28v-2.52h.28v2.52Z"/><path class="cls-2" d="m256.69,43.63l.8,1.57.79-1.57h.25v2.52h-.28v-1.9l-.64,1.28h-.24l-.64-1.27v1.9h-.28v-2.52h.25Z"/><path class="cls-2" d="m259.38,46.15h-.28v-2.52h.28v2.52Z"/><path class="cls-2" d="m260.19,43.63l1.14,1.97v-1.97h.28v2.52h-.25l-1.14-1.97v1.97h-.28v-2.52h.25Z"/><path class="cls-2" d="m262.42,43.63l1.14,1.97v-1.97h.28v2.52h-.25l-1.14-1.97v1.97h-.28v-2.52h.25Z"/><path class="cls-2" d="m265.81,43.63v.27h-1.12v.83h.89v.27h-.89v.9h1.12v.27h-1.4v-2.52h1.4Z"/><path class="cls-2" d="m267.6,43.82l-.14.23c-.14-.11-.34-.17-.54-.17-.34,0-.47.19-.47.37,0,.11.06.22.15.3.09.08.24.12.36.16.17.05.35.1.51.24.13.11.25.31.25.53,0,.34-.27.71-.81.71-.26,0-.53-.08-.75-.26l.16-.22c.17.14.38.21.59.21.38,0,.53-.24.53-.44,0-.12-.06-.25-.17-.34-.1-.09-.26-.13-.43-.19-.14-.04-.29-.08-.44-.21-.13-.11-.24-.29-.24-.48,0-.36.28-.65.75-.65.25,0,.5.08.68.21Z"/><path class="cls-2" d="m268.29,43.98c.14-.23.41-.37.72-.37s.58.14.72.37c.14.22.14.46.14.91s0,.69-.14.91c-.14.23-.41.38-.72.38s-.58-.14-.72-.38c-.14-.22-.14-.46-.14-.91s0-.69.14-.91Zm.24,1.69c.09.15.27.24.48.24s.39-.09.48-.24c.1-.16.1-.39.1-.78s0-.61-.1-.78c-.09-.15-.27-.24-.48-.24s-.39.09-.48.24c-.1.16-.1.39-.1.78s0,.61.1.78Z"/><path class="cls-2" d="m271.86,43.63v.27h-.71v2.26h-.28v-2.26h-.71v-.27h1.71Z"/><path class="cls-2" d="m272.55,43.63h.23l.86,2.52h-.3l-.2-.63h-.96l-.2.63h-.3l.86-2.52Zm.11.39l-.39,1.24h.79l-.39-1.24Z"/><path class="cls-2" d="m268.5,98.69h-.28v-2.52h.28v2.52Z"/><path class="cls-2" d="m269.16,96.52c.14-.23.41-.38.72-.38s.58.14.72.38c.14.22.14.46.14.91s0,.69-.14.91c-.14.23-.41.38-.72.38s-.58-.14-.72-.38c-.14-.22-.14-.46-.14-.91s0-.69.14-.91Zm.24,1.69c.09.15.27.24.48.24s.39-.09.48-.24c.1-.16.1-.39.1-.78s0-.61-.1-.78c-.09-.15-.27-.24-.48-.24s-.39.09-.48.24c-.1.16-.1.39-.1.78s0,.61.1.78Z"/><path class="cls-2" d="m272.85,98.18l.4-2.01h.28l-.53,2.52h-.22l-.47-1.46-.47,1.46h-.22l-.53-2.52h.28l.41,2.01.44-1.38h.2l.45,1.38Z"/><path class="cls-2" d="m274.33,96.17h.23l.86,2.52h-.3l-.2-.63h-.96l-.2.63h-.3l.86-2.52Zm.11.39l-.39,1.24h.79l-.39-1.24Z"/><path class="cls-6" d="m298.73,70.54l.4-2.01h.28l-.53,2.52h-.22l-.47-1.46-.47,1.46h-.22l-.53-2.52h.28l.41,2.01.44-1.38h.2l.45,1.38Z"/><path class="cls-6" d="m300.08,71.06h-.28v-2.52h.28v2.52Z"/><path class="cls-6" d="m301.98,68.72l-.14.23c-.14-.11-.34-.17-.54-.17-.34,0-.47.19-.47.37,0,.11.06.22.15.3.09.08.24.12.36.16.17.05.35.1.51.24.13.11.25.31.25.53,0,.34-.26.71-.81.71-.27,0-.54-.08-.76-.26l.16-.22c.17.14.38.21.6.21.38,0,.53-.24.53-.44,0-.12-.06-.25-.17-.34-.1-.09-.26-.13-.43-.19-.14-.04-.29-.08-.44-.21-.13-.11-.24-.29-.24-.48,0-.36.28-.65.75-.65.25,0,.5.08.68.21Z"/><path class="cls-6" d="m304.06,68.76l-.17.21c-.11-.11-.28-.2-.49-.2-.19,0-.34.07-.44.19-.14.17-.14.39-.14.83s0,.65.13.83c.09.12.24.19.44.19.22,0,.41-.09.52-.22l.19.19c-.16.17-.42.3-.72.3s-.53-.13-.67-.3c-.19-.24-.19-.51-.19-.98s0-.74.19-.99c.13-.17.36-.3.66-.3.27,0,.51.11.66.25Z"/><path class="cls-6" d="m304.62,68.88c.14-.23.41-.38.72-.38s.58.14.72.38c.14.22.14.46.14.91s0,.69-.14.91c-.14.23-.41.38-.72.38s-.58-.14-.72-.38c-.14-.22-.14-.46-.14-.91s0-.69.14-.91Zm.24,1.69c.09.15.27.24.48.24s.39-.09.48-.24c.1-.16.1-.39.1-.78s0-.61-.1-.78c-.09-.15-.27-.24-.48-.24s-.39.09-.48.24c-.1.16-.1.39-.1.78s0,.61.1.78Z"/><path class="cls-6" d="m306.98,68.53l1.14,1.97v-1.97h.28v2.52h-.25l-1.14-1.97v1.97h-.28v-2.52h.25Z"/><path class="cls-6" d="m310.3,68.72l-.14.23c-.14-.11-.34-.17-.54-.17-.34,0-.47.19-.47.37,0,.11.06.22.15.3.09.08.24.12.36.16.17.05.35.1.51.24.13.11.25.31.25.53,0,.34-.26.71-.81.71-.27,0-.53-.08-.75-.26l.16-.22c.17.14.38.21.59.21.38,0,.53-.24.53-.44,0-.12-.06-.25-.17-.34-.1-.09-.26-.13-.43-.19-.14-.04-.29-.08-.44-.21-.13-.11-.24-.29-.24-.48,0-.36.28-.65.75-.65.25,0,.5.08.68.21Z"/><path class="cls-6" d="m311.17,71.06h-.28v-2.52h.28v2.52Z"/><path class="cls-6" d="m311.99,68.53l1.14,1.97v-1.97h.28v2.52h-.25l-1.14-1.97v1.97h-.28v-2.52h.25Z"/><path class="cls-2" d="m336.45,78.62l.8,1.57.79-1.57h.25v2.52h-.28v-1.9l-.64,1.28h-.24l-.64-1.27v1.9h-.28v-2.52h.25Z"/><path class="cls-2" d="m339.14,81.14h-.28v-2.52h.28v2.52Z"/><path class="cls-2" d="m341.18,78.85l-.17.21c-.11-.11-.28-.2-.49-.2-.19,0-.34.07-.44.19-.14.17-.14.39-.14.83s0,.65.13.83c.09.12.24.19.44.19.22,0,.41-.09.52-.22l.19.19c-.16.17-.42.3-.72.3s-.53-.12-.67-.3c-.18-.24-.18-.51-.18-.98s0-.74.19-.99c.13-.17.36-.3.66-.3.27,0,.51.11.66.25Z"/><path class="cls-2" d="m342,78.62v1.09h1.11v-1.09h.28v2.52h-.28v-1.17h-1.11v1.17h-.28v-2.52h.28Z"/><path class="cls-2" d="m344.24,81.14h-.28v-2.52h.28v2.52Z"/><path class="cls-2" d="m346.28,78.85l-.17.21c-.11-.11-.28-.2-.49-.2-.19,0-.34.07-.44.19-.14.17-.14.39-.14.83s0,.65.13.83c.09.12.24.19.44.19s.35-.08.44-.19c.11-.15.13-.33.13-.65h-.52v-.27h.8c0,.56,0,.83-.19,1.07-.14.18-.36.3-.67.3s-.53-.12-.67-.3c-.19-.24-.19-.51-.19-.98s0-.74.19-.99c.13-.17.36-.3.66-.3.27,0,.51.11.66.25Z"/><path class="cls-2" d="m347.52,78.62h.23l.86,2.52h-.3l-.2-.63h-.96l-.2.63h-.3l.86-2.52Zm.11.39l-.39,1.24h.79l-.39-1.24Z"/><path class="cls-2" d="m349.19,78.62l1.14,1.97v-1.97h.28v2.52h-.25l-1.14-1.97v1.97h-.28v-2.52h.25Z"/><path class="cls-2" d="m389.94,108.88c.3,0,.58,0,.81.21.19.17.25.41.25.61s-.07.44-.25.61c-.23.21-.51.21-.81.21h-.17v.89h-.28v-2.52h.45Zm-.17,1.36h.17c.28,0,.47,0,.61-.13.1-.09.17-.24.17-.42s-.07-.33-.17-.42c-.15-.13-.33-.13-.61-.13h-.17v1.1Z"/><path class="cls-2" d="m392.88,108.88v.27h-1.12v.83h.9v.27h-.9v.9h1.12v.27h-1.4v-2.52h1.4Z"/><path class="cls-2" d="m393.65,108.88l1.14,1.97v-1.97h.28v2.52h-.25l-1.14-1.97v1.97h-.28v-2.52h.25Z"/><path class="cls-2" d="m395.88,108.88l1.14,1.97v-1.97h.28v2.52h-.25l-1.14-1.97v1.97h-.28v-2.52h.25Z"/><path class="cls-2" d="m399.2,109.07l-.14.23c-.14-.11-.34-.17-.54-.17-.34,0-.47.19-.47.37,0,.11.06.22.15.3.09.08.24.12.36.16.17.05.35.1.51.24.13.11.25.31.25.53,0,.34-.27.71-.81.71-.26,0-.53-.08-.75-.26l.16-.22c.17.14.38.21.59.21.38,0,.53-.24.53-.44,0-.12-.06-.25-.17-.34-.1-.09-.26-.13-.43-.19-.14-.04-.29-.08-.44-.21-.13-.11-.24-.29-.24-.48,0-.36.28-.65.75-.65.25,0,.5.08.68.21Z"/><path class="cls-2" d="m399.74,108.88l.58,1.27.58-1.27h.31l-.75,1.58v.95h-.28v-.95l-.75-1.58h.31Z"/><path class="cls-2" d="m401.85,108.88v2.26h1.05v.27h-1.33v-2.52h.28Z"/><path class="cls-2" d="m403.48,111.41l-.81-2.52h.29l.65,2.12.65-2.12h.29l-.81,2.52h-.26Z"/><path class="cls-2" d="m405.22,108.88h.23l.86,2.52h-.3l-.2-.63h-.96l-.2.63h-.3l.86-2.52Zm.11.39l-.39,1.24h.79l-.39-1.24Z"/><path class="cls-2" d="m406.9,108.88l1.14,1.97v-1.97h.28v2.52h-.25l-1.14-1.97v1.97h-.28v-2.52h.25Z"/><path class="cls-2" d="m409.16,111.41h-.28v-2.52h.28v2.52Z"/><path class="cls-2" d="m410.36,108.88h.23l.86,2.52h-.3l-.2-.63h-.96l-.2.63h-.3l.86-2.52Zm.11.39l-.39,1.24h.79l-.39-1.24Z"/><path class="cls-2" d="m467.5,61.39l.8,1.57.79-1.57h.25v2.52h-.28v-1.9l-.64,1.28h-.24l-.64-1.27v1.9h-.28v-2.52h.25Z"/><path class="cls-2" d="m470.53,61.39h.23l.86,2.52h-.3l-.2-.63h-.95l-.2.63h-.3l.86-2.52Zm.11.39l-.39,1.24h.79l-.39-1.24Z"/><path class="cls-2" d="m472.24,63.91h-.28v-2.52h.28v2.52Z"/><path class="cls-2" d="m473.05,61.39l1.14,1.97v-1.97h.28v2.52h-.25l-1.14-1.97v1.97h-.28v-2.52h.25Z"/><path class="cls-2" d="m476.44,61.39v.27h-1.12v.83h.89v.27h-.89v.9h1.12v.27h-1.4v-2.52h1.4Z"/><path class="cls-2" d="m411.17,87.13l1.14,1.97v-1.97h.28v2.52h-.25l-1.14-1.97v1.97h-.28v-2.52h.25Z"/><path class="cls-2" d="m414.56,87.13v.27h-1.12v.83h.89v.27h-.89v.9h1.12v.27h-1.4v-2.52h1.4Z"/><path class="cls-2" d="m416.78,89.14l.4-2.01h.28l-.53,2.52h-.22l-.47-1.46-.47,1.46h-.22l-.53-2.52h.28l.41,2.01.44-1.38h.2l.45,1.38Z"/><path class="cls-2" d="m418.89,87.13l.58,1.27.58-1.27h.31l-.75,1.58v.95h-.28v-.95l-.75-1.58h.31Z"/><path class="cls-2" d="m420.65,87.48c.14-.23.41-.38.72-.38s.58.14.72.38c.14.22.14.46.14.91s0,.69-.14.91c-.14.23-.41.38-.72.38s-.58-.14-.72-.38c-.14-.22-.14-.46-.14-.91s0-.69.14-.91Zm.24,1.69c.09.15.27.24.48.24s.39-.09.48-.24c.1-.16.1-.39.1-.78s0-.61-.1-.78c-.09-.15-.27-.24-.48-.24s-.39.09-.48.24c-.1.16-.1.39-.1.78s0,.61.1.78Z"/><path class="cls-2" d="m423.26,87.13c.3,0,.58,0,.8.21.14.13.23.33.23.57,0,.33-.17.58-.41.69l.45,1.06h-.3l-.41-.98c-.08.01-.17.01-.36.01h-.22v.97h-.28v-2.53h.5Zm-.22,1.29h.22c.28,0,.46,0,.6-.13.1-.09.15-.24.15-.38s-.05-.29-.15-.38c-.14-.13-.32-.13-.6-.13h-.22v1.02Z"/><path class="cls-2" d="m426.17,89.66l-.81-1.12-.28.39v.73h-.28v-2.52h.28v1.41l1.02-1.41h.33l-.88,1.21.96,1.32h-.34Z"/><path class="cls-2" d="m436.42,94.97l.61,1.2.61-1.2h.19v1.94h-.22v-1.46l-.49.98h-.19l-.49-.97v1.45h-.22v-1.94h.19Z"/><path class="cls-2" d="m438.59,96.29l-.2.62h-.26l.67-1.96h.31l.67,1.96h-.27l-.21-.62h-.69Zm.64-.2l-.19-.56c-.04-.13-.07-.24-.1-.36h0c-.03.12-.06.24-.1.35l-.19.57h.59Z"/><path class="cls-2" d="m440.01,96.6c.11.07.28.13.45.13.26,0,.41-.14.41-.33,0-.18-.1-.29-.37-.39-.32-.11-.52-.28-.52-.55,0-.3.25-.53.63-.53.2,0,.35.05.43.1l-.07.21c-.06-.03-.19-.09-.37-.09-.27,0-.37.16-.37.29,0,.18.12.27.39.38.33.13.5.29.5.58,0,.3-.22.56-.69.56-.19,0-.4-.05-.5-.13l.06-.21Z"/><path class="cls-2" d="m441.44,96.6c.11.07.28.13.45.13.26,0,.41-.14.41-.33,0-.18-.1-.29-.37-.39-.32-.11-.52-.28-.52-.55,0-.3.25-.53.63-.53.2,0,.35.05.43.1l-.07.21c-.06-.03-.19-.09-.37-.09-.27,0-.37.16-.37.29,0,.18.12.27.39.38.33.13.5.29.5.58,0,.3-.22.56-.69.56-.19,0-.4-.05-.5-.13l.06-.21Z"/><path class="cls-2" d="m443.22,96.29l-.2.62h-.26l.67-1.96h.31l.67,1.96h-.27l-.21-.62h-.69Zm.64-.2l-.19-.56c-.04-.13-.07-.24-.1-.36h0c-.03.12-.06.24-.1.35l-.19.57h.59Z"/><path class="cls-2" d="m445.81,95.15l-.13.16c-.08-.09-.22-.15-.38-.15-.14,0-.26.05-.33.15-.1.13-.1.3-.1.64s0,.5.1.63c.07.09.18.15.34.15.17,0,.31-.07.4-.17l.15.15c-.12.13-.32.23-.55.23s-.41-.1-.51-.23c-.14-.19-.14-.39-.14-.75s0-.57.15-.76c.1-.13.28-.23.51-.23.21,0,.39.08.51.19Z"/><path class="cls-2" d="m446.44,94.97v.84h.85v-.84h.22v1.94h-.22v-.89h-.85v.89h-.21v-1.94h.21Z"/><path class="cls-2" d="m448.14,94.97v1.12c0,.24,0,.4.1.51.07.08.17.12.29.12s.22-.04.29-.12c.1-.11.1-.27.1-.51v-1.12h.21v1.12c0,.26,0,.47-.15.64-.1.12-.27.19-.45.19s-.35-.07-.45-.19c-.15-.17-.15-.38-.15-.64v-1.12h.22Z"/><path class="cls-2" d="m450.56,95.12l-.11.17c-.1-.08-.26-.13-.41-.13-.26,0-.36.15-.36.29,0,.09.04.17.12.23.07.06.18.09.28.12.13.04.27.08.39.18.1.09.19.24.19.4,0,.26-.2.54-.62.54-.2,0-.41-.06-.58-.2l.12-.17c.13.11.29.16.46.16.29,0,.4-.18.4-.34,0-.09-.05-.19-.13-.26-.08-.07-.2-.1-.33-.14-.11-.03-.22-.06-.34-.16-.1-.08-.18-.22-.18-.37,0-.28.21-.5.58-.5.19,0,.39.06.52.16Z"/><path class="cls-2" d="m452.1,94.97v.2h-.86v.63h.68v.2h-.68v.69h.86v.2h-1.08v-1.94h1.08Z"/><path class="cls-2" d="m453.73,94.97v.2h-.55v1.73h-.22v-1.73h-.55v-.2h1.31Z"/><path class="cls-2" d="m455.33,94.97v.2h-.55v1.73h-.22v-1.73h-.55v-.2h1.31Z"/><path class="cls-2" d="m456.63,95.12l-.11.17c-.1-.08-.26-.13-.41-.13-.26,0-.36.15-.36.29,0,.09.04.17.12.23.07.06.18.09.28.12.13.04.27.08.39.18.1.09.19.24.19.4,0,.26-.2.54-.62.54-.2,0-.41-.06-.58-.2l.12-.17c.13.11.29.16.46.16.29,0,.4-.18.4-.34,0-.09-.05-.19-.13-.26-.08-.07-.2-.1-.33-.14-.11-.03-.22-.06-.34-.16-.1-.08-.18-.22-.18-.37,0-.28.21-.5.58-.5.19,0,.39.06.52.16Z"/><path class="cls-6" d="m438.03,69.58l-.67-2.1h.24l.54,1.77.54-1.77h.24l-.67,2.1h-.22Z"/><path class="cls-6" d="m440.41,67.48v.22h-.93v.69h.74v.22h-.74v.75h.93v.22h-1.17v-2.1h1.17Z"/><path class="cls-6" d="m441.27,67.48c.25,0,.48,0,.67.17.12.11.19.27.19.47,0,.27-.14.48-.34.57l.37.88h-.25l-.34-.82c-.07,0-.14,0-.3,0h-.19v.81h-.23v-2.1h.42Zm-.19,1.07h.19c.24,0,.38,0,.5-.11.08-.08.12-.2.12-.32s-.04-.24-.12-.32c-.12-.11-.26-.11-.5-.11h-.19v.85Z"/><path class="cls-6" d="m442.76,67.48l.66,1.3.66-1.3h.21v2.1h-.23v-1.58l-.53,1.06h-.2l-.53-1.06v1.58h-.23v-2.1h.21Z"/><path class="cls-6" d="m444.84,67.78c.12-.19.34-.31.6-.31s.49.12.6.31c.11.19.11.39.11.76s0,.57-.11.76c-.12.19-.34.31-.6.31s-.49-.12-.6-.31c-.11-.19-.11-.38-.11-.76s0-.57.11-.76Zm.2,1.4c.07.13.22.2.4.2s.32-.08.4-.2c.08-.14.08-.33.08-.65s0-.51-.08-.65c-.08-.13-.22-.2-.4-.2s-.33.08-.4.2c-.08.14-.08.33-.08.65s0,.51.08.65Z"/><path class="cls-6" d="m446.81,67.48l.95,1.64v-1.64h.23v2.1h-.21l-.95-1.64v1.64h-.23v-2.1h.21Z"/><path class="cls-6" d="m449.77,67.48v.22h-.59v1.88h-.23v-1.88h-.59v-.22h1.42Z"/><path class="cls-2" d="m448.29,81.67l.95,1.64v-1.64h.23v2.1h-.21l-.95-1.64v1.64h-.23v-2.1h.21Z"/><path class="cls-2" d="m451.11,81.67v.22h-.93v.69h.75v.22h-.75v.75h.93v.22h-1.17v-2.1h1.17Z"/><path class="cls-2" d="m452.96,83.34l.33-1.67h.23l-.44,2.1h-.19l-.39-1.21-.4,1.21h-.19l-.44-2.1h.24l.34,1.67.37-1.15h.16l.38,1.15Z"/><path class="cls-2" d="m444.54,85.45v.91h.92v-.91h.23v2.1h-.23v-.97h-.92v.97h-.23v-2.1h.23Z"/><path class="cls-2" d="m446.7,85.45h.19l.72,2.1h-.25l-.17-.52h-.79l-.17.52h-.25l.72-2.1Zm.09.33l-.33,1.03h.66l-.33-1.03Z"/><path class="cls-2" d="m448.09,85.45l.66,1.3.66-1.3h.21v2.1h-.23v-1.58l-.53,1.06h-.2l-.53-1.06v1.58h-.23v-2.1h.21Z"/><path class="cls-2" d="m450.47,85.45c.25,0,.48,0,.67.17.16.14.21.34.21.5s-.06.37-.21.5c-.19.17-.42.17-.67.17h-.14v.74h-.23v-2.1h.38Zm-.14,1.14h.14c.23,0,.39,0,.51-.11.09-.08.14-.2.14-.35s-.06-.27-.14-.35c-.12-.11-.28-.11-.51-.11h-.14v.92Z"/><path class="cls-2" d="m452.86,85.61l-.12.19c-.11-.09-.28-.15-.45-.15-.28,0-.39.16-.39.31,0,.09.05.19.13.25.08.06.2.1.3.13.14.04.29.09.43.2.11.09.21.26.21.44,0,.29-.22.59-.67.59-.22,0-.44-.07-.63-.21l.13-.18c.14.12.32.17.5.17.32,0,.44-.2.44-.37,0-.1-.05-.21-.14-.28-.08-.07-.21-.11-.36-.15-.12-.03-.24-.07-.37-.18-.11-.09-.19-.24-.19-.4,0-.3.23-.54.62-.54.21,0,.42.07.57.18Z"/><path class="cls-2" d="m453.59,85.45v.91h.92v-.91h.23v2.1h-.23v-.97h-.92v.97h-.23v-2.1h.23Z"/><path class="cls-2" d="m455.45,87.55h-.23v-2.1h.23v2.1Z"/><path class="cls-2" d="m456.34,85.45c.25,0,.48,0,.67.17.12.11.19.27.19.47,0,.27-.15.48-.34.57l.37.88h-.25l-.34-.82c-.07,0-.14,0-.3,0h-.19v.81h-.23v-2.1h.42Zm-.19,1.07h.19c.24,0,.38,0,.5-.11.08-.08.12-.2.12-.32s-.04-.24-.12-.32c-.12-.11-.26-.11-.5-.11h-.19v.85Z"/><path class="cls-2" d="m300.02,117.5h-.28v-2.52h.28v2.52Z"/><path class="cls-2" d="m300.87,114.98v2.26h1.05v.27h-1.33v-2.52h.28Z"/><path class="cls-2" d="m302.69,114.98v2.26h1.05v.27h-1.33v-2.52h.28Z"/><path class="cls-2" d="m304.5,117.5h-.28v-2.52h.28v2.52Z"/><path class="cls-2" d="m305.32,114.98l1.14,1.97v-1.97h.28v2.52h-.25l-1.14-1.97v1.97h-.28v-2.52h.25Z"/><path class="cls-2" d="m307.4,115.33c.14-.23.41-.38.72-.38s.58.14.72.38c.14.22.14.46.14.91s0,.69-.14.91c-.14.23-.41.38-.72.38s-.58-.14-.72-.38c-.14-.22-.14-.46-.14-.91s0-.69.14-.91Zm.24,1.69c.09.15.27.24.48.24s.39-.09.48-.24c.1-.16.1-.39.1-.78s0-.61-.1-.78c-.09-.15-.27-.24-.48-.24s-.39.09-.48.24c-.1.16-.1.39-.1.78s0,.61.1.78Z"/><path class="cls-2" d="m309.79,117.5h-.28v-2.52h.28v2.52Z"/><path class="cls-2" d="m311.69,115.17l-.14.23c-.14-.11-.34-.17-.54-.17-.34,0-.47.19-.47.37,0,.11.06.22.15.3.09.08.24.12.36.16.17.05.35.1.51.24.13.11.25.31.25.53,0,.34-.27.71-.81.71-.26,0-.53-.08-.75-.26l.16-.22c.17.14.38.21.59.21.38,0,.53-.24.53-.44,0-.12-.06-.25-.17-.34-.1-.09-.26-.13-.43-.19-.14-.04-.29-.08-.44-.21-.13-.11-.24-.29-.24-.48,0-.36.28-.65.75-.65.25,0,.5.08.68.21Z"/><path class="cls-6" d="m326.19,121.6h-.28v-2.52h.28v2.52Z"/><path class="cls-6" d="m327,119.08l1.14,1.97v-1.97h.28v2.52h-.25l-1.14-1.97v1.97h-.28v-2.52h.25Z"/><path class="cls-6" d="m329.4,119.08c.33,0,.66,0,.92.26.26.26.26.58.26,1s0,.74-.26,1c-.26.26-.59.26-.92.26h-.41v-2.52h.41Zm-.13,2.26h.13c.3,0,.54,0,.72-.18.18-.18.18-.42.18-.82s0-.64-.18-.82c-.18-.18-.42-.18-.72-.18h-.13v1.99Z"/><path class="cls-6" d="m331.39,121.6h-.28v-2.52h.28v2.52Z"/><path class="cls-6" d="m332.59,119.08h.23l.86,2.52h-.3l-.2-.63h-.96l-.2.63h-.3l.86-2.52Zm.11.39l-.39,1.24h.79l-.39-1.24Z"/><path class="cls-6" d="m334.26,119.08l1.14,1.97v-1.97h.28v2.52h-.25l-1.14-1.97v1.97h-.28v-2.52h.25Z"/><path class="cls-6" d="m336.88,119.08h.23l.86,2.52h-.3l-.2-.63h-.96l-.2.63h-.3l.86-2.52Zm.11.39l-.39,1.24h.79l-.39-1.24Z"/><path class="cls-2" d="m355.96,115.02c.14-.23.41-.38.72-.38s.58.14.72.38c.14.22.14.46.14.91s0,.69-.14.91c-.14.23-.41.38-.72.38s-.58-.14-.72-.38c-.14-.22-.14-.46-.14-.91s0-.69.14-.91Zm.24,1.69c.09.15.27.24.48.24s.39-.09.48-.24c.1-.16.1-.39.1-.78s0-.61-.1-.78c-.09-.15-.27-.24-.48-.24s-.39.09-.48.24c-.1.16-.1.39-.1.78s0,.61.1.78Z"/><path class="cls-2" d="m358.35,114.66v1.09h1.11v-1.09h.28v2.52h-.28v-1.17h-1.11v1.17h-.28v-2.52h.28Z"/><path class="cls-2" d="m360.58,117.19h-.28v-2.52h.28v2.52Z"/><path class="cls-2" d="m361.25,115.02c.14-.23.41-.38.72-.38s.58.14.72.38c.14.22.14.46.14.91s0,.69-.14.91c-.14.23-.41.38-.72.38s-.58-.14-.72-.38c-.14-.22-.14-.46-.14-.91s0-.69.14-.91Zm.24,1.69c.09.15.27.24.48.24s.39-.09.48-.24c.1-.16.1-.39.1-.78s0-.61-.1-.78c-.09-.15-.27-.24-.48-.24s-.39.09-.48.24c-.1.16-.1.39-.1.78s0,.61.1.78Z"/><path class="cls-2" d="m162.22,175.4l1.14,1.97v-1.97h.28v2.52h-.25l-1.14-1.97v1.97h-.28v-2.52h.25Z"/><path class="cls-2" d="m165.61,175.4v.27h-1.12v.83h.89v.27h-.89v.9h1.12v.27h-1.4v-2.52h1.4Z"/><path class="cls-2" d="m167.83,177.41l.4-2.01h.28l-.53,2.52h-.22l-.47-1.46-.47,1.46h-.22l-.53-2.52h.28l.41,2.01.44-1.38h.2l.45,1.38Z"/><path class="cls-2" d="m170.09,175.4l.8,1.57.79-1.57h.25v2.52h-.28v-1.9l-.64,1.28h-.24l-.64-1.27v1.9h-.28v-2.52h.25Z"/><path class="cls-2" d="m173.9,175.4v.27h-1.12v.83h.89v.27h-.89v.9h1.12v.27h-1.4v-2.52h1.4Z"/><path class="cls-2" d="m174.62,175.4l.54,1.02.54-1.02h.31l-.68,1.24.7,1.28h-.31l-.56-1.05-.56,1.05h-.31l.7-1.28-.68-1.24h.31Z"/><path class="cls-2" d="m176.75,177.93h-.28v-2.52h.28v2.52Z"/><path class="cls-2" d="m178.79,175.63l-.17.21c-.11-.11-.28-.2-.49-.2-.19,0-.34.07-.44.19-.14.17-.14.39-.14.83s0,.65.13.83c.09.12.24.19.44.19.22,0,.41-.09.52-.22l.19.19c-.16.17-.42.3-.72.3s-.53-.13-.67-.3c-.19-.24-.19-.51-.19-.98s0-.74.19-.99c.13-.17.36-.3.66-.3.27,0,.51.11.66.25Z"/><path class="cls-2" d="m179.36,175.76c.14-.23.41-.38.72-.38s.58.14.72.38c.14.22.14.46.14.91s0,.69-.14.91c-.14.23-.41.38-.72.38s-.58-.14-.72-.38c-.14-.22-.14-.46-.14-.91s0-.69.14-.91Zm.24,1.69c.09.15.27.24.48.24s.39-.09.48-.24c.1-.16.1-.39.1-.78s0-.61-.1-.78c-.09-.15-.27-.24-.48-.24s-.39.09-.48.24c-.1.16-.1.39-.1.78s0,.61.1.78Z"/><path class="cls-2" d="m321.6,193.58h.23l.86,2.52h-.3l-.2-.63h-.96l-.2.63h-.3l.86-2.52Zm.11.39l-.39,1.24h.79l-.39-1.24Z"/><path class="cls-2" d="m323.31,193.58v2.26h1.05v.27h-1.33v-2.52h.28Z"/><path class="cls-2" d="m325.48,193.58h.23l.86,2.52h-.3l-.2-.63h-.96l-.2.63h-.3l.86-2.52Zm.11.39l-.39,1.24h.79l-.39-1.24Z"/><path class="cls-2" d="m328.14,193.73c.16.12.24.31.24.53,0,.23-.1.42-.28.53.22.11.35.33.35.6,0,.22-.08.39-.2.51-.2.2-.47.2-.75.2h-.6v-2.52h.56c.27,0,.48,0,.67.15Zm-.95.12v.83h.28c.26,0,.43,0,.54-.14.06-.08.09-.18.09-.28s-.03-.2-.09-.28c-.11-.14-.28-.14-.54-.14h-.28Zm0,1.09v.9h.32c.26,0,.43,0,.56-.13.06-.07.11-.18.11-.32s-.05-.25-.11-.32c-.13-.13-.3-.13-.56-.13h-.32Z"/><path class="cls-2" d="m329.47,193.58h.23l.86,2.52h-.3l-.2-.63h-.96l-.2.63h-.3l.86-2.52Zm.11.39l-.39,1.24h.79l-.39-1.24Z"/><path class="cls-2" d="m331.14,193.58l.8,1.57.79-1.57h.25v2.52h-.28v-1.9l-.64,1.28h-.24l-.64-1.27v1.9h-.28v-2.52h.25Z"/><path class="cls-2" d="m334.17,193.58h.23l.86,2.52h-.3l-.2-.63h-.96l-.2.63h-.3l.86-2.52Zm.11.39l-.39,1.24h.79l-.39-1.24Z"/><path class="cls-2" d="m322.54,162.06v.27h-.71v2.26h-.28v-2.26h-.71v-.27h1.71Z"/><path class="cls-2" d="m324.38,162.06v.27h-1.12v.83h.89v.27h-.89v.9h1.12v.27h-1.4v-2.52h1.4Z"/><path class="cls-2" d="m325.15,162.06l1.14,1.97v-1.97h.28v2.52h-.25l-1.14-1.97v1.97h-.28v-2.52h.25Z"/><path class="cls-2" d="m327.38,162.06l1.14,1.97v-1.97h.28v2.52h-.25l-1.14-1.97v1.97h-.28v-2.52h.25Z"/><path class="cls-2" d="m330.77,162.06v.27h-1.12v.83h.89v.27h-.89v.9h1.12v.27h-1.4v-2.52h1.4Z"/><path class="cls-2" d="m332.56,162.25l-.14.23c-.14-.11-.34-.17-.54-.17-.34,0-.47.19-.47.37,0,.11.06.22.15.3.09.08.24.12.36.16.17.05.35.1.51.24.13.11.25.31.25.53,0,.34-.27.71-.81.71-.26,0-.53-.08-.75-.26l.16-.22c.17.14.38.21.59.21.38,0,.53-.24.53-.44,0-.12-.06-.25-.17-.34-.1-.09-.26-.13-.43-.19-.14-.04-.29-.08-.44-.21-.13-.11-.24-.29-.24-.48,0-.36.28-.65.75-.65.25,0,.5.08.68.21Z"/><path class="cls-2" d="m334.37,162.25l-.14.23c-.14-.11-.34-.17-.54-.17-.34,0-.47.19-.47.37,0,.11.06.22.15.3.09.08.24.12.36.16.17.05.35.1.51.24.13.11.25.31.25.53,0,.34-.27.71-.81.71-.26,0-.53-.08-.75-.26l.16-.22c.17.14.38.21.59.21.38,0,.53-.24.53-.44,0-.12-.06-.25-.17-.34-.1-.09-.26-.13-.43-.19-.14-.04-.29-.08-.44-.21-.13-.11-.24-.29-.24-.48,0-.36.28-.65.75-.65.25,0,.5.08.68.21Z"/><path class="cls-2" d="m336.37,162.06v.27h-1.12v.83h.9v.27h-.9v.9h1.12v.27h-1.4v-2.52h1.4Z"/><path class="cls-2" d="m338.3,162.06v.27h-1.12v.83h.89v.27h-.89v.9h1.12v.27h-1.4v-2.52h1.4Z"/><path class="cls-2" d="m335.9,146.45l-.81-1.12-.28.39v.73h-.28v-2.52h.28v1.41l1.02-1.41h.33l-.88,1.21.96,1.32h-.34Z"/><path class="cls-2" d="m338.07,143.93v.27h-1.12v.83h.9v.27h-.9v.9h1.12v.27h-1.4v-2.52h1.4Z"/><path class="cls-2" d="m338.84,143.93l1.14,1.97v-1.97h.28v2.52h-.25l-1.14-1.97v1.97h-.28v-2.52h.25Z"/><path class="cls-2" d="m342.4,143.93v.27h-.71v2.26h-.28v-2.26h-.71v-.27h1.71Z"/><path class="cls-2" d="m343.09,143.93v1.47c0,.31,0,.52.13.66.09.1.23.15.38.15s.28-.05.37-.15c.13-.14.13-.36.13-.66v-1.47h.28v1.47c0,.34,0,.61-.2.84-.14.16-.35.24-.59.24s-.45-.09-.59-.24c-.2-.22-.2-.5-.2-.84v-1.47h.28Z"/><path class="cls-2" d="m346.4,144.16l-.17.21c-.11-.11-.28-.2-.49-.2-.18,0-.34.07-.44.19-.14.17-.14.39-.14.83s0,.65.13.83c.09.12.24.19.44.19.22,0,.41-.09.52-.22l.19.19c-.16.17-.42.3-.72.3s-.53-.13-.67-.3c-.19-.24-.19-.51-.19-.98s0-.74.19-.99c.13-.17.36-.3.66-.3.27,0,.51.11.66.25Z"/><path class="cls-2" d="m348.31,146.45l-.81-1.12-.28.39v.73h-.28v-2.52h.28v1.41l1.02-1.41h.33l-.88,1.21.96,1.32h-.34Z"/><path class="cls-2" d="m349.22,143.93l.58,1.27.58-1.27h.31l-.75,1.58v.95h-.28v-.95l-.75-1.58h.31Z"/><path class="cls-6" d="m351.87,198.86l-.17.21c-.11-.11-.28-.2-.49-.2-.19,0-.34.07-.44.19-.14.17-.14.39-.14.83s0,.65.13.83c.09.12.24.19.44.19s.35-.08.44-.19c.11-.15.13-.33.13-.65h-.52v-.27h.8c0,.56,0,.83-.19,1.07-.14.18-.36.3-.67.3s-.53-.12-.67-.3c-.19-.24-.19-.51-.19-.98s0-.74.19-.99c.13-.17.36-.3.66-.3.27,0,.51.11.66.25Z"/><path class="cls-6" d="m353.99,198.63v.27h-1.12v.83h.89v.27h-.89v.9h1.12v.27h-1.4v-2.52h1.4Z"/><path class="cls-6" d="m354.58,198.98c.14-.23.41-.38.72-.38s.58.14.72.38c.14.22.14.46.14.91s0,.69-.14.91c-.14.23-.41.38-.72.38s-.58-.14-.72-.38c-.14-.22-.14-.46-.14-.91s0-.69.14-.91Zm.24,1.69c.09.15.27.24.48.24s.39-.09.48-.24c.1-.16.1-.39.1-.78s0-.61-.1-.78c-.09-.15-.27-.24-.48-.24s-.39.09-.48.24c-.1.16-.1.39-.1.78s0,.61.1.78Z"/><path class="cls-6" d="m357.19,198.63c.3,0,.58,0,.8.21.14.13.23.33.23.57,0,.33-.17.58-.41.69l.45,1.06h-.3l-.41-.98c-.08.01-.17.01-.36.01h-.22v.97h-.28v-2.53h.5Zm-.22,1.29h.22c.28,0,.46,0,.6-.13.1-.09.15-.24.15-.38s-.05-.29-.15-.38c-.14-.13-.32-.13-.6-.13h-.22v1.02Z"/><path class="cls-6" d="m360.17,198.86l-.17.21c-.11-.11-.28-.2-.49-.2-.19,0-.34.07-.44.19-.14.17-.14.39-.14.83s0,.65.13.83c.09.12.24.19.44.19s.35-.08.44-.19c.11-.15.13-.33.13-.65h-.52v-.27h.8c0,.56,0,.83-.19,1.07-.14.18-.36.3-.67.3s-.53-.12-.67-.3c-.19-.24-.19-.51-.19-.98s0-.74.19-.99c.13-.17.36-.3.66-.3.27,0,.51.11.66.25Z"/><path class="cls-6" d="m361.17,201.15h-.28v-2.52h.28v2.52Z"/><path class="cls-6" d="m362.37,198.63h.23l.86,2.52h-.3l-.2-.63h-.96l-.2.63h-.3l.86-2.52Zm.11.39l-.39,1.24h.79l-.39-1.24Z"/><path class="cls-2" d="m366.89,241.5v.27h-1.08v.83h.89v.27h-.89v1.17h-.28v-2.52h1.36Z"/><path class="cls-2" d="m367.68,241.5v2.26h1.05v.27h-1.33v-2.52h.28Z"/><path class="cls-2" d="m369.2,241.85c.14-.23.41-.38.72-.38s.58.14.72.38c.14.22.14.46.14.91s0,.69-.14.91c-.14.23-.41.38-.72.38s-.58-.14-.72-.38c-.14-.22-.14-.46-.14-.91s0-.69.14-.91Zm.24,1.69c.09.15.27.24.48.24s.39-.09.48-.24c.1-.16.1-.39.1-.78s0-.61-.1-.78c-.09-.15-.27-.24-.48-.24s-.39.09-.48.24c-.1.16-.1.39-.1.78s0,.61.1.78Z"/><path class="cls-2" d="m371.81,241.5c.3,0,.58,0,.8.21.14.13.23.33.23.57,0,.33-.17.58-.41.69l.45,1.06h-.3l-.41-.98c-.08.01-.17.01-.36.01h-.22v.97h-.28v-2.53h.5Zm-.22,1.29h.22c.28,0,.46,0,.6-.13.1-.09.15-.24.15-.38s-.05-.29-.15-.38c-.14-.13-.32-.13-.6-.13h-.22v1.02Z"/><path class="cls-2" d="m373.63,244.03h-.28v-2.52h.28v2.52Z"/><path class="cls-2" d="m374.61,241.5c.33,0,.66,0,.92.26.26.26.26.58.26,1s0,.74-.26,1c-.26.26-.59.26-.92.26h-.41v-2.52h.41Zm-.13,2.26h.13c.3,0,.54,0,.72-.18.18-.18.18-.42.18-.82s0-.64-.18-.82c-.18-.18-.42-.18-.72-.18h-.13v1.99Z"/><path class="cls-2" d="m376.84,241.5h.23l.86,2.52h-.3l-.2-.63h-.96l-.2.63h-.3l.86-2.52Zm.11.39l-.39,1.24h.79l-.39-1.24Z"/><path class="cls-2" d="m373.6,178.33l-.14.23c-.14-.11-.34-.17-.54-.17-.34,0-.47.19-.47.37,0,.11.06.22.15.3.09.08.24.12.36.16.17.05.35.1.51.24.13.11.25.31.25.53,0,.34-.27.71-.81.71-.26,0-.53-.08-.75-.26l.16-.22c.17.14.38.21.59.21.38,0,.53-.24.53-.44,0-.12-.06-.25-.17-.34-.1-.09-.26-.13-.43-.19-.14-.04-.29-.08-.44-.21-.13-.11-.24-.29-.24-.48,0-.36.28-.65.75-.65.25,0,.5.08.68.21Z"/><path class="cls-2" d="m374.3,178.49c.14-.23.41-.38.72-.38s.58.14.72.38c.14.22.14.46.14.91s0,.69-.14.91c-.14.23-.41.38-.72.38s-.59-.14-.72-.38c-.14-.22-.14-.46-.14-.91s0-.69.14-.91Zm.24,1.69c.09.15.27.24.48.24s.39-.09.48-.24c.1-.16.1-.39.1-.78s0-.61-.1-.78c-.09-.15-.27-.24-.48-.24s-.39.09-.48.24c-.1.16-.1.39-.1.78s0,.61.1.78Z"/><path class="cls-2" d="m376.67,178.14v1.47c0,.31,0,.52.13.66.09.1.23.15.37.15s.28-.05.38-.15c.13-.14.13-.36.13-.66v-1.47h.28v1.47c0,.34,0,.61-.2.84-.14.16-.35.24-.59.24s-.45-.09-.59-.24c-.2-.22-.2-.5-.2-.84v-1.47h.28Z"/><path class="cls-2" d="m380.08,178.14v.27h-.71v2.26h-.28v-2.26h-.71v-.27h1.71Z"/><path class="cls-2" d="m380.79,178.14v1.09h1.11v-1.09h.28v2.52h-.28v-1.17h-1.11v1.17h-.28v-2.52h.28Z"/><path class="cls-2" d="m371.36,182.91l-.17.21c-.11-.11-.28-.2-.49-.2-.19,0-.34.07-.44.19-.14.17-.14.39-.14.83s0,.65.13.83c.09.12.24.19.44.19.22,0,.41-.09.52-.22l.19.19c-.16.17-.42.3-.72.3s-.53-.12-.67-.3c-.19-.24-.19-.51-.19-.98s0-.74.19-.99c.13-.17.36-.3.66-.3.27,0,.51.11.66.25Z"/><path class="cls-2" d="m372.54,182.67h.23l.86,2.52h-.3l-.2-.63h-.96l-.2.63h-.3l.86-2.52Zm.11.39l-.39,1.24h.79l-.39-1.24Z"/><path class="cls-2" d="m374.47,182.67c.3,0,.58,0,.8.21.14.13.23.33.23.57,0,.33-.17.58-.41.69l.45,1.06h-.3l-.41-.98c-.08.01-.17.01-.36.01h-.22v.97h-.28v-2.53h.5Zm-.22,1.29h.22c.28,0,.46,0,.6-.13.1-.09.15-.24.15-.38s-.05-.29-.15-.38c-.14-.13-.32-.13-.6-.13h-.22v1.02Z"/><path class="cls-2" d="m376.07,183.03c.14-.23.41-.38.72-.38s.58.14.72.38c.14.22.14.46.14.91s0,.69-.14.91c-.14.23-.41.38-.72.38s-.58-.14-.72-.38c-.14-.22-.14-.46-.14-.91s0-.69.14-.91Zm.24,1.69c.09.15.27.24.48.24s.39-.09.48-.24c.1-.16.1-.39.1-.78s0-.61-.1-.78c-.09-.15-.27-.24-.48-.24s-.39.09-.48.24c-.1.16-.1.39-.1.78s0,.61.1.78Z"/><path class="cls-2" d="m378.46,182.67v2.26h1.05v.27h-1.33v-2.52h.28Z"/><path class="cls-2" d="m380.27,185.2h-.28v-2.52h.28v2.52Z"/><path class="cls-2" d="m381.09,182.67l1.14,1.97v-1.97h.28v2.52h-.25l-1.14-1.97v1.97h-.28v-2.52h.25Z"/><path class="cls-2" d="m383.7,182.67h.23l.86,2.52h-.3l-.2-.63h-.95l-.2.63h-.3l.86-2.52Zm.11.39l-.39,1.24h.79l-.4-1.24Z"/><path class="cls-2" d="m384.76,160.8l1.14,1.97v-1.97h.28v2.52h-.25l-1.14-1.97v1.97h-.28v-2.52h.25Z"/><path class="cls-2" d="m386.85,161.15c.14-.23.41-.38.72-.38s.58.14.72.38c.14.22.14.46.14.91s0,.69-.14.91c-.14.23-.41.38-.72.38s-.58-.14-.72-.38c-.14-.22-.14-.46-.14-.91s0-.69.14-.91Zm.24,1.69c.09.15.27.24.48.24s.39-.09.48-.24c.1-.16.1-.39.1-.78s0-.61-.1-.78c-.09-.15-.27-.24-.48-.24s-.39.09-.48.24c-.1.16-.1.39-.1.78s0,.61.1.78Z"/><path class="cls-2" d="m389.46,160.8c.3,0,.58,0,.8.21.14.13.23.33.23.57,0,.33-.17.58-.41.69l.45,1.06h-.3l-.41-.98c-.08.01-.17.01-.36.01h-.22v.97h-.28v-2.53h.5Zm-.22,1.29h.22c.28,0,.46,0,.6-.13.1-.09.15-.24.15-.38s-.05-.29-.15-.38c-.14-.13-.32-.13-.6-.13h-.22v1.02Z"/><path class="cls-2" d="m392.42,160.8v.27h-.71v2.26h-.28v-2.26h-.71v-.27h1.71Z"/><path class="cls-2" d="m393.14,160.8v1.09h1.11v-1.09h.28v2.52h-.28v-1.17h-1.11v1.17h-.28v-2.52h.28Z"/><path class="cls-2" d="m383.66,165.57l-.17.21c-.11-.11-.28-.2-.49-.2-.19,0-.34.07-.44.19-.14.17-.14.39-.14.83s0,.65.13.83c.09.12.24.19.44.19.22,0,.41-.09.52-.22l.19.19c-.16.17-.42.3-.72.3s-.53-.13-.67-.3c-.19-.24-.19-.51-.19-.98s0-.74.19-.99c.13-.17.36-.3.66-.3.27,0,.51.11.66.25Z"/><path class="cls-2" d="m384.83,165.34h.23l.86,2.52h-.3l-.2-.63h-.96l-.2.63h-.3l.86-2.52Zm.11.39l-.39,1.24h.79l-.39-1.24Z"/><path class="cls-2" d="m386.76,165.34c.3,0,.58,0,.8.21.14.13.23.33.23.57,0,.33-.17.58-.41.69l.45,1.06h-.3l-.41-.98c-.08.01-.17.01-.36.01h-.22v.97h-.28v-2.53h.5Zm-.22,1.29h.22c.28,0,.46,0,.6-.13.1-.09.15-.24.15-.38s-.05-.29-.15-.38c-.14-.13-.32-.13-.6-.13h-.22v1.02Z"/><path class="cls-2" d="m388.36,165.69c.14-.23.41-.38.72-.38s.58.14.72.38c.14.22.14.46.14.91s0,.69-.14.91c-.14.23-.41.38-.72.38s-.58-.14-.72-.38c-.14-.22-.14-.46-.14-.91s0-.69.14-.91Zm.24,1.69c.09.15.27.24.48.24s.39-.09.48-.24c.1-.16.1-.39.1-.78s0-.61-.1-.78c-.09-.15-.27-.24-.48-.24s-.39.09-.48.24c-.1.16-.1.39-.1.78s0,.61.1.78Z"/><path class="cls-2" d="m390.75,165.34v2.26h1.05v.27h-1.33v-2.52h.28Z"/><path class="cls-2" d="m392.57,167.86h-.28v-2.52h.28v2.52Z"/><path class="cls-2" d="m393.38,165.34l1.14,1.97v-1.97h.28v2.52h-.25l-1.14-1.97v1.97h-.28v-2.52h.25Z"/><path class="cls-2" d="m396,165.34h.23l.86,2.52h-.3l-.2-.63h-.95l-.2.63h-.3l.86-2.52Zm.11.39l-.39,1.24h.79l-.4-1.24Z"/><path class="cls-6" d="m370.23,135.27l.4-2.01h.28l-.53,2.52h-.22l-.47-1.46-.47,1.46h-.22l-.53-2.52h.28l.41,2.01.44-1.38h.2l.45,1.38Z"/><path class="cls-6" d="m372.71,133.26v.27h-1.12v.83h.89v.27h-.89v.9h1.12v.27h-1.4v-2.52h1.4Z"/><path class="cls-6" d="m374.49,133.45l-.14.23c-.14-.11-.34-.17-.54-.17-.34,0-.47.19-.47.37,0,.11.06.22.15.3.09.08.24.12.36.16.17.05.35.1.51.24.13.11.25.31.25.53,0,.34-.27.71-.81.71-.26,0-.53-.08-.75-.26l.16-.22c.17.14.38.21.59.21.38,0,.53-.24.53-.44,0-.12-.06-.25-.17-.34-.1-.09-.26-.13-.43-.19-.14-.04-.29-.08-.44-.21-.13-.11-.24-.29-.24-.48,0-.36.28-.65.75-.65.25,0,.5.08.68.21Z"/><path class="cls-6" d="m376.51,133.26v.27h-.71v2.26h-.28v-2.26h-.71v-.27h1.71Z"/><path class="cls-6" d="m366.85,140.33l-.81-2.52h.29l.65,2.12.65-2.12h.29l-.81,2.52h-.26Z"/><path class="cls-6" d="m368.58,140.33h-.28v-2.52h.28v2.52Z"/><path class="cls-6" d="m369.65,137.8c.3,0,.58,0,.8.21.14.13.23.33.23.57,0,.33-.17.58-.41.69l.45,1.06h-.3l-.41-.98c-.08.01-.17.01-.36.01h-.22v.97h-.28v-2.53h.5Zm-.22,1.29h.22c.28,0,.46,0,.6-.13.1-.09.15-.24.15-.38s-.05-.29-.15-.38c-.14-.13-.32-.13-.6-.13h-.22v1.02Z"/><path class="cls-6" d="m372.63,138.03l-.17.21c-.11-.11-.28-.2-.49-.2-.19,0-.34.07-.44.19-.14.17-.14.39-.14.83s0,.65.13.83c.09.12.24.19.44.19s.35-.08.44-.19c.11-.15.13-.33.13-.65h-.52v-.27h.8c0,.57,0,.83-.19,1.07-.14.18-.36.3-.67.3s-.53-.13-.67-.3c-.19-.24-.19-.51-.19-.98s0-.74.19-.99c.13-.17.36-.3.66-.3.27,0,.51.11.66.25Z"/><path class="cls-6" d="m373.62,140.33h-.28v-2.52h.28v2.52Z"/><path class="cls-6" d="m374.44,137.8l1.14,1.97v-1.97h.28v2.52h-.25l-1.14-1.97v1.97h-.28v-2.52h.25Z"/><path class="cls-6" d="m376.7,140.33h-.28v-2.52h.28v2.52Z"/><path class="cls-6" d="m377.9,137.8h.23l.86,2.52h-.3l-.2-.63h-.96l-.2.63h-.3l.86-2.52Zm.11.39l-.39,1.24h.79l-.39-1.24Z"/><path class="cls-2" d="m388.6,148.08l-.81-2.52h.29l.65,2.12.65-2.12h.29l-.81,2.52h-.26Z"/><path class="cls-2" d="m390.33,148.08h-.28v-2.52h.28v2.52Z"/><path class="cls-2" d="m391.4,145.56c.3,0,.58,0,.8.21.14.13.23.33.23.57,0,.33-.17.58-.41.69l.45,1.06h-.3l-.41-.98c-.08.01-.17.01-.36.01h-.22v.97h-.28v-2.53h.5Zm-.22,1.29h.22c.28,0,.46,0,.6-.13.1-.09.15-.24.15-.38s-.05-.29-.15-.38c-.14-.13-.32-.13-.6-.13h-.22v1.02Z"/><path class="cls-2" d="m394.38,145.79l-.17.21c-.11-.11-.28-.2-.49-.2-.19,0-.34.07-.44.19-.14.17-.14.39-.14.83s0,.65.13.83c.09.12.24.19.44.19s.35-.08.44-.19c.11-.15.13-.33.13-.65h-.52v-.27h.8c0,.57,0,.83-.19,1.07-.14.18-.36.3-.67.3s-.53-.12-.67-.3c-.19-.24-.19-.51-.19-.98s0-.74.19-.99c.13-.17.36-.3.66-.3.27,0,.51.11.66.25Z"/><path class="cls-2" d="m395.38,148.08h-.28v-2.52h.28v2.52Z"/><path class="cls-2" d="m396.19,145.56l1.14,1.97v-1.97h.28v2.52h-.25l-1.14-1.97v1.97h-.28v-2.52h.25Z"/><path class="cls-2" d="m398.46,148.08h-.28v-2.52h.28v2.52Z"/><path class="cls-2" d="m399.66,145.56h.23l.86,2.52h-.3l-.2-.63h-.96l-.2.63h-.3l.86-2.52Zm.11.39l-.39,1.24h.79l-.39-1.24Z"/><path class="cls-2" d="m401.45,124.07l.66,1.3.66-1.3h.21v2.1h-.23v-1.58l-.53,1.06h-.2l-.53-1.06v1.58h-.23v-2.1h.21Z"/><path class="cls-2" d="m403.98,124.07h.19l.72,2.1h-.25l-.17-.52h-.8l-.17.52h-.25l.72-2.1Zm.09.33l-.33,1.03h.66l-.33-1.03Z"/><path class="cls-2" d="m405.59,124.07c.25,0,.48,0,.67.17.12.11.19.27.19.47,0,.27-.15.48-.34.57l.37.88h-.25l-.34-.82c-.07,0-.14,0-.3,0h-.19v.81h-.23v-2.1h.42Zm-.19,1.07h.19c.24,0,.38,0,.5-.11.08-.08.12-.2.12-.32s-.04-.24-.12-.32c-.12-.11-.26-.11-.5-.11h-.19v.85Z"/><path class="cls-2" d="m406.82,124.07l.49,1.06.49-1.06h.26l-.63,1.31v.79h-.23v-.79l-.63-1.31h.26Z"/><path class="cls-2" d="m408.58,124.07v1.88h.87v.22h-1.1v-2.1h.23Z"/><path class="cls-2" d="m410.39,124.07h.19l.72,2.1h-.25l-.17-.52h-.8l-.17.52h-.25l.72-2.1Zm.09.33l-.33,1.03h.66l-.33-1.03Z"/><path class="cls-2" d="m411.78,124.07l.95,1.64v-1.64h.23v2.1h-.21l-.95-1.64v1.64h-.23v-2.1h.21Z"/><path class="cls-2" d="m413.78,124.07c.28,0,.55,0,.77.22.21.21.21.48.21.83s0,.62-.21.83c-.22.22-.49.22-.77.22h-.34v-2.1h.34Zm-.11,1.88h.11c.25,0,.45,0,.6-.15.15-.15.15-.35.15-.68s0-.53-.15-.68c-.15-.15-.35-.15-.6-.15h-.11v1.66Z"/><path class="cls-2" d="m418.4,132.63c.3,0,.59,0,.83.24.23.23.23.52.23.9s0,.67-.23.9c-.24.24-.53.24-.83.24h-.37v-2.27h.37Zm-.12,2.03h.12c.27,0,.48,0,.64-.16.16-.16.16-.37.16-.74s0-.57-.16-.74c-.16-.16-.38-.16-.64-.16h-.12v1.79Z"/><path class="cls-2" d="m421.2,132.63v.24h-1.01v.74h.8v.24h-.8v.81h1.01v.24h-1.26v-2.27h1.26Z"/><path class="cls-2" d="m423.07,121.55l1.14,1.97v-1.97h.28v2.52h-.25l-1.14-1.97v1.97h-.28v-2.52h.25Z"/><path class="cls-2" d="m426.2,121.55v1.54c0,.31,0,.55-.16.75-.14.19-.36.27-.58.27-.2,0-.39-.06-.55-.19l.17-.21c.1.09.25.13.38.13.15,0,.26-.05.33-.13.13-.13.13-.33.13-.62v-1.54h.28Z"/><path class="cls-2" d="m441.01,100.89l-.17.21c-.11-.11-.28-.2-.49-.2-.19,0-.34.07-.44.19-.14.17-.14.39-.14.83s0,.65.13.83c.09.12.24.19.44.19.22,0,.41-.09.52-.22l.19.19c-.16.17-.42.3-.72.3s-.53-.12-.67-.3c-.19-.24-.19-.51-.19-.98s0-.74.19-.99c.13-.17.36-.3.66-.3.27,0,.51.11.66.25Z"/><path class="cls-2" d="m443.13,100.66v.27h-.71v2.26h-.28v-2.26h-.71v-.27h1.71Z"/><path class="cls-6" d="m449.68,99.95c.3,0,.58,0,.8.21.14.13.23.33.23.57,0,.33-.17.58-.41.69l.45,1.06h-.3l-.41-.98c-.08.01-.17.01-.36.01h-.22v.97h-.28v-2.53h.5Zm-.22,1.29h.22c.28,0,.46,0,.6-.13.1-.09.15-.24.15-.38s-.05-.29-.15-.38c-.14-.13-.32-.13-.6-.13h-.22v1.02Z"/><path class="cls-6" d="m451.5,102.48h-.28v-2.52h.28v2.52Z"/></svg>