<svg width="100" height="69" viewBox="0 0 100 69" fill="none" xmlns="http://www.w3.org/2000/svg">
<g clip-path="url(#clip0_880_47799)">
<path fill-rule="evenodd" clip-rule="evenodd" d="M55.1511 9.79894C55.6167 10.5881 59.2784 10.9827 59.9728 11.1721H62.3403C62.3403 10.5171 62.6323 10.2803 63.1768 10.3277C67.533 10.6907 65.8205 11.7639 65.8205 11.906C65.8205 12.4979 66.1993 13.5948 67.0911 13.5948C67.4304 13.5948 67.5567 12.9398 67.6198 12.6478C68.3143 12.6478 68.409 13.1765 68.993 13.1765H72.3706C72.4968 12.3479 72.7336 11.4877 74.3829 11.4877C75.8572 11.4977 77.3202 11.7455 78.7154 12.2217C79.3231 12.4111 79.3468 12.924 79.7729 13.2791C80.1991 13.6343 81.4144 13.3817 82.1956 13.3817C83.6319 13.3817 84.35 13.7684 84.6263 14.8654L89.4875 14.9679C89.89 14.9679 91.5156 17.0198 90.8606 14.9679C90.7738 14.6917 91.2394 14.5497 91.9181 14.5497C94.1616 14.6542 96.3385 15.3453 98.2314 16.5542C99.4388 17.2486 101.909 17.8168 102.667 18.8348C102.098 19.0242 101.759 18.9848 101.404 19.403C101.167 19.6792 101.088 20.4605 100.662 20.4605C99.715 20.4605 98.6102 18.6691 97.2844 18.6691C96.8583 18.6691 97.0713 19.1979 96.9688 19.403C96.7162 19.916 95.4851 19.7661 95.4851 20.6736C95.4851 21.0129 97.9868 22.1967 94.8538 22.2519C93.1887 22.3229 91.8313 24.6904 89.9768 24.6904C89.3454 24.6904 87.775 22.7254 86.0704 26.3792C85.8652 26.8212 86.0704 27.0737 86.0704 27.3341C86.0704 27.7129 85.3286 27.9023 85.3286 28.5968C85.3286 29.0387 84.3816 29.165 84.4842 29.7568C83.6161 29.9699 83.3241 31.13 82.9059 31.7692C82.314 31.3036 82.0615 28.7467 82.0615 27.9654C82.0946 27.5936 82.2302 27.2382 82.453 26.9387C82.6759 26.6392 82.9775 26.4073 83.3241 26.2687C83.9335 25.7758 84.4357 25.1635 84.7999 24.4695C85.1787 23.917 85.6995 24.0985 86.2756 23.7276C87.9328 22.6623 86.828 22.2125 86.5992 22.2519C84.2869 25.0929 84.4447 23.262 84.7999 22.9937C84.3809 22.9362 83.9561 22.9362 83.5372 22.9937C82.0773 22.9937 81.438 23.7829 81.0987 25.2113H79.9386C79.4099 25.2113 79.0074 24.7851 78.1472 24.7851C76.7996 24.827 75.4569 24.9694 74.1304 25.2113C73.2229 25.4638 72.3548 26.5607 71.6998 27.2157C71.2578 27.6577 70.1215 28.3127 70.1215 28.9045C70.1633 29.1029 70.2563 29.2869 70.3914 29.4381C70.5264 29.5893 70.6987 29.7024 70.8911 29.7663C71.0835 29.8302 71.2893 29.8425 71.488 29.8021C71.6866 29.7617 71.8712 29.6699 72.0233 29.5359C72.4495 29.2202 73.3649 30.325 73.3649 30.909C73.3335 31.3194 73.2065 31.7167 72.994 32.0691C72.6626 32.6531 72.9151 33.0476 72.7652 33.6474C72.58 34.238 72.2614 34.7781 71.8339 35.2257C70.9817 36.0701 69.8453 38.6112 68.6773 38.6112C68.1767 38.5919 67.6795 38.5205 67.1937 38.3982C66.7697 38.7452 66.4433 39.1967 66.2467 39.7082C66.1599 39.8818 65.7811 40.087 65.6311 40.2369C65.5529 40.3297 65.4566 40.4056 65.348 40.4599C65.2395 40.5141 65.121 40.5457 64.9998 40.5526C64.9916 40.6961 65.0199 40.8394 65.082 40.9691C65.1441 41.0989 65.238 41.2107 65.3549 41.2944C65.6083 41.5147 65.8102 41.7878 65.9466 42.0946C66.0829 42.4014 66.1503 42.7343 66.1441 43.07C66.1441 43.5514 66.0257 43.7881 65.7258 43.8592C65.5996 43.8986 65.0708 43.9223 65.0708 44.1117C64.8183 44.1748 64.7788 44.1748 64.6447 44.3011H64.329C64.329 44.1906 64.4316 44.1275 64.4553 44.0249C64.3527 44.0249 64.3527 43.8986 64.3527 43.8118C64.3527 43.725 64.5421 43.3936 64.5421 43.3304C64.5421 43.2673 64.4316 43.0937 64.4316 42.9674C64.3879 42.9633 64.3456 42.95 64.3075 42.9282C64.2693 42.9064 64.2363 42.8767 64.2106 42.8411V42.636C64.2907 42.6374 64.3687 42.6104 64.4308 42.5599C64.4929 42.5093 64.5351 42.4384 64.55 42.3598C64.55 42.1072 64.2343 41.9336 63.9739 41.9336C63.8318 41.9336 63.745 42.0441 63.6819 42.0441C63.6188 42.0441 63.4688 41.7916 63.4688 41.6811C63.4688 41.4285 63.7056 41.4522 63.7056 41.2391C63.7056 41.0261 63.5951 40.9866 63.7056 40.7735C63.382 40.7735 63.2794 40.5447 63.0269 40.5447C62.3482 40.5447 61.8668 41.176 61.275 41.176C61.275 40.7972 61.6774 40.6473 61.6774 40.3079C61.6774 40.1817 61.4407 39.9055 61.275 39.9055C61.1092 39.9055 60.9751 40.1185 60.9356 40.1817C60.6736 40.4879 60.3678 40.7539 60.0281 40.9708C59.7282 41.1839 59.1205 41.034 59.1205 41.4759C59.1205 41.689 59.4757 41.7758 59.5625 41.8389C59.815 42.0283 59.7282 42.2414 59.9807 42.4071C60.157 42.4733 60.3481 42.4897 60.5331 42.4545C60.6594 42.4545 60.6594 41.9888 60.8251 41.9888C60.9909 41.9888 61.1487 42.1546 61.2907 42.2414C61.5906 42.4308 61.9063 42.194 62.0799 42.4308C61.6616 42.849 60.7541 42.849 60.5647 43.4251C60.4779 43.6777 60.1149 43.6934 60.1149 43.9539C60.1149 44.2143 60.5174 44.4589 60.691 44.4826V44.8851H60.7383C60.9277 44.9956 60.9277 45.2481 60.9909 45.3507C61.404 45.8627 61.6146 46.5086 61.5827 47.1658C61.5827 47.7813 61.2671 47.9549 61.2671 48.46C60.9514 48.5231 60.3832 49.3675 60.249 49.62C60.0596 50.0225 59.9176 50.8038 59.4046 50.8038C59.3919 50.8898 59.3557 50.9707 59.3 51.0375C59.2443 51.1043 59.1713 51.1545 59.089 51.1826C58.4971 51.5219 58.2998 52.1138 57.2976 52.1138C57.0845 52.1138 56.974 51.9402 56.7688 51.9402C56.7215 51.9402 56.5084 52.3427 56.5084 52.3427C56.2559 52.5952 55.8613 52.5163 55.4588 52.7057C55.2852 52.7925 54.867 52.8477 54.717 52.9977C54.5671 53.1476 54.717 53.4475 54.4408 53.4475C54.1646 53.4475 54.3146 53.0213 54.3382 52.9187C53.9358 52.7214 53.6832 52.8477 53.3202 52.682C52.9019 53.337 51.8603 53.4712 51.8603 54.3945C51.8603 54.5839 51.9707 54.6233 52.0576 54.7101C52.5389 55.1994 52.752 55.7439 53.2807 56.0833C53.551 56.3336 53.7658 56.6378 53.9112 56.9763C54.0566 57.3147 54.1295 57.6799 54.1252 58.0483C54.1252 58.5376 53.8726 58.727 53.8726 59.1058C53.1939 59.2794 53.1308 59.5082 52.5863 59.7844C52.3259 59.9107 52.3732 60.2501 52.1207 60.2501C52.0575 60.2501 52.0576 60.1238 52.0576 60.0607V60.2895C52.0576 60.5026 51.6314 60.8182 51.5446 60.8182C51.4578 60.8182 51.3789 60.5263 51.3789 60.3921C51.3789 60.2579 51.3789 60.1396 51.4657 60.1001C51.3789 60.1001 51.3394 59.887 51.3157 59.7844C51.0001 59.7844 50.5739 59.674 50.5739 59.3583C50.1083 59.3583 50.3451 59.0426 50.0925 58.7901C49.8274 58.5649 49.5051 58.4174 49.1613 58.364C49.114 58.364 49.0508 58.0877 49.0508 58.0877C48.9877 57.8589 48.7352 57.8194 48.5063 57.8194C48.2775 57.8194 48.3801 57.9457 48.3801 58.0483C48.3801 58.1509 48.459 58.285 48.459 58.4508C48.459 59.09 47.8513 59.2399 47.8513 59.8239C47.8513 60.4079 48.5694 60.2264 48.5694 60.8419H48.53C48.6089 60.984 48.6326 61.3707 48.7825 61.5127C49.3507 62.0888 50.5976 62.2151 50.5976 63.2646C50.5976 63.4777 50.5108 63.4777 50.5108 63.6671C50.5108 64.0459 50.8264 64.1801 50.9133 64.4563C50.9624 64.6629 51.0256 64.866 51.1027 65.0639C51.0108 65.0727 50.9183 65.0727 50.8264 65.0639C50.7633 65.0639 50.7475 65.1508 50.6844 65.1508C50.4713 65.1508 50.4477 65.0008 50.3214 64.9613C49.9722 64.8268 49.658 64.6149 49.4024 64.3415C49.1468 64.0682 48.9565 63.7405 48.8457 63.383C48.7281 62.8465 48.5725 62.3191 48.3801 61.8047C48.2301 61.5048 48.0802 60.7472 47.7408 60.7472C47.5357 60.7472 47.6619 60.8735 47.4725 60.7472C47.4252 60.7472 47.4725 60.6604 47.4725 60.621C47.4768 60.3549 47.5112 60.0901 47.5751 59.8318H47.6382C47.4725 59.745 47.6382 59.2636 47.6382 59.0426C47.6382 58.1035 47.0937 57.559 47.0937 56.8803C46.8175 56.8803 47.1805 56.249 46.9674 55.9333C46.9043 55.8229 46.7307 55.8702 46.6912 55.8229C46.6518 55.7755 46.6281 55.6177 46.5018 55.4914C46.1388 55.8465 45.9968 56.4621 45.4049 56.4621C45.0814 56.4621 45.0656 56.2017 45.0656 55.9333C45.0656 55.665 45.1682 55.5309 45.1682 55.2941C45.1682 55.1915 45.0656 55.1284 45.0419 55.0258C44.8847 54.6294 44.6807 54.2532 44.4342 53.9052C44.1598 53.7248 43.9215 53.4946 43.7319 53.2265C43.5662 52.974 43.6056 52.6346 43.5188 52.3821C43.432 52.1296 43.0769 51.956 42.7297 51.8928C42.7297 52.5321 42.1378 52.682 41.5854 52.682C41.2539 52.682 41.2539 52.5715 41.0803 52.4689C40.9304 52.7846 40.4884 52.8083 40.4253 52.9977C40.3622 53.1871 40.3622 53.5264 40.1728 53.7158C39.794 54.0946 39.1784 54.2051 38.8391 54.505C38.4997 54.8048 38.0499 55.3494 37.6396 55.7518C37.4854 55.9395 37.2982 56.0973 37.0871 56.2174C36.7084 56.3437 36.298 56.4068 36.298 56.8567C36.298 57.3065 36.44 57.4485 36.44 57.78C36.44 58.3087 36.1875 58.6481 36.1875 59.0505L36.298 59.6029H36.1875C36.1875 59.6661 36.0454 59.6661 35.9823 59.6897C35.6824 59.7766 35.7456 60.3211 35.572 60.4079C35.3983 60.4947 35.28 60.4552 35.1774 60.6604C35.0748 60.8656 35.0669 61.0866 34.9012 61.0866C34.8664 61.0946 34.8303 61.0953 34.7952 61.0888C34.76 61.0823 34.7266 61.0686 34.697 61.0486C34.6674 61.0287 34.6422 61.0028 34.6231 60.9727C34.6039 60.9425 34.5911 60.9088 34.5855 60.8735C34.475 60.8735 34.4119 60.7236 34.3961 60.6604C34.2225 60.1554 33.9936 59.7292 33.8437 59.2873C33.7569 58.9953 33.4649 58.7822 33.3781 58.6165C33.2124 58.2771 33.315 58.0009 33.1492 57.7484C33.0241 57.5396 32.9385 57.3096 32.8967 57.0697C32.7862 56.7541 32.4074 56.0596 32.2575 55.594C32.0844 55.2014 31.965 54.7873 31.9023 54.3629C31.9023 54.2998 31.8629 54.1262 31.8629 54.063C31.8629 53.7789 31.9655 53.7237 31.9655 53.4633C31.9655 53.2028 31.7603 52.8714 31.7603 52.5952C31.7603 52.5321 31.8866 52.3821 31.8866 52.3032H31.713C31.4368 52.5715 31.421 53.2896 30.8685 53.2896C30.3161 53.2896 29.961 52.6346 29.6453 52.319C29.8347 52.1927 29.9847 52.319 30.1741 52.2322C30.3635 52.1454 30.3635 52.0033 30.4503 51.9165C30.2893 51.8841 30.1251 51.8709 29.961 51.877C29.4637 51.8042 29.0154 51.5376 28.7141 51.1352C28.5484 50.8669 28.4221 50.3461 28.1696 50.2908C27.9577 50.2593 27.7423 50.2593 27.5304 50.2908C27.2779 50.2908 27.2147 50.4566 27.0017 50.4566L26.4571 50.3066C26.3867 50.3466 26.3228 50.3972 26.2677 50.4566H25.5259C25.5259 50.4566 25.4391 50.4566 25.4233 50.4566C25.0209 50.4566 24.0897 50.204 23.5215 50.204C23.2689 50.1637 23.0206 50.1003 22.7796 50.0146C22.5666 49.8015 22.5666 49.1702 22.1246 49.1702C21.8879 49.1702 21.809 49.3596 21.6827 49.4859H20.6252C20.336 49.3583 20.0876 49.1535 19.9071 48.894C19.6546 48.6415 19.3152 48.7678 19.0785 48.5389C18.8417 48.31 19.0153 48.239 18.9759 48.1522C18.7391 47.6945 18.2814 47.0395 17.6816 47.0395C17.3897 47.0395 17.2634 47.4183 17.2634 47.7103C17.2422 47.8727 17.2422 48.0371 17.2634 48.1996C17.3897 48.7046 17.9894 49.6122 18.4708 49.7226C18.4708 49.9515 18.5971 50.0146 18.6208 50.204C18.8733 50.1409 18.8259 49.8647 19.039 49.8252C19.0501 49.9011 19.0501 49.9782 19.039 50.0541C19.039 50.3145 18.8891 50.4802 18.8891 50.7328C18.8891 50.9853 19.4415 51.1826 19.7571 51.1826C21.1697 51.1826 21.2802 50.3145 22.0378 49.7384V50.5276C22.3377 51.1431 22.7323 51.2536 23.3478 51.443C23.5767 51.5061 23.6004 51.8613 23.7503 51.9481C23.8529 52.1375 24.1528 52.098 24.1528 52.2874C24.1528 52.7688 23.5372 52.9424 23.5372 53.4475C23.2216 53.4475 23.0085 53.5343 22.9296 53.7868C22.8507 54.0394 22.8664 54.4024 22.606 54.4024C22.3456 54.4024 22.314 55.01 21.9984 55.01C21.8535 55.05 21.7221 55.1283 21.618 55.2366C21.5138 55.3449 21.4408 55.4793 21.4065 55.6256C20.8304 55.7282 19.5441 55.9649 19.5441 56.4147C19.5529 56.4853 19.5832 56.5514 19.6309 56.6041C19.0972 56.8213 18.5453 56.9903 17.9815 57.1092C17.729 57.1723 16.8846 57.7642 16.6084 57.8984H15.9534C15.5904 58.1509 15.5351 58.3245 15.0932 58.3245L14.959 58.4034C14.7359 58.3202 14.5173 58.2253 14.304 58.1193C14.2488 58.1193 14.4145 58.1193 14.304 57.8826C14.0769 57.5665 13.9478 57.1904 13.9331 56.8014C13.7043 56.8014 13.87 56.3753 13.9331 56.1859C14.0357 55.7203 13.6885 55.5309 13.4517 55.302C13.0291 54.9004 12.7376 54.3805 12.6152 53.8105C11.8734 53.6448 11.6998 53.2107 11.6998 52.4058C11.6998 51.9165 11.4236 51.8139 11.3368 51.4114C11.237 51.3275 11.1446 51.2351 11.0606 51.1352C10.9817 51.0563 10.7055 51.1352 10.6423 51.0326C10.5792 50.9301 10.5555 50.5907 10.5161 50.4645C10.4447 50.2783 10.3434 50.105 10.2162 49.9515C9.96365 49.5727 9.75058 49.257 9.52172 48.9019C9.39311 48.7382 9.27452 48.5669 9.1666 48.389C9.1666 48.1996 9.28497 47.7892 9.30864 47.4735L8.84304 46.3608C8.84304 46.2188 8.99298 46.2188 9.01666 46.1319C9.1666 45.6663 9.22974 45.4296 9.356 45.0113C9.48227 44.5931 9.90051 44.4826 9.90051 43.9933C9.90051 43.6382 9.79793 43.3383 9.79793 43.0858C9.79793 42.9595 9.90052 42.9201 9.93997 42.8806V42.6675C9.77425 42.7307 9.71112 42.8569 9.54539 42.8569C9.46692 42.8589 9.38884 42.8453 9.31567 42.8169C9.24251 42.7884 9.17574 42.7457 9.11925 42.6912C8.77991 42.9358 8.67732 43.2121 8.06178 43.2121C7.61985 43.2121 7.45411 42.6912 7.00429 42.6912C6.55447 42.6912 6.64917 43.1726 6.27038 43.1726C5.89158 43.1726 5.65482 42.6044 5.25235 42.7938H5.0235C5.08887 42.767 5.14603 42.7234 5.18923 42.6675C5.06296 42.5413 4.44741 42.2256 4.66048 42.0125C4.47108 41.7363 4.24223 41.7521 3.94235 41.6101C4.15542 41.397 4.38428 41.4364 4.38428 41.0419C4.38428 40.8919 4.34482 40.8919 4.38428 40.7814C4.24223 40.7814 4.02916 40.7814 4.02916 40.6788C4.02916 40.0238 5.55223 40.1501 5.93103 39.9607C5.93103 39.795 5.75741 39.8502 5.75741 39.7082C5.75741 39.5661 6.15989 39.5977 6.27038 39.5977H6.92538C7.24019 39.5255 7.53439 39.3825 7.78557 39.1794C8.1768 39.0258 8.59732 38.9611 9.01666 38.99C9.58485 38.99 9.56118 39.3057 10.0505 39.3057C10.0505 39.5582 10.8396 39.7082 11.1079 39.7318H12.3075C12.7336 39.7318 12.9861 39.4083 13.3492 39.2505H13.2624C13.2624 37.5774 10.8317 37.7905 10.303 36.5436C11.5341 36.228 10.9817 35.6519 10.9343 35.5256C11.0785 35.425 11.2085 35.3056 11.321 35.1705C10.5784 35.3943 9.8676 35.7126 9.20606 36.1175C9.20606 36.3779 9.48226 36.4331 9.56118 36.4331L10.1531 36.52C9.71753 36.848 9.21275 37.072 8.67732 37.175C8.37744 37.175 7.40676 35.5966 7.02796 35.5966C6.64917 35.5966 6.5229 36.1412 6.0573 36.2674C5.90736 36.2674 5.65483 36.3937 5.55224 36.3937L5.44175 36.2674C5.4023 36.2674 5.33916 36.1806 5.33916 36.1175V35.3915C4.81042 35.3915 4.93669 34.2866 4.36849 34.2866C3.8003 34.2866 3.53988 34.5628 2.86909 34.5628C2.37981 34.5628 1.95366 34.6891 1.95366 34.0972C1.93011 33.6634 2.04929 33.2337 2.29299 32.874C2.3798 32.7478 2.78228 32.661 2.78228 32.4084C2.78228 32.006 2.3798 31.7297 2.3798 31.2878C2.3798 31.0116 2.67969 30.8696 2.67969 30.5934C2.67969 30.1277 2.46661 29.3386 2.02468 29.3386C1.58275 29.3386 1.33812 29.3386 0.935646 29.3386C0.671665 29.3457 0.408244 29.3668 0.146484 29.4017C0.193834 28.6599 0.872512 28.7704 0.872512 27.9497C0.872512 27.4367 1.33811 26.466 1.71691 26.466C2.09571 26.466 2.13517 26.9948 2.56132 26.9948C2.81385 26.9948 3.35047 26.6081 2.30878 25.6137C1.98522 25.3139 3.0427 24.8877 3.50831 24.8877C3.97392 24.8877 4.21066 25.0298 4.56578 25.0298C4.98013 24.9551 5.37488 24.7967 5.72585 24.5642C5.60151 24.286 5.42158 24.0363 5.19712 23.8302C5.64694 23.2384 7.10689 22.4571 7.10689 21.7547C7.10689 21.2891 6.6176 21.2102 6.42821 20.8709C6.49134 20.8709 6.68074 20.7209 6.68074 20.5947C6.68074 20.1291 6.04941 20.0028 6.04941 19.5372C6.04941 19.2847 6.25459 19.1584 6.25459 18.9059C6.25459 18.4797 5.83633 18.2509 5.83633 17.8484C5.83633 17.4459 6.21513 17.3196 6.21513 16.9645C6.21513 16.6094 5.47333 16.5147 5.47333 16.1201C5.47333 15.7255 6.26249 15.252 6.5308 15.039C6.71855 14.9816 6.91913 14.9816 7.10689 15.039C7.80135 15.039 10.082 16.1833 11.1158 16.5147C14.7223 17.6669 12.3548 19.1347 11.179 18.8269C10.433 18.6466 9.66411 18.5801 8.89829 18.6297C9.32443 19.2373 9.17449 20.5315 10.3819 20.6341V19.8371C12.8204 20.8867 12.5363 18.8664 13.1203 18.677C13.7043 18.4876 14.817 18.9927 14.817 18.2509C14.817 17.8721 14.4382 17.801 14.5013 17.6195C15.4089 14.8101 15.8824 16.6568 15.5509 17.509C15.4641 17.7458 15.8271 17.9352 16.0797 17.9352C16.8688 17.9352 20.0255 15.1021 20.5226 16.3569C21.4854 16.8225 22.827 15.9386 23.482 15.9386C23.8608 15.9386 24.5474 17.2486 24.6421 15.623C24.6421 15.473 23.7109 14.4866 26.6071 15.2442C27.6567 15.5125 30.4661 17.5643 29.2902 15.7255C29.0033 15.4597 28.7746 15.1374 28.6184 14.7788C28.4622 14.4203 28.382 14.0333 28.3827 13.6422C28.3827 12.853 30.111 11.3457 31.0264 11.5351C32.8336 11.8902 31.6577 12.1822 31.6577 12.9003C31.6577 13.6185 31.8945 16.7515 32.7862 16.7515C33.4728 16.7515 32.1628 15.1731 32.6126 14.6996C33.2597 14.0052 32.3601 13.3896 32.1864 12.7978C32.4628 12.7 32.7091 12.5323 32.9013 12.311C33.0936 12.0897 33.2252 11.8224 33.2834 11.5351C33.5833 11.9139 33.4728 13.8473 34.7276 12.1664C36.2033 12.1664 36.369 12.4584 36.8346 12.1664C36.7557 11.8271 36.519 11.5746 36.519 11.322C36.519 10.1146 39.139 10.3671 39.8334 10.3671C40.3227 10.3671 40.4253 9.49906 40.7489 9.20707C42.3272 7.82603 45.2629 7.62874 45.9652 7.40777C45.7285 8.40212 48.459 7.30518 48.8772 6.98952C49.4533 6.5397 49.8952 5.71897 50.9922 5.71897C51.3459 5.71316 51.6918 5.82346 51.9769 6.03298C52.2619 6.2425 52.4705 6.5397 52.5705 6.87904H54.788C60.036 8.1417 53.6438 9.86207 52.9888 10.6828C52.9888 10.6828 52.3732 12.1033 55.1432 9.83839L55.1511 9.79894ZM18.9443 37.7353C18.818 37.4985 18.4708 37.5222 18.455 37.096C18.9178 36.8471 19.4152 36.6689 19.9308 36.5673C20.3175 36.5673 20.7199 36.8041 21.0514 36.5673C20.6331 35.936 20.4437 35.3836 19.2994 35.3836C18.021 35.3836 17.0819 36.1727 16.9319 36.0622C16.7223 36.3779 16.5502 36.7169 16.419 37.0724C16.419 37.388 16.8846 37.7037 16.8846 37.9168C17.0503 38.8406 17.5645 39.6655 18.3209 40.2211C17.9815 40.3869 17.9815 40.8998 17.729 41.2313H17.437C17.5001 41.539 17.5554 41.3575 17.7053 41.5943C17.8553 41.831 17.7053 42.0125 17.8158 42.2651C17.9263 42.5176 18.1946 42.3755 18.4314 42.415C18.6681 42.4545 18.6602 42.6675 18.7865 42.7938C19.0469 43.0542 20.3648 42.8885 20.7515 42.7938V42.415C20.3253 41.9967 20.6884 41.7284 20.6884 41.4838C20.6895 41.2725 20.6155 41.0676 20.4797 40.9057C20.3438 40.7438 20.1549 40.6355 19.9466 40.5999C20.0334 39.9449 20.4674 40.0712 21.004 40.0712C21.004 39.7555 20.6647 39.5819 20.6489 39.282C20.401 39.3668 20.1608 39.4724 19.9308 39.5977C19.915 38.7059 19.3389 38.4297 18.9443 37.7353Z" fill="url(#paint0_linear_880_47799)"/>
<path d="M48.8374 44.3856L48.8374 44.3856C49.4375 45.1268 50.5625 45.1268 51.1626 44.3856L51.1626 44.3856C52.0808 43.2512 53.6541 41.2038 55.0003 38.9337C56.3326 36.687 57.5 34.1297 57.5 32C57.5 27.8579 54.1421 24.5 50 24.5C45.8579 24.5 42.5 27.8579 42.5 32C42.5 34.1297 43.6674 36.687 44.9997 38.9337C46.3459 41.2038 47.9192 43.2512 48.8374 44.3856ZM50 34C48.8951 34 48 33.1049 48 32C48 30.8951 48.8951 30 50 30C51.1049 30 52 30.8951 52 32C52 33.1049 51.1049 34 50 34Z" fill="url(#paint1_linear_880_47799)" stroke="white"/>
<path d="M24.8374 53.3856L24.8374 53.3856C25.4375 54.1268 26.5625 54.1268 27.1626 53.3856L27.1626 53.3856C28.0808 52.2512 29.6541 50.2038 31.0003 47.9337C32.3326 45.687 33.5 43.1297 33.5 41C33.5 36.8579 30.1421 33.5 26 33.5C21.8579 33.5 18.5 36.8579 18.5 41C18.5 43.1297 19.6674 45.687 20.9997 47.9337C22.3459 50.2038 23.9192 52.2512 24.8374 53.3856ZM26 43C24.8951 43 24 42.1049 24 41C24 39.8951 24.8951 39 26 39C27.1049 39 28 39.8951 28 41C28 42.1049 27.1049 43 26 43Z" fill="url(#paint2_linear_880_47799)" stroke="white"/>
<path d="M82.8374 28.3856L82.8374 28.3856C83.4375 29.1268 84.5625 29.1268 85.1626 28.3856L85.1626 28.3856C86.0808 27.2512 87.6541 25.2038 89.0003 22.9337C90.3326 20.687 91.5 18.1297 91.5 16C91.5 11.8579 88.1421 8.5 84 8.5C79.8579 8.5 76.5 11.8579 76.5 16C76.5 18.1297 77.6674 20.687 78.9997 22.9337C80.3459 25.2038 81.9192 27.2512 82.8374 28.3856ZM84 18C82.8951 18 82 17.1049 82 16C82 14.8951 82.8951 14 84 14C85.1049 14 86 14.8951 86 16C86 17.1049 85.1049 18 84 18Z" fill="url(#paint3_linear_880_47799)" stroke="white"/>
</g>
<defs>
<linearGradient id="paint0_linear_880_47799" x1="0.146484" y1="35.5666" x2="102.629" y2="35.5666" gradientUnits="userSpaceOnUse">
<stop stop-color="#FBBC05"/>
<stop offset="1" stop-color="#F47725"/>
</linearGradient>
<linearGradient id="paint1_linear_880_47799" x1="56.9896" y1="34.7639" x2="43.1956" y2="33.0995" gradientUnits="userSpaceOnUse">
<stop stop-color="#EA002C"/>
<stop offset="1" stop-color="#F47725"/>
</linearGradient>
<linearGradient id="paint2_linear_880_47799" x1="32.9896" y1="43.7639" x2="19.1956" y2="42.0995" gradientUnits="userSpaceOnUse">
<stop stop-color="#EA002C"/>
<stop offset="1" stop-color="#F47725"/>
</linearGradient>
<linearGradient id="paint3_linear_880_47799" x1="90.9896" y1="18.7639" x2="77.1956" y2="17.0995" gradientUnits="userSpaceOnUse">
<stop stop-color="#EA002C"/>
<stop offset="1" stop-color="#F47725"/>
</linearGradient>
<clipPath id="clip0_880_47799">
<rect width="100" height="68" fill="white" transform="translate(0 0.5)"/>
</clipPath>
</defs>
</svg>
