<?xml version="1.0" encoding="UTF-8"?><svg id="Layer_1" xmlns="http://www.w3.org/2000/svg" viewBox="0 0 72 24"><defs><style>.cls-1{stroke-width:1.12px;}.cls-1,.cls-2{fill:none;stroke:#fff;}.cls-2{stroke-width:1.5px;}</style></defs><path class="cls-2" d="m60,19.73c4.14,0,7.5-3.36,7.5-7.5s-3.36-7.5-7.5-7.5-7.5,3.36-7.5,7.5,3.36,7.5,7.5,7.5Z"/><path class="cls-1" d="m58.5,12.23v-2.6l2.25,1.3,2.25,1.3-2.25,1.3-2.25,1.3v-2.6Z"/><path class="cls-2" d="m12,19.73c4.14,0,7.5-3.36,7.5-7.5s-3.36-7.5-7.5-7.5-7.5,3.36-7.5,7.5,3.36,7.5,7.5,7.5Z"/><path class="cls-1" d="m10.5,12.23v-2.6l2.25,1.3,2.25,1.3-2.25,1.3-2.25,1.3v-2.6Z"/></svg>